<svg width="32" height="34" viewBox="0 0 32 34" version="1.1" xmlns="http://www.w3.org/2000/svg" xmlns:xlink="http://www.w3.org/1999/xlink"><defs><polygon id="path-1" points="0.00857142857 0.115714286 0.00857142857 33.8574286 31.0207143 33.8574286 31.0207143 0.115714286 0.00857142857 0.115714286"/></defs><g transform="translate(-96.000000, -4053.000000) translate(96.000000, 4053.000000)" stroke="none" stroke-width="1" fill="none" fill-rule="evenodd" opacity=".8"><mask id="mask-2" fill="#fff"><use xlink:href="#path-1"/></mask><path d="M26.1227143,28.4148571 L22.313,28.4148571 L22.313,24.7201429 L22.428,24.6548571 C25.2818571,23.0494286 27.2221429,20.1698571 27.6551429,16.926 C28.4001429,16.0471429 28.8437143,14.8981429 28.8437143,13.6654286 L28.8437143,11.3445714 C28.8437143,10.258 28.3342857,9.39585714 27.553,9.02314286 C26.6042857,3.844 22.1697143,0.115714286 16.8711429,0.115714286 C13.9224286,0.115714286 11.178,1.27314286 9.116,3.38085714 L3.26557143,3.38085714 L3.26557143,3.92542857 C3.26557143,6.09171429 4.42628571,7.988 6.15457143,9.03871429 C5.75557143,9.22742857 5.42685714,9.53314286 5.20485714,9.91157143 L4.35385714,9.91157143 C3.45371429,9.91157143 2.721,10.6442857 2.721,11.5442857 L2.721,12.1375714 C1.17971429,12.3981429 0,13.7391429 0,15.354 L0,19.7072857 C0,21.508 1.46428571,22.9728571 3.265,22.9728571 L3.80971429,22.9728571 C5.01,22.9728571 5.98657143,23.9488571 5.98657143,25.1498571 L5.98657143,28.7005714 C4.087,29.3758571 2.721,31.1855714 2.721,33.3127143 L2.721,33.8574286 L3.80971429,33.8574286 L3.80971429,33.3127143 C3.80971429,31.7971429 4.70142857,30.4891429 5.98657143,29.8764286 L5.98657143,33.8574286 L7.07471429,33.8574286 L7.07471429,29.5471429 C7.25328571,29.5214286 7.43414286,29.5035714 7.61942857,29.5035714 L11.7862857,29.5035714 L16.8711429,33.4584286 L21.9554286,29.5035714 L26.1227143,29.5035714 C28.2227143,29.5035714 29.9318571,31.2122857 29.9318571,33.3127143 L29.9318571,33.8574286 L31.0207143,33.8574286 L31.0207143,33.3127143 C31.0207143,30.6124286 28.8237143,28.4148571 26.1227143,28.4148571 Z M4.38442857,4.46957143 L9.58428571,4.46957143 L9.74614286,4.29771429 C11.6165714,2.30271429 14.1472857,1.204 16.8711429,1.204 C21.4224286,1.204 25.4028571,4.42942857 26.4084286,8.81442857 C25.0802857,8.72228571 23.9074286,7.89757143 23.3772857,6.661 L22.313,4.17542857 L21.2482857,6.66042857 C20.6852857,7.974 19.3984286,8.82342857 17.9692857,8.82342857 L9.25171429,8.82342857 C6.735,8.82342857 4.65571429,6.91542857 4.38442857,4.46957143 Z M23.6762857,8.82342857 L20.9497143,8.82342857 C21.5011429,8.363 21.9531429,7.77814286 22.2488571,7.08957143 L22.313,6.94 L22.3772857,7.09014286 C22.6724286,7.77814286 23.1255714,8.363 23.6762857,8.82342857 Z M5.98657143,11.0097143 C5.98657143,10.4042857 6.47885714,9.91157143 7.08485714,9.91157143 L26.6574286,9.91157143 C27.3242857,9.91157143 27.755,10.474 27.755,11.3445714 L27.755,13.6654286 C27.755,15.4042857 26.6411429,16.9305714 25.0462857,17.377 C23.74,17.7412857 22.423,17.4505714 21.4318571,16.5784286 L21.2784286,16.4422857 L12.4631429,16.4422857 L12.3091429,16.5784286 C11.4262857,17.3557143 10.2471429,17.6788571 9.07871429,17.4645714 C7.28685714,17.1375714 5.98657143,15.5008571 5.98657143,13.5722857 L5.98657143,11.0097143 Z M3.80971429,11.5442857 C3.80971429,11.2447143 4.05357143,11.0002857 4.35385714,11.0002857 L4.89785714,11.0002857 L4.89785714,14.2652857 L4.35385714,14.2652857 C4.05357143,14.2652857 3.80971429,14.031 3.80971429,13.7312857 L3.80971429,11.5442857 Z M11.4285714,28.4148571 L7.61885714,28.4148571 C7.43528571,28.4148571 7.25385714,28.4271429 7.07471429,28.4472857 L7.07471429,25.1498571 C7.07471429,23.349 5.61042857,21.8847143 3.80971429,21.8847143 L3.26557143,21.8847143 C2.06471429,21.8847143 1.08871429,20.9081429 1.08871429,19.7078571 L1.08871429,15.354 C1.08871429,14.3428571 1.78457143,13.4974286 2.721,13.2541429 L2.721,13.7312857 C2.721,14.6314286 3.45371429,15.354 4.35385714,15.354 L5.212,15.354 C5.41457143,15.8981429 5.711,16.43 6.08085714,16.8758571 C6.50171429,20.1391429 8.44414286,23.0387143 11.3141429,24.6531429 L11.4285714,24.7201429 L11.4285714,28.4148571 Z M21.2242857,28.6932857 L16.8711429,32.0794286 L12.5172857,28.6932857 L12.5172857,25.3317143 L13.5485714,25.9121429 C14.5608571,26.4812857 15.7098571,26.782 16.8711429,26.782 C18.0324286,26.782 19.1808571,26.4812857 20.1931429,25.9121429 L21.2242857,25.3317143 L21.2242857,28.6932857 Z M21.894,23.7067143 L19.6601429,24.9634286 C17.9604286,25.9192857 15.7812857,25.9192857 14.0814286,24.9634286 L11.8477143,23.7067143 C9.65171429,22.4712857 8.06257143,20.3964286 7.41071429,17.9958571 C7.86042857,18.2514286 8.35428571,18.4388571 8.884,18.536 C10.3147143,18.7971429 11.7532857,18.4315714 12.8677143,17.531 L20.8738571,17.531 C21.7578571,18.2474286 22.8231429,18.6208571 23.9364286,18.6202857 C24.399,18.6202857 24.8705714,18.5555714 25.3398571,18.4244286 C25.688,18.3272857 26.0167143,18.1871429 26.3258571,18.0164286 C25.6691429,20.4087143 24.0814286,22.4762857 21.894,23.7067143 Z" fill="#FFF" mask="url(#mask-2)"/><polygon fill="#FFF" points="8.16357143 14.81 22.8571429 14.81 22.8571429 13.7212857 8.16357143 13.7212857"/><polygon fill="#FFF" points="23.9458571 14.81 25.5781429 14.81 25.5781429 13.7212857 23.9458571 13.7212857"/></g></svg>