<svg width="49" height="64" viewBox="0 0 49 64" version="1.1" xmlns="http://www.w3.org/2000/svg" xmlns:xlink="http://www.w3.org/1999/xlink"><path d="M326.649949,496.117875 L283.870403,496.117875 L283.870403,486.441375 C283.870403,482.576125 287.002238,479.431375 290.851767,479.431375 C290.904054,479.431375 293.213497,479.375125 295.038295,478.5425 L302.710464,489.51325 C303.293582,490.347125 304.24781,490.845 305.262541,490.845 L305.26279,490.845 C306.277397,490.845 307.231625,490.347125 307.814744,489.51325 L315.485792,478.544125 C317.566918,479.431625 319.616423,479.431625 319.668709,479.431625 C323.518114,479.431625 326.649949,482.57625 326.649949,486.4415 L326.649949,496.117875 Z M301.693741,470.279125 C302.831345,470.692625 304.028207,470.913625 305.262292,470.913625 C306.486667,470.913625 307.682907,470.699625 308.828105,470.28675 C309.35346,473.035625 310.875619,475.4315 313.001935,477.080875 L305.465836,487.856875 C305.416538,487.92725 305.348316,487.962875 305.262541,487.962875 C305.177016,487.962875 305.108794,487.92725 305.05962,487.857 L297.521654,477.0785 C299.648219,475.42725 301.16988,473.029625 301.693741,470.279125 Z M294.917787,455.621875 C296.728767,454.00125 298.160545,451.9845 299.092489,449.7475 C299.233911,449.8785 299.38243,450.002375 299.537546,450.11875 C300.500613,450.840375 301.646807,451.222 302.85226,451.222 L312.633814,451.222 C314.017662,451.222 315.210665,452.0555 315.742991,453.248375 C315.742867,453.258625 315.741373,453.2685 315.741373,453.278625 C315.741373,461.4135 311.04057,468.0315 305.262417,468.0315 C302.747687,468.0315 300.309021,466.739125 298.396083,464.3925 C296.528584,462.101875 295.305454,459.0085 294.917787,455.621875 Z M299.644609,439.468875 C300.168345,439.316875 300.721461,439.22675 301.288645,439.201125 C301.49916,439.191625 301.705069,439.13575 301.891558,439.03725 C303.344624,438.27075 304.883714,437.882125 306.466251,437.882125 C312.339142,437.882125 317.117005,443.1575 317.117005,449.641875 C317.117005,449.8365 317.111527,450.030125 317.103062,450.223 C315.963964,449.0615 314.381427,448.33975 312.633565,448.33975 L302.852135,448.33975 C302.270261,448.33975 301.717768,448.15625 301.254534,447.809 C300.859025,447.512625 300.553273,447.11425 300.37052,446.657 C300.087675,445.94975 299.390397,445.507375 298.631123,445.555375 C297.86911,445.604 297.228103,446.135375 297.035639,446.877625 C296.468828,449.064625 295.338445,451.079125 293.787902,452.71275 C292.345293,446.75025 294.949284,440.831 299.644609,439.468875 Z M320.006206,476.557875 C319.955538,476.552375 312.618377,476.769625 311.527457,468.875 C312.739631,468.02575 313.856819,466.92325 314.84105,465.5855 C316.755731,462.982875 317.989442,459.718125 318.428898,456.186875 C318.579906,456.049625 318.704895,455.879125 318.789052,455.678 C319.58418,453.776125 319.987408,451.745375 319.987408,449.641875 C319.987408,441.568375 313.922053,435 306.466251,435 C304.516463,435 302.624564,435.451 300.837861,436.341625 C300.156269,436.393875 299.488372,436.51425 298.847863,436.7 C295.785743,437.588375 293.293919,439.868 291.831267,443.11925 C290.411316,446.276 290.131459,449.992 291.043484,453.583125 C291.236322,454.34175 291.481197,455.087375 291.77176,455.7995 C291.850439,455.99225 291.967585,456.1565 292.108385,456.29175 C292.820353,461.803625 295.432187,466.3705 298.993642,468.863875 C297.899361,476.772 290.564939,476.5525 290.514271,476.558 C285.237943,476.737625 281,481.100625 281,486.441375 L281,497.558875 C281,498.354875 281.642501,499 282.435264,499 L328.085089,499 C328.877602,499 329.520228,498.354875 329.520228,497.558875 L329.520228,486.441375 C329.520228,481.1005 325.282534,476.7375 320.006206,476.557875 L320.006206,476.557875 Z" transform="translate(-281.000000, -435.000000)" fill="#D8D8D8" stroke="none" stroke-width="1" fill-rule="evenodd"/></svg>