<svg width="9" height="12" viewBox="0 0 9 12" version="1.1" xmlns="http://www.w3.org/2000/svg" xmlns:xlink="http://www.w3.org/1999/xlink"><path d="M4.48472993,3 C2.0079708,3 0,5.0079708 0,7.48472993 C0,9.96134307 3.73722628,14.9591825 4.48472993,14.9591825 C5.23208759,14.9591825 8.96931387,9.96134307 8.96931387,7.48472993 C8.96931387,5.0079708 6.96134307,3 4.48472993,3 Z M4.48472993,10.4744526 C2.83576642,10.4744526 1.49486131,9.13287591 1.49486131,7.48472993 C1.49486131,5.83655474 2.83576642,4.49486131 4.48472993,4.49486131 C6.13354745,4.49486131 7.47445255,5.83655474 7.47445255,7.48472993 C7.47445255,9.13287591 6.13354745,10.4744526 4.48472993,10.4744526 Z" transform="translate(-645.000000, -636.000000) translate(579.000000, 296.000000) translate(66.000000, 337.000000)" fill="#AAA" stroke="none" stroke-width="1" fill-rule="evenodd"/></svg>