<svg width="34" height="34" viewBox="0 0 34 34" version="1.1" xmlns="http://www.w3.org/2000/svg" xmlns:xlink="http://www.w3.org/1999/xlink"><defs><polygon id="path-1" points="0.00397660819 34 33.9337895 34 33.9337895 0.0662105263 0.00397660819 0.0662105263"/></defs><g transform="translate(-100.000000, -4241.000000) translate(100.000000, 4241.000000)" stroke="none" stroke-width="1" fill="none" fill-rule="evenodd" opacity=".8"><mask id="mask-2" fill="#fff"><use xlink:href="#path-1"/></mask><path d="M23.5964639,27.405922 C23.2994776,27.405922 23.0587602,27.6465731 23.0587602,27.9436257 L23.0587602,29.1758441 C23.0587602,29.3655945 23.1587719,29.5412943 23.3218791,29.6381248 C23.8565341,29.9557232 24.1886472,30.5381637 24.1886472,31.1581832 C24.1886472,32.1321209 23.3962417,32.9245263 22.4222378,32.9245263 C21.4483002,32.9245263 20.6558947,32.1321209 20.6558947,31.1581832 C20.6558947,30.5379649 20.9879415,29.9555244 21.5224639,29.638191 C21.6855712,29.5412943 21.7856491,29.3655945 21.7856491,29.1758441 L21.7856491,27.9436257 C21.7856491,27.6465731 21.5449318,27.405922 21.2479454,27.405922 L17.5045653,27.405922 L17.5045653,23.6624094 C17.5045653,23.3653567 17.2639142,23.1247057 16.9669279,23.1247057 L15.734577,23.1247057 C15.5448928,23.1247057 15.3690604,23.2247836 15.27223,23.3878908 C14.9547641,23.9226784 14.3723899,24.2547914 13.7523041,24.2547914 C12.7783002,24.2547914 11.9858947,23.4623197 11.9858947,22.4883158 C11.9858947,21.5142456 12.7783002,20.7217739 13.7523041,20.7217739 C14.3723236,20.7217739 14.9547641,21.0539532 15.2722963,21.5885419 C15.3691267,21.7517154 15.5448928,21.8517271 15.734577,21.8517271 L16.9669279,21.8517271 C17.2639142,21.8517271 17.5045653,21.611076 17.5045653,21.3140234 L17.5045653,17.5707096 L20.7102417,17.5707096 L20.7102417,17.9801014 C20.0065809,18.5134308 19.5804211,19.3562729 19.5804211,20.2478947 C19.5804211,21.8147446 20.8552554,23.0895127 22.4222378,23.0895127 C23.9890877,23.0895127 25.263922,21.8148109 25.263922,20.2478947 C25.263922,19.3561404 24.8377622,18.5133645 24.1340351,17.9801014 L24.1340351,17.5707096 L27.3397115,17.5707096 L27.3397115,27.4059883 L23.5964639,27.4059883 L23.5964639,27.405922 Z M13.2234815,16.0860429 C13.9271423,15.5527135 14.3533021,14.7098713 14.3533021,13.8184483 C14.3533021,12.2515322 13.0784678,10.9766316 11.5114854,10.9766316 C9.9445692,10.9766316 8.66973489,12.2514659 8.66973489,13.8184483 C8.66973489,14.7098713 9.09589474,15.5526472 9.79975439,16.0861092 L9.79975439,16.4953684 L6.59407797,16.4953684 L6.59407797,6.66022222 L10.3373918,6.66022222 C10.6344444,6.66022222 10.8750955,6.41957115 10.8750955,6.12251852 L10.8750955,4.89036647 C10.8750955,4.70061598 10.7750838,4.52491618 10.6119766,4.42808577 C10.0773879,4.11048733 9.74520858,3.52804678 9.74520858,2.90802729 C9.74520858,1.93402339 10.5375478,1.14161793 11.5115517,1.14161793 C12.4854893,1.14161793 13.277961,1.93402339 13.277961,2.90796101 C13.277961,3.52817934 12.945848,4.11055361 12.4113255,4.42795322 C12.2482183,4.5248499 12.1481404,4.70054971 12.1481404,4.89030019 L12.1481404,6.12251852 C12.1481404,6.41957115 12.3887914,6.66022222 12.6858441,6.66022222 L16.4292242,6.66022222 L16.4292242,10.4035361 C16.4292242,10.7005224 16.6698752,10.9412398 16.9669279,10.9412398 L18.1991462,10.9412398 C18.3888304,10.9412398 18.5646628,10.8412281 18.6614269,10.6781209 C18.9789591,10.1433996 19.5614659,9.81128655 20.1815517,9.81128655 C21.1554893,9.81128655 21.9478285,10.603692 21.9478285,11.5776959 C21.9478285,12.5516998 21.1554893,13.3441715 20.1815517,13.3441715 C19.5613333,13.3441715 18.9788928,13.0120585 18.6614932,12.4775361 C18.5645965,12.3143626 18.3888967,12.2142846 18.1991462,12.2142846 L16.9669279,12.2142846 C16.6698752,12.2142846 16.4292242,12.4549357 16.4292242,12.7519883 L16.4292242,16.4953684 L13.2234815,16.4953684 L13.2234815,16.0860429 Z M31.092039,8.73587914 C30.200616,8.73587914 29.3577739,9.16203899 28.8243119,9.86583236 L28.4151189,9.86583236 L28.4151189,6.12251852 C28.4151189,5.82553216 28.1744016,5.58481481 27.8774152,5.58481481 L26.0780663,5.58481481 C25.7810136,5.58481481 25.5403626,5.82553216 25.5403626,6.12251852 C25.5403626,6.41957115 25.7810136,6.66022222 26.0780663,6.66022222 L27.3397115,6.66022222 L27.3397115,10.4035361 C27.3397115,10.7005224 27.5803626,10.9412398 27.8774152,10.9412398 L29.109501,10.9412398 C29.2992515,10.9412398 29.4749513,10.8412281 29.5717817,10.6781209 C29.8893801,10.1433996 30.4718869,9.81128655 31.0919727,9.81128655 C32.0659103,9.81128655 32.8583158,10.603692 32.8583158,11.5776959 C32.8583158,12.5516998 32.0659103,13.3441715 31.0919727,13.3441715 C30.4717544,13.3441715 29.8892476,13.0120585 29.571848,12.4774698 C29.4749513,12.3143626 29.2991852,12.2142846 29.109501,12.2142846 L27.8774152,12.2142846 C27.5803626,12.2142846 27.3397115,12.4549357 27.3397115,12.7519883 L27.3397115,16.4953684 L23.5963314,16.4953684 C23.2994113,16.4953684 23.0586277,16.7360195 23.0586277,17.0330058 L23.0586277,18.2653567 C23.0586277,18.4551735 23.1587057,18.6309396 23.3218791,18.7277037 C23.8564016,19.045037 24.1885146,19.6275439 24.1885146,20.2478285 C24.1885146,21.2216998 23.3961754,22.014039 22.4222378,22.014039 C21.4482339,22.014039 20.6557622,21.2216998 20.6557622,20.2478285 C20.6557622,19.6275439 20.9878752,19.0451033 21.5223977,18.7277037 C21.6855712,18.630807 21.7856491,18.4551072 21.7856491,18.2653567 L21.7856491,17.0330058 C21.7856491,16.7360195 21.5449318,16.4953684 21.2479454,16.4953684 L17.5045653,16.4953684 L17.5045653,13.289692 L17.9138246,13.289692 C18.4470877,13.9933528 19.2898635,14.4195127 20.1815517,14.4195127 C21.7484016,14.4195127 23.0232359,13.1446784 23.0232359,11.5776959 C23.0232359,10.0107797 21.7484678,8.73587914 20.1815517,8.73587914 C19.2900624,8.73587914 18.4472865,9.16203899 17.9138908,9.86583236 L17.5045653,9.86583236 L17.5045653,6.66022222 L24.2855439,6.66022222 C24.5825302,6.66022222 24.8231813,6.41957115 24.8231813,6.12251852 C24.8231813,5.82553216 24.5825302,5.58481481 24.2855439,5.58481481 L13.2235478,5.58481481 L13.2235478,5.17562183 C13.9272086,4.64235867 14.3533021,3.79951657 14.3533021,2.90796101 C14.3533021,1.34104483 13.0785341,0.0662105263 11.5115517,0.0662105263 C9.94463548,0.0662105263 8.66973489,1.34097856 8.66973489,2.90796101 C8.66973489,3.79938402 9.09582846,4.64209357 9.79962183,5.17555556 L9.79962183,5.58481481 L6.05644055,5.58481481 C6.05644055,5.58481481 6.05644055,5.58481481 6.05637427,5.58481481 C5.75938791,5.58481481 5.51867057,5.82553216 5.51867057,6.12251852 L5.51867057,20.7764522 L5.10941131,20.7764522 C4.57614815,20.0727914 3.73350487,19.6466316 2.84181676,19.6466316 C1.27483431,19.6466316 0,20.9214659 0,22.4883821 C0,24.0552982 1.27483431,25.3301988 2.84181676,25.3301988 C3.73323977,25.3301988 4.57594932,24.904039 5.10941131,24.2001793 L5.51867057,24.2001793 L5.51867057,27.9435595 L5.51867057,27.9436257 C5.51867057,28.2406121 5.75938791,28.4813294 6.05637427,28.4813294 L7.96315789,28.4813294 C8.26014425,28.4813294 8.5008616,28.2406121 8.5008616,27.9436257 C8.5008616,27.6465731 8.26014425,27.405922 7.96315789,27.405922 L6.59407797,27.405922 L6.59407797,23.6624756 C6.59407797,23.365423 6.3534269,23.1247719 6.05637427,23.1247719 L4.82408967,23.1247719 C4.63433918,23.1247719 4.4585731,23.2247836 4.36180897,23.3879571 C4.0442768,23.9226784 3.46183626,24.2547914 2.84181676,24.2547914 C1.86781287,24.2547914 1.07540741,23.462386 1.07540741,22.4883821 C1.07540741,21.5143119 1.86781287,20.7219064 2.84181676,20.7219064 C3.46203509,20.7219064 4.04447563,21.0540195 4.36174269,21.5885419 C4.4585731,21.7517154 4.6342729,21.8517934 4.82408967,21.8517934 L6.05630799,21.8517934 C6.35336062,21.8517934 6.5940117,21.6111423 6.5940117,21.3140897 L6.5940117,17.5707096 L10.3374581,17.5707096 C10.6345107,17.5707096 10.8751618,17.3300585 10.8751618,17.0330058 L10.8751618,15.8007875 C10.8751618,15.6111033 10.7751501,15.435271 10.6119766,15.3385068 C10.0772554,15.0209084 9.7451423,14.4384678 9.7451423,13.8184483 C9.7451423,12.8444444 10.5375478,12.052039 11.5114854,12.052039 C12.4854893,12.052039 13.277961,12.8444444 13.277961,13.8184483 C13.277961,14.4385341 12.945848,15.0209747 12.4112593,15.3385068 C12.2480858,15.4353372 12.1480741,15.6111033 12.1480741,15.8007875 L12.1480741,17.0330058 C12.1480741,17.3300585 12.3887251,17.5707096 12.6857778,17.5707096 L16.4292242,17.5707096 L16.4292242,20.776386 L16.0197661,20.776386 C15.4864366,20.0726589 14.6436608,19.6464327 13.7522378,19.6464327 C12.1853216,19.6464327 10.9104211,20.9213333 10.9104211,22.4883821 C10.9104211,24.0553645 12.1852554,25.3302651 13.7522378,25.3302651 C14.6437934,25.3302651 15.4864366,24.904039 16.0198324,24.2001793 L16.4292242,24.2001793 L16.4292242,27.4059883 L9.63638207,27.4059883 C9.33932943,27.4059883 9.09867836,27.6466394 9.09867836,27.943692 C9.09867836,28.2406784 9.33932943,28.4813957 9.63638207,28.4813957 L20.7102417,28.4813957 L20.7102417,28.8905887 C20.0065809,29.4239181 19.5805536,30.266694 19.5805536,31.1582495 C19.5805536,32.7251657 20.8553216,34 22.4222378,34 C23.989154,34 25.2640546,32.725232 25.2640546,31.1582495 C25.2640546,30.2668265 24.837961,29.4240507 24.1341676,28.890655 L24.1341676,28.4813957 L27.8774152,28.4813957 C28.1744016,28.4813957 28.4151189,28.2406784 28.4151189,27.943692 L28.4151189,13.289692 L28.8242456,13.289692 C29.3576413,13.9933528 30.2004834,14.4195127 31.092039,14.4195127 C32.6589552,14.4195127 33.9337895,13.1446784 33.9337895,11.5776959 C33.9337232,10.0107135 32.6589552,8.73587914 31.092039,8.73587914 L31.092039,8.73587914 Z" fill="#FFF" mask="url(#mask-2)"/></g></svg>