<svg width="32" height="32" viewBox="0 0 32 32" version="1.1" xmlns="http://www.w3.org/2000/svg" xmlns:xlink="http://www.w3.org/1999/xlink"><defs><polygon id="path-1" points="0.00375 31.49625 32 31.49625 32 0.0013125 0.00375 0.0013125"/></defs><g transform="translate(-355.000000, -4146.000000) translate(355.000000, 4146.000000)" stroke="none" stroke-width="1" fill="none" fill-rule="evenodd" opacity=".8"><mask id="mask-2" fill="#fff"><use xlink:href="#path-1"/></mask><path d="M13.623875,12.3498125 L9.59275,12.3498125 C9.2466875,12.3498125 8.966125,12.630375 8.966125,12.9764375 C8.966125,13.3225 9.2466875,13.6030625 9.59275,13.6030625 L12.9394375,13.6030625 C12.6444375,15.182 11.256,16.3809375 9.59275,16.3809375 C7.7154375,16.3809375 6.1881875,14.85375 6.1881875,12.9764375 C6.1881875,11.099125 7.7154375,9.571875 9.59275,9.571875 C10.502125,9.571875 11.3570625,9.9260625 12.0000625,10.5690625 C12.2448125,10.8138125 12.6415625,10.8138125 12.88625,10.5690625 C13.1309375,10.324375 13.1309375,9.9275625 12.88625,9.6829375 C12.0064375,8.803125 10.8368125,8.318625 9.592625,8.318625 C7.0243125,8.318625 4.934875,10.4080625 4.934875,12.9764375 C4.934875,15.5448125 7.0243125,17.63425 9.592625,17.63425 C12.161,17.63425 14.2504375,15.5448125 14.2504375,12.9764375 C14.2505,12.630375 13.9699375,12.3498125 13.623875,12.3498125" fill="#FFF" mask="url(#mask-2)"/><path d="M30.74675,28.89575 C30.74675,29.6406875 30.1406875,30.24675 29.3956875,30.24675 L19.035875,30.24675 L23.2243125,25.7880625 L23.2240625,25.787875 C23.242375,25.7684375 23.25975,25.747875 23.2755625,25.726 C23.3933125,25.562875 23.4256875,25.3530625 23.3624375,25.1620625 L22.3194375,22.0119375 C22.7615,21.5490625 23.1744375,21.0655 23.55725,20.576625 C24.3884375,21.562375 25.3720625,22.667 26.418375,23.7133125 C26.5406875,23.835625 26.701125,23.896875 26.8614375,23.896875 C27.0218125,23.896875 27.1821875,23.8356875 27.3045,23.7133125 C27.54925,23.468625 27.54925,23.0718125 27.3045,22.8271875 C26.2131875,21.7358125 25.17875,20.5619375 24.324125,19.5376875 C25.6523125,17.63125 26.513625,15.8186875 26.8575,15.0405625 L28.1984375,15.0405625 C28.5445,15.0405625 28.8250625,14.76 28.8250625,14.4139375 C28.8250625,14.067875 28.5445,13.7873125 28.1984375,13.7873125 L26.4351875,13.7873125 L26.4318125,13.7873125 L24.0626875,13.7873125 L24.0626875,12.659375 C24.0626875,12.3133125 23.782125,12.03275 23.4360625,12.03275 C23.0899375,12.03275 22.809375,12.3133125 22.809375,12.659375 L22.809375,13.7871875 L19.5965625,13.7871875 L17.272875,6.7689375 L29.3956875,6.7689375 C30.140625,6.7689375 30.74675,7.375 30.74675,8.1199375 L30.74675,28.89575 Z M16.621625,25.985625 L21.31925,25.985625 L17.8503125,29.6784375 L16.621625,25.985625 Z M25.4765,15.0405 C25.08925,15.8549375 24.4179375,17.1538125 23.49575,18.5239375 C22.64875,17.466375 22.1164375,16.7350625 22.10525,16.719625 C21.9020625,16.4394375 21.51025,16.3770625 21.230125,16.58025 C20.949875,16.783375 20.8875,17.175125 21.0905625,17.455375 C21.140875,17.5246875 21.767125,18.3851875 22.7378125,19.5845 C22.46425,19.94425 22.1743125,20.301625 21.8684375,20.64925 L20.0114375,15.0405 L25.4765,15.0405 Z M1.25325,23.381375 L1.25325,2.605625 C1.25325,1.8606875 1.8593125,1.2545625 2.6043125,1.2545625 L14.1270625,1.2545625 L18.5451875,14.5993125 C18.5454375,14.60025 18.5458125,14.6010625 18.546125,14.602 L21.900125,24.732375 L2.6043125,24.732375 C1.8593125,24.732375 1.25325,24.1263125 1.25325,23.381375 Z M29.3956875,5.5156875 L16.858,5.5156875 L15.1745,0.431 C15.089625,0.1745 14.8498125,0.0013125 14.579625,0.0013125 L2.6043125,0.0013125 C1.1683125,0.0013125 0,1.169625 0,2.605625 L0,23.381375 C0,24.817375 1.1683125,25.985625 2.6043125,25.985625 L15.300875,25.985625 L16.9929375,31.07125 C17.078125,31.3273125 17.317625,31.5 17.5874375,31.5 L29.39575,31.5 C30.8316875,31.5 32,30.3316875 32,28.89575 L32,8.1199375 C32,6.6839375 30.8316875,5.5156875 29.3956875,5.5156875 L29.3956875,5.5156875 Z" fill="#FFF" mask="url(#mask-2)"/></g></svg>