<svg xmlns="http://www.w3.org/2000/svg" width="16" height="16" viewBox="0 0 16 16">
    <path d="M 2.5 1 C 1.6774686 1 1 1.6774686 1 2.5 L 1 5 L 2 5 L 2 2.5 C 2 2.2185314 2.2185314 2 2.5 2 L 12.5 2 C 12.781469 2 13 2.2185314 13 2.5 L 13 12.5 C 13 12.781469 12.781469 13 12.5 13 L 2.5 13 C 2.2185314 13 2 12.781469 2 12.5 L 2 10 L 1 10 L 1 12.5 C 1 13.322531 1.6774686 14 2.5 14 L 12.5 14 C 13.322531 14 14 13.322531 14 12.5 L 14 2.5 C 14 1.6774686 13.322531 1 12.5 1 L 2.5 1 z M 6.7285156 4.0214844 L 6.0214844 4.7285156 L 8.2929688 7 L 0 7 L 0 8 L 8.2929688 8 L 6.0214844 10.271484 L 6.7285156 10.978516 L 10.207031 7.5 L 6.7285156 4.0214844 z" color="#000"></path>
</svg>