<svg width="15" height="11" viewBox="0 0 15 11" version="1.1" xmlns="http://www.w3.org/2000/svg" xmlns:xlink="http://www.w3.org/1999/xlink"><g transform="translate(-95.000000, -5547.000000) translate(95.000000, 5547.000000)" fill="#9494A5" stroke="none" stroke-width="1" fill-rule="evenodd"><path d="M7.46933333,7.46933333 L5.62,5.84933333 L0.338666667,10.3746667 C0.530666667,10.5573333 0.786666667,10.6666667 1.07333333,10.6666667 L13.86,10.6666667 C14.1453333,10.6666667 14.4013333,10.5573333 14.5933333,10.3746667 L9.312,5.84933333 L7.46933333,7.46933333 Z"/><path d="M14.5933333,0.292 C14.4066667,0.109333333 14.1453333,0 13.86,0 L1.07333333,0 C0.792,0 0.530666667,0.109333333 0.338666667,0.292 L7.46933333,6.40133333 L14.5933333,0.292 Z"/><polygon points="0 0.937333333 0 9.79733333 5.156 5.416"/><polygon points="9.776 5.416 14.932 9.79733333 14.932 0.932"/></g></svg>