<svg width="32" height="30" viewBox="0 0 32 30" version="1.1" xmlns="http://www.w3.org/2000/svg" xmlns:xlink="http://www.w3.org/1999/xlink"><defs><polygon id="path-1" points="0.00468292683 0.00835121951 0.00468292683 21.8537366 22.9111472 21.8537366 22.9111472 0.00835121951 0.00468292683 0.00835121951"/><polygon id="path-3" points="0.00468292683 0.0553170732 0.00468292683 29.892761 31.9689366 29.892761 31.9689366 0.0553170732 0.00468292683 0.0553170732"/></defs><g transform="translate(-356.000000, -3966.000000) translate(356.000000, 3966.000000)" stroke="none" stroke-width="1" fill="none" fill-rule="evenodd" opacity=".8"><g transform="translate(0.000000, 8.039024)"><mask id="mask-2" fill="#fff"><use xlink:href="#path-1"/></mask><path d="M22.5070049,18.6727024 C22.2213463,18.6004293 21.9323317,18.7751024 21.8613073,19.0601366 L21.3286244,21.1912585 C21.2567415,21.4775415 21.4307902,21.7662439 21.7164488,21.8375805 C21.7594537,21.8488976 21.8033171,21.8537366 21.8460098,21.8537366 C22.084761,21.8537366 22.3015024,21.6921756 22.3622244,21.4503805 L22.8951415,19.3190244 C22.966478,19.0333659 22.7926634,18.7443512 22.5070049,18.6727024 Z" fill="#FFF" mask="url(#mask-2)"/><path d="M15.9844683,8.00039024 C16.0536976,8.00039024 16.1228488,7.98727805 16.1877854,7.96019512 L22.0487805,5.53482927 C22.3207024,5.42236098 22.4497171,5.11047805 22.3371707,4.83879024 C22.2247024,4.5665561 21.9118829,4.4385561 21.6408195,4.5500878 L15.9844683,6.89123902 L1.06552195,0.718126829 L1.06552195,0.541268293 C1.06552195,0.24702439 0.82684878,0.00835121951 0.532917073,0.00835121951 C0.23875122,0.00835121951 0,0.24702439 0,0.541268293 L0,1.07387317 C0,1.2897561 0.129873171,1.48425366 0.329287805,1.56628293 L15.780761,7.96019512 C15.8456976,7.98727805 15.915239,8.00039024 15.9844683,8.00039024 Z" fill="#FFF" mask="url(#mask-2)"/></g><path d="M22.3228878,21.4983024 C22.1927024,21.2345756 21.8741073,21.1256976 21.6094439,21.2565073 C20.5975415,21.7568 18.9073171,22.3384976 16.5173854,22.4177951 L16.5173854,17.6379317 C16.5173854,17.344 16.2786341,17.1053268 15.9844683,17.1053268 C15.6902244,17.1053268 15.4515512,17.344 15.4515512,17.6379317 L15.4515512,22.4131902 C8.83566829,22.2022244 6.70087805,18.1943415 6.3939122,17.5272585 L6.3939122,13.9083707 C6.3939122,13.6141268 6.15516098,13.3753756 5.86099512,13.3753756 C5.56706341,13.3753756 5.32839024,13.6141268 5.32839024,13.9083707 L5.32839024,17.6379317 C5.32839024,17.7056 5.34119024,17.7729561 5.36616585,17.8360976 C5.45880976,18.0668878 7.72651707,23.4988488 15.9844683,23.4988488 C18.8707122,23.4988488 20.8932683,22.7989073 22.0814049,22.2116683 C22.3457561,22.0811707 22.4539317,21.7620293 22.3228878,21.4983024 Z" fill="#FFF"/><mask id="mask-4" fill="#fff"><use xlink:href="#path-3"/></mask><path d="M23.9765073,27.2288 C23.6820293,27.2288 23.4439024,27.4674732 23.4439024,27.7614049 L23.4439024,29.3598439 C23.4439024,29.6540878 23.6820293,29.892761 23.9765073,29.892761 C24.2713756,29.892761 24.5094244,29.6540878 24.5094244,29.3598439 L24.5094244,27.7614049 C24.5094244,27.4674732 24.2713756,27.2288 23.9765073,27.2288 Z" fill="#FFF" mask="url(#mask-4)"/><path d="M31.4359415,8.04737561 C31.1414634,8.04737561 30.9030244,8.28604878 30.9030244,8.58029268 L30.9030244,8.75590244 L24.5094244,11.3876293 L24.5094244,10.4248195 L31.6396488,7.47387317 C31.8387512,7.3918439 31.9689366,7.19734634 31.9689366,6.98177561 C31.9689366,6.76597073 31.8387512,6.57201951 31.6402732,6.4894439 L16.1877854,0.0955317073 C16.0572878,0.0419121951 15.9112585,0.0419121951 15.780761,0.0955317073 L0.329287805,6.4894439 C0.129873171,6.57201951 0,6.76597073 0,6.98177561 C0,7.19765854 0.129873171,7.3921561 0.329287805,7.47418537 L15.780761,13.8677854 C15.8460098,13.8949463 15.915239,13.9083707 15.9844683,13.9083707 C16.0536976,13.9083707 16.1228488,13.8949463 16.1880976,13.8677854 L21.7749854,11.5559024 C22.0472195,11.4439805 22.1762341,11.1324098 22.064,10.8601756 C21.9515317,10.5882537 21.6396488,10.4598634 21.367961,10.5717854 L15.9844683,12.7989073 L1.9262439,6.98177561 L15.9844683,1.16440976 L30.0426927,6.98177561 L23.9253073,9.51320976 L18.0661854,7.32542439 C18.0969366,7.21443902 18.1155122,7.10072195 18.1155122,6.98177561 C18.1155122,6.08546341 17.1795512,5.38333659 15.9844683,5.38333659 C14.7893073,5.38333659 13.8533463,6.08546341 13.8533463,6.98177561 C13.8533463,7.87785366 14.7893073,8.58029268 15.9844683,8.58029268 C16.5176976,8.58029268 16.993561,8.43457561 17.3634341,8.20042927 L23.4439024,10.4705561 L23.4439024,23.5970341 C22.8252878,23.8180683 22.3780683,24.4037463 22.3780683,25.0973659 C22.3780683,25.9787707 23.0954146,26.6958049 23.9765073,26.6958049 C24.8579122,26.6958049 25.5750244,25.9787707 25.5750244,25.0973659 C25.5750244,24.4037463 25.128039,23.8180683 24.5094244,23.5970341 L24.5094244,20.5729561 C26.0390244,19.4180683 26.5874732,17.8805854 26.611278,17.8122927 C26.630478,17.7564878 26.6405463,17.6973268 26.6405463,17.6382439 L26.6405463,13.9083707 C26.6405463,13.614439 26.4024195,13.3756878 26.1079415,13.3756878 C25.8130732,13.3756878 25.5750244,13.614439 25.5750244,13.9083707 L25.5750244,17.5397463 C25.4829268,17.7656195 25.1625366,18.4619707 24.5094244,19.1491902 L24.5094244,12.5400195 L31.6390244,9.60593171 C31.8387512,9.52390244 31.9689366,9.32878049 31.9689366,9.11289756 L31.9689366,8.58029268 C31.9689366,8.28604878 31.7304976,8.04737561 31.4359415,8.04737561 Z M15.9844683,7.51445854 C15.3338537,7.51445854 14.9186341,7.19921951 14.9186341,6.98177561 C14.9186341,6.76440976 15.3338537,6.44885854 15.9844683,6.44885854 C16.6350829,6.44885854 17.0499902,6.76440976 17.0499902,6.98177561 C17.0499902,7.19921951 16.6350829,7.51445854 15.9844683,7.51445854 Z M23.9765073,25.6302829 C23.6826537,25.6302829 23.4439024,25.3909854 23.4439024,25.0973659 C23.4439024,24.8037463 23.6826537,24.564761 23.9765073,24.564761 C24.2707512,24.564761 24.5094244,24.8037463 24.5094244,25.0973659 C24.5094244,25.3909854 24.2707512,25.6302829 23.9765073,25.6302829 Z" fill="#FFF" mask="url(#mask-4)"/><path d="M26.0917854,27.099161 C26.0204488,26.8141268 25.7304976,26.6397659 25.4460098,26.7117268 C25.1603512,26.7830634 24.9869268,27.0723902 25.0582634,27.3580488 L25.5911805,29.4894049 C25.6518244,29.7312 25.8685659,29.892761 26.1073171,29.892761 C26.1500098,29.892761 26.193561,29.887922 26.236878,29.8766049 C26.5225366,29.8052683 26.696039,29.5165659 26.6247024,29.2302829 L26.0917854,27.099161 Z" fill="#FFF"/></g></svg>