<svg width="32" height="32" viewBox="0 0 32 32" version="1.1" xmlns="http://www.w3.org/2000/svg" xmlns:xlink="http://www.w3.org/1999/xlink"><path d="M385.871391,4083 C385.580179,4083 385.304222,4082.82532 385.189527,4082.53812 L383.357957,4077.95386 C382.417111,4075.63576 381.335076,4074.46552 379.82924,4074.19082 L379.446731,4076.01746 L379.97628,4080.78007 C380.004036,4081.02953 379.901843,4081.27601 379.706516,4081.43326 L378.52504,4082.38214 C378.394746,4082.48697 378.232567,4082.54432 378.065455,4082.54432 L377.646015,4082.54432 C377.478904,4082.54432 377.316724,4082.48697 377.18643,4082.38214 L376.004954,4081.43326 C375.809169,4081.27601 375.707434,4081.02953 375.73519,4080.78007 L376.264739,4076.01746 L375.882115,4074.19082 C374.376395,4074.46552 373.294359,4075.63622 372.351678,4077.95788 L370.491893,4082.54168 C370.339577,4082.91708 369.911305,4083.09852 369.535792,4082.94575 C369.159936,4082.79343 368.978947,4082.36562 369.131262,4081.98965 L370.991506,4077.40551 C371.798387,4075.41806 373.229441,4072.79166 376.380352,4072.66354 C376.408108,4072.66044 376.436323,4072.65861 376.464997,4072.65861 L379.246359,4072.65861 C379.275033,4072.65861 379.303362,4072.66044 379.331119,4072.66354 C382.482488,4072.79166 383.913541,4075.41806 384.719964,4077.40551 L386.552911,4081.99332 C386.703391,4082.37009 386.520108,4082.79699 386.143334,4082.94713 C386.054215,4082.98303 385.961886,4083 385.871391,4083 Z M377.238846,4080.54116 L377.855678,4081.03676 L378.472624,4080.54116 L378.04699,4076.71596 L377.664366,4076.71596 L377.238846,4080.54116 Z M377.603463,4075.24774 L378.108007,4075.24774 L378.342789,4074.12682 L377.368681,4074.12682 L377.603463,4075.24774 Z M355.733814,4083 C355.642058,4083 355.54881,4082.98257 355.458316,4082.94575 C355.082459,4082.79343 354.90147,4082.36562 355.054244,4081.98965 L356.886158,4077.47352 C357.702445,4075.46325 359.166187,4072.79028 362.443491,4072.79028 L364.874115,4072.79028 C366.641111,4072.79028 368.09499,4073.57571 369.196179,4075.12548 C369.214645,4075.15094 369.297914,4075.26483 369.39919,4075.40235 C369.750043,4075.88086 369.843176,4076.00852 369.873685,4076.05508 C370.097685,4076.39332 370.004896,4076.84854 369.66666,4077.07254 C369.3298,4077.29528 368.876753,4077.20387 368.652294,4076.86919 C368.612954,4076.81276 368.35443,4076.46053 368.215534,4076.27105 C368.10623,4076.12229 368.016538,4076.00003 367.999104,4075.97537 C367.491004,4075.26036 366.923377,4074.77864 366.262961,4074.51163 L364.251778,4077.26753 C364.1138,4077.45654 363.893355,4077.5686 363.659033,4077.5686 C363.42471,4077.5686 363.204266,4077.45654 363.066287,4077.26753 L361.055563,4074.51209 C359.909527,4074.97672 359.029126,4076.09763 358.246904,4078.02555 L356.414416,4082.54168 C356.298803,4082.82704 356.023764,4083 355.733814,4083 Z M362.687678,4074.25849 L363.659033,4075.58965 L364.630387,4074.25849 L362.687678,4074.25849 Z M366.620007,4082.99954 L358.813154,4082.99954 C358.407706,4082.99954 358.079334,4082.67117 358.079334,4082.26572 C358.079334,4081.86016 358.407706,4081.53178 358.813154,4081.53178 L366.620007,4081.53178 C367.025111,4081.53178 367.353943,4081.86016 367.353943,4082.26572 C367.353943,4082.67117 367.025111,4082.99954 366.620007,4082.99954 Z M381.194,4077.6568 C380.788552,4077.6568 380.459721,4077.32797 380.459721,4076.92298 L380.459721,4076.83111 C380.459721,4076.42566 380.788552,4076.09672 381.194,4076.09672 C381.59899,4076.09672 381.927821,4076.42566 381.927821,4076.83111 L381.927821,4076.92298 C381.927821,4077.32797 381.59899,4077.6568 381.194,4077.6568 Z M363.659033,4071.71283 C361.605298,4071.71283 359.934531,4070.04206 359.934531,4067.98833 C359.934531,4066.29657 361.068065,4064.86472 362.61519,4064.41213 C362.62276,4064.40995 362.63033,4064.40766 362.638015,4064.40548 C362.883004,4064.33563 363.135334,4064.2917 363.390645,4064.27335 C363.391563,4064.27289 363.392939,4064.27289 363.394316,4064.27289 L363.39833,4064.27289 C363.40005,4064.27243 363.401427,4064.27243 363.403262,4064.27243 C363.404524,4064.27243 363.405441,4064.27243 363.407276,4064.27197 C363.408997,4064.27197 363.410373,4064.27197 363.411749,4064.27151 L363.415305,4064.27151 C363.418402,4064.27151 363.421154,4064.27105 363.423792,4064.27105 C363.43595,4064.27014 363.447993,4064.26922 363.460151,4064.26876 L363.46061,4064.26876 L363.472194,4064.26842 C363.47357,4064.26842 363.477585,4064.26796 363.480337,4064.26796 C363.48114,4064.26796 363.482516,4064.26796 363.483893,4064.2675 L363.488825,4064.2675 C363.490086,4064.2675 363.490545,4064.2675 363.49238,4064.26704 L363.495477,4064.26704 L363.499491,4064.26704 C363.500868,4064.26658 363.502244,4064.26658 363.504079,4064.26658 L363.507176,4064.26658 C363.509814,4064.26658 363.513025,4064.26704 363.515663,4064.26612 C363.560968,4064.26429 363.606617,4064.26348 363.65238,4064.26348 L363.655477,4064.26348 L363.670273,4064.26348 L363.676122,4064.26348 C363.677843,4064.26348 363.680136,4064.26394 363.681857,4064.26348 C363.684151,4064.26348 363.68633,4064.26394 363.688165,4064.26348 L363.690459,4064.26348 C365.516179,4064.27862 367.037613,4065.59234 367.33238,4067.36966 C367.365986,4067.57084 367.383534,4067.77729 367.383534,4067.98833 C367.383993,4070.04206 365.712767,4071.71283 363.659033,4071.71283 Z M362.33866,4066.15951 C361.77195,4066.56943 361.402287,4067.2365 361.402287,4067.98833 C361.402287,4069.23254 362.414817,4070.24508 363.659033,4070.24508 C364.713656,4070.24508 365.601742,4069.51791 365.847649,4068.53806 C364.253154,4068.54747 362.882201,4067.57577 362.33866,4066.15951 Z M363.751821,4065.73342 C364.091434,4066.5013 364.84223,4067.03223 365.719534,4067.06859 C365.378545,4066.30781 364.629011,4065.76932 363.751821,4065.73342 Z M377.855678,4071.54297 C375.777283,4071.54297 374.085986,4069.85213 374.085986,4067.77328 C374.085986,4065.69488 375.777283,4064.00358 377.855678,4064.00358 C378.104337,4064.00358 378.347606,4064.02778 378.582846,4064.07435 C378.598101,4064.07665 378.613814,4064.07974 378.629068,4064.0833 C380.338258,4064.44126 381.625484,4065.95971 381.625484,4067.77328 C381.625484,4069.85213 379.934187,4071.54297 377.855678,4071.54297 Z M376.551477,4065.87771 C375.949785,4066.29302 375.554201,4066.98796 375.554201,4067.77328 C375.554201,4069.04261 376.586459,4070.07487 377.855678,4070.07487 C379.125011,4070.07487 380.157269,4069.04261 380.157269,4067.77328 C380.157269,4066.82887 379.585513,4066.01568 378.770144,4065.66128 C378.462301,4066.05778 378.07704,4066.39028 377.635348,4066.63848 C377.281857,4066.8369 376.834201,4066.71097 376.635778,4066.35748 C376.550674,4066.20608 376.525097,4066.03679 376.551477,4065.87771 Z M360.467749,4063.86824 C360.339635,4063.86824 360.21152,4063.83464 360.096825,4063.76743 C359.871907,4063.63576 359.733814,4063.39467 359.733814,4063.13442 L359.733814,4056.52017 C359.733814,4055.23478 360.780065,4054.18865 362.065455,4054.18865 L364.669843,4054.18865 C365.074832,4054.18865 365.403663,4054.51748 365.403663,4054.92292 C365.403663,4055.32791 365.074832,4055.65686 364.669843,4055.65686 L362.065455,4055.65686 C361.589585,4055.65686 361.202029,4056.04396 361.202029,4056.52017 L361.202029,4061.88126 L362.212839,4061.31501 C362.322144,4061.25353 362.445785,4061.2213 362.571721,4061.2213 L368.941326,4061.2213 C369.346316,4061.2213 369.675147,4061.55014 369.675147,4061.9557 C369.675147,4062.36069 369.346316,4062.68952 368.941326,4062.68952 L362.763033,4062.68952 L360.826631,4063.77465 C360.715033,4063.83693 360.591391,4063.86824 360.467749,4063.86824 Z M377.859807,4062.34761 C377.657255,4062.34761 377.458717,4062.26389 377.317183,4062.10847 L375.057341,4059.63082 L369.122316,4059.63082 C367.836466,4059.63082 366.790789,4058.58469 366.790789,4057.2993 L366.790789,4053.46148 C366.790789,4052.17563 367.836466,4051.12995 369.122316,4051.12995 L376.262101,4051.12995 C377.547491,4051.12995 378.593628,4052.17563 378.593628,4053.46148 L378.593628,4061.61379 C378.593628,4061.9167 378.407248,4062.18865 378.124524,4062.29795 C378.038502,4062.33156 377.948466,4062.34761 377.859807,4062.34761 Z M369.122316,4052.59816 C368.646101,4052.59816 368.259004,4052.98526 368.259004,4053.46148 L368.259004,4057.2993 C368.259004,4057.77505 368.646101,4058.16261 369.122316,4058.16261 L375.381699,4058.16261 C375.587807,4058.16261 375.784968,4058.24955 375.923864,4058.40186 L377.125412,4059.71948 L377.125412,4053.46148 C377.125412,4052.98526 376.737857,4052.59816 376.262101,4052.59816 L369.122316,4052.59816 Z M364.522803,4058.43146 L363.190846,4058.43146 C362.785398,4058.43146 362.457025,4058.10308 362.457025,4057.69763 C362.457025,4057.29207 362.785398,4056.9637 363.190846,4056.9637 L364.522803,4056.9637 C364.928251,4056.9637 365.256739,4057.29207 365.256739,4057.69763 C365.256739,4058.10308 364.928251,4058.43146 364.522803,4058.43146 Z M374.980266,4055.41577 L371.950244,4055.41577 C371.544796,4055.41577 371.216423,4055.08694 371.216423,4054.68149 C371.216423,4054.27639 371.544796,4053.94756 371.950244,4053.94756 L374.980266,4053.94756 C375.385255,4053.94756 375.714201,4054.27639 375.714201,4054.68149 C375.714201,4055.08694 375.385255,4055.41577 374.980266,4055.41577 Z" transform="translate(-355.000000, -4051.000000)" fill="#FFF" stroke="none" stroke-width="1" fill-rule="evenodd" opacity=".8"/></svg>