<svg width="25" height="36" viewBox="0 0 25 36" version="1.1" xmlns="http://www.w3.org/2000/svg" xmlns:xlink="http://www.w3.org/1999/xlink"><defs><polygon id="path-1" points="24.8452683 35.9998244 24.8452683 0.0352097561 0 0.0352097561 0 35.9998244"/></defs><g transform="translate(-100.000000, -4146.000000) translate(100.000000, 4146.000000)" stroke="none" stroke-width="1" fill="none" fill-rule="evenodd" opacity=".8"><mask id="mask-2" fill="#fff"><use xlink:href="#path-1"/></mask><path d="M24.2568,15.9131415 L22.0589561,15.9131415 C21.7334634,15.9131415 21.4693463,16.1769073 21.4693463,16.5027512 L21.4693463,17.7309659 L20.4671415,17.7309659 L20.4671415,16.5027512 C20.4671415,16.1769073 20.2030244,15.9131415 19.8771805,15.9131415 L17.4368195,15.9131415 L17.4368195,14.6941463 L19.8771805,14.6941463 C20.2030244,14.6941463 20.4671415,14.4300293 20.4671415,14.1045366 L20.4671415,4.6799122 C20.4671415,3.25483902 19.3078537,2.09590244 17.8830439,2.09590244 L13.0129463,2.09590244 L13.0129463,0.624819512 C13.0129463,0.299326829 12.7491805,0.0352097561 12.4233366,0.0352097561 C12.0974927,0.0352097561 11.8337268,0.299326829 11.8337268,0.624819512 L11.8337268,2.09555122 L6.96371707,2.09555122 C5.53890732,2.09555122 4.37961951,3.25483902 4.37961951,4.67956098 L4.37961951,14.1045366 C4.37961951,14.4300293 4.64373659,14.6941463 4.96922927,14.6941463 L7.40994146,14.6941463 L7.40994146,15.9131415 L4.96922927,15.9131415 C4.64373659,15.9131415 4.37961951,16.1769073 4.37961951,16.5027512 L4.37961951,17.7309659 L3.37706341,17.7309659 L3.37706341,16.5027512 C3.37706341,16.1769073 3.11329756,15.9131415 2.78745366,15.9131415 L0.589609756,15.9131415 C0.263765854,15.9131415 0,16.1769073 0,16.5027512 L0,28.3807317 C0,28.7062244 0.263765854,28.9703415 0.589609756,28.9703415 L2.78745366,28.9703415 C3.11329756,28.9703415 3.37706341,28.7062244 3.37706341,28.3807317 L3.37706341,21.334039 L4.37961951,21.334039 L4.37961951,26.1249366 C4.37961951,26.4507805 4.64338537,26.7144585 4.96922927,26.7144585 L6.0156878,26.7144585 L6.0156878,32.033239 L5.27206829,32.033239 C4.94657561,32.033239 4.68245854,32.2970049 4.68245854,32.6228488 L4.68245854,35.4103024 C4.68245854,35.7361463 4.94657561,35.9998244 5.27206829,35.9998244 L10.2416488,35.9998244 C10.5671415,35.9998244 10.8311707,35.7361463 10.8311707,35.4103024 L10.8311707,32.6228488 C10.8311707,32.2970049 10.5671415,32.033239 10.2416488,32.033239 L9.49802927,32.033239 L9.49802927,26.7144585 L15.3487317,26.7144585 L15.3487317,32.033239 L14.6051122,32.033239 C14.2792683,32.033239 14.0155024,32.2970049 14.0155024,32.6228488 L14.0155024,35.4103024 C14.0155024,35.7361463 14.2792683,35.9998244 14.6051122,35.9998244 L19.5743415,35.9998244 C19.9001854,35.9998244 20.1639512,35.7361463 20.1639512,35.4103024 L20.1639512,32.6228488 C20.1639512,32.2970049 19.9001854,32.033239 19.5743415,32.033239 L18.830722,32.033239 L18.830722,26.7144585 L19.8775317,26.7144585 C20.2030244,26.7144585 20.4671415,26.4507805 20.4671415,26.1249366 L20.4671415,21.334039 L21.4693463,21.334039 L21.4693463,28.3803805 C21.4693463,28.7062244 21.7334634,28.9699902 22.0592195,28.9699902 L24.2571512,28.9699902 C24.5826439,28.9699902 24.846761,28.7062244 24.846761,28.3803805 L24.846761,16.5024 C24.8464098,16.1769073 24.5826439,15.9131415 24.2568,15.9131415 Z M1.17921951,27.7907707 L2.1978439,27.7907707 L2.1978439,17.092361 L1.17921951,17.092361 L1.17921951,27.7907707 Z M3.37706341,20.1548195 L4.37961951,20.1548195 L4.37961951,18.9101854 L3.37706341,18.9101854 L3.37706341,20.1548195 Z M5.55883902,13.5149268 L5.55883902,4.6799122 C5.55883902,3.90512195 6.18919024,3.27503415 6.96371707,3.27503415 L17.8830439,3.27503415 C18.6574829,3.27503415 19.287922,3.90512195 19.287922,4.6799122 L19.287922,13.5149268 L5.55883902,13.5149268 Z M8.58907317,15.9127902 L16.2576,15.9127902 L16.2576,14.6941463 L8.58907317,14.6941463 L8.58907317,15.9127902 Z M5.86202927,34.8206927 L9.65203902,34.8206927 L9.65203902,33.2123707 L5.86202927,33.2123707 L5.86202927,34.8206927 Z M7.19517073,32.033239 L8.31880976,32.033239 L8.31880976,26.7148098 L7.19517073,26.7148098 L7.19517073,32.033239 Z M15.194722,34.8206927 L18.9847317,34.8206927 L18.9847317,33.2123707 L15.194722,33.2123707 L15.194722,34.8206927 Z M16.5278634,32.033239 L17.6515024,32.033239 L17.6515024,26.7148098 L16.5278634,26.7148098 L16.5278634,32.033239 Z M19.287922,25.5353268 L5.55883902,25.5353268 L5.55883902,17.092361 L19.2875707,17.092361 L19.2875707,25.5353268 L19.287922,25.5353268 Z M20.4671415,20.1548195 L21.4693463,20.1548195 L21.4693463,18.9101854 L20.4671415,18.9101854 L20.4671415,20.1548195 Z M22.648478,27.7907707 L23.6671902,27.7907707 L23.6671902,17.092361 L22.648478,17.092361 L22.648478,27.7907707 Z" fill="#FFF" mask="url(#mask-2)"/><path d="M8.78733659,5.98811707 C7.3259122,5.98811707 6.13712195,7.17690732 6.13712195,8.63798049 C6.13712195,10.0991415 7.3259122,11.2879317 8.78733659,11.2879317 C10.2484976,11.2879317 11.4372878,10.0991415 11.4372878,8.63798049 C11.4372878,7.17690732 10.2484976,5.98811707 8.78733659,5.98811707 Z M8.78733659,10.1087122 C7.97619512,10.1087122 7.31625366,9.44920976 7.31625366,8.63798049 C7.31625366,7.82683902 7.97619512,7.16724878 8.78733659,7.16724878 C9.59812683,7.16724878 10.2580683,7.82683902 10.2580683,8.63798049 C10.2580683,9.44885854 9.59812683,10.1087122 8.78733659,10.1087122 Z" fill="#FFF"/><path d="M16.0593366,5.98811707 C14.5982634,5.98811707 13.4094732,7.17690732 13.4094732,8.63798049 C13.4094732,10.0991415 14.5982634,11.2879317 16.0593366,11.2879317 C17.5208488,11.2879317 18.709639,10.0991415 18.709639,8.63798049 C18.709639,7.17690732 17.5208488,5.98811707 16.0593366,5.98811707 Z M16.0593366,10.1087122 C15.2485463,10.1087122 14.5886049,9.44885854 14.5886049,8.63798049 C14.5886049,7.82683902 15.2485463,7.16724878 16.0593366,7.16724878 C16.8705659,7.16724878 17.5304195,7.82683902 17.5304195,8.63798049 C17.5304195,9.44885854 16.8705659,10.1087122 16.0593366,10.1087122 Z" fill="#FFF"/><path d="M12.4233366,19.0641951 C10.2937171,19.0641951 8.56132683,20.7969366 8.56132683,22.9265561 C8.56132683,23.2520488 8.82509268,23.5161659 9.15093659,23.5161659 L15.6958244,23.5161659 C16.0216683,23.5161659 16.2854341,23.2520488 16.2854341,22.9265561 C16.2854341,20.7969366 14.5529561,19.0641951 12.4233366,19.0641951 Z M9.80569756,22.3369463 C10.0749073,21.1402537 11.1463902,20.243678 12.4233366,20.243678 C13.7002829,20.243678 14.7714146,21.1402537 15.0410634,22.3369463 L9.80569756,22.3369463 Z" fill="#FFF"/><path d="M17.9821756,18.805522 C17.9821756,19.1310146 17.7184098,19.3951317 17.3925659,19.3951317 C17.0670732,19.3951317 16.8029561,19.1310146 16.8029561,18.805522 C16.8029561,18.479678 17.0670732,18.2159122 17.3925659,18.2159122 C17.7184098,18.2159122 17.9821756,18.479678 17.9821756,18.805522 Z" fill="#FFF"/><path d="M8.04371707,18.805522 C8.04371707,19.1310146 7.7796878,19.3951317 7.45419512,19.3951317 C7.12835122,19.3951317 6.86458537,19.1310146 6.86458537,18.805522 C6.86458537,18.479678 7.12835122,18.2159122 7.45419512,18.2159122 C7.7796878,18.2159122 8.04371707,18.479678 8.04371707,18.805522 Z" fill="#FFF"/></g></svg>