<svg width="24" height="20" viewBox="0 0 24 20" version="1.1" xmlns="http://www.w3.org/2000/svg" xmlns:xlink="http://www.w3.org/1999/xlink"><g transform="translate(-153.000000, -5758.000000) translate(85.000000, 5758.000000) translate(68.000000, 0.000000)" stroke="none" stroke-width="1" fill="none" fill-rule="evenodd"><polyline fill="#253870" points="8.41459621 6.72965105 11.5111466 9.82667996 8.41459621 12.9237089 8.41459621 6.72965105"/><polyline fill="#3785BA" points="11.5537388 16.2765304 8.45694915 13.1795015 11.5537388 10.0824726 11.5537388 16.2765304"/><polyline fill="#006A98" points="11.7477966 10.0824726 14.8445862 13.1795015 11.7477966 16.2765304 11.7477966 10.0824726"/><polyline fill="#3785BA" points="8.41459621 13.4350548 11.5111466 16.532323 8.41459621 19.6291127 8.41459621 13.4350548"/><polyline fill="#3785BA" points="14.8656431 19.6291127 11.7690927 16.5320837 14.8656431 13.4350548 14.8656431 19.6291127"/><polyline fill="#2C2C68" points="14.8448255 12.9158126 11.7477966 9.81878365 14.8448255 6.72199402 14.8448255 12.9158126"/><polyline fill="#81CBD2" points="8.55385842 19.7906281 11.6504088 16.6935992 14.7479163 19.7906281 8.55385842 19.7906281"/><polyline fill="#B6D037" points="16.7071585 13.4350548 19.8041874 16.532323 16.7071585 19.6291127 16.7071585 13.4350548"/><polyline fill="#216638" points="19.8254835 9.57088734 16.7289332 6.47409771 19.8254835 3.37682951 19.8254835 9.57088734"/><polyline fill="#359A46" points="20.0195414 3.37706879 23.1160917 6.47385842 20.0195414 9.57088734 20.0195414 3.37706879"/><polyline fill="#359A46" points="16.6861017 6.72965105 19.7828913 9.82667996 16.6861017 12.9237089 16.6861017 6.72965105"/><polyline fill="#7EAA40" points="23.1589232 12.9237089 20.0621336 9.82667996 23.1589232 6.72965105 23.1589232 12.9237089"/><polyline fill="#7EAA40" points="19.8254835 16.2765304 16.7289332 13.1795015 19.8254835 10.0824726 19.8254835 16.2765304"/><polyline fill="#B6D037" points="20.0195414 10.0824726 23.1160917 13.1795015 20.0195414 16.2765304 20.0195414 10.0824726"/><polyline fill="#D7DD2D" points="23.1373878 19.6291127 20.0408375 16.5320837 23.1373878 13.4350548 23.1373878 19.6291127"/><polyline fill="#216638" points="23.1589232 6.21830508 20.0621336 3.12103689 23.1589232 0.0240079761 23.1589232 6.21830508"/><polyline fill="#F0E825" points="16.8267996 19.7906281 19.9238285 16.6935992 23.0208574 19.7906281 16.8267996 19.7906281"/><polyline fill="#DC3B2A" points="6.59413759 13.4350548 3.49734796 16.532323 6.59413759 19.6291127 6.59413759 13.4350548"/><polyline fill="#7D2632" points="3.47581256 9.57088734 6.57284148 6.47409771 3.47581256 3.37682951 3.47581256 9.57088734"/><polyline fill="#982A34" points="3.28199402 3.37706879 0.185204387 6.47385842 3.28199402 9.57088734 3.28199402 3.37706879"/><polyline fill="#982A34" points="6.6154337 6.72965105 3.51864407 9.82667996 6.6154337 12.9237089 6.6154337 6.72965105"/><polyline fill="#C12531" points="0.142612164 12.9237089 3.23964108 9.82667996 0.142612164 6.72965105 0.142612164 12.9237089"/><polyline fill="#C12531" points="3.47581256 16.2765304 6.57284148 13.1795015 3.47581256 10.0824726 3.47581256 16.2765304"/><polyline fill="#DC3B2A" points="3.28199402 10.0824726 0.185204387 13.1795015 3.28199402 16.2765304 3.28199402 10.0824726"/><polyline fill="#ED962D" points="0.163908275 19.6291127 3.26069791 16.5320837 0.163908275 13.4350548 0.163908275 19.6291127"/><polyline fill="#7D2632" points="0.142612164 6.21830508 3.23964108 3.12103689 0.142612164 0.0240079761 0.142612164 6.21830508"/><polyline fill="#F8CD22" points="6.47449651 19.7906281 3.37770688 16.6935992 0.280438684 19.7906281 6.47449651 19.7906281"/></g></svg>