<svg width="24" height="24" viewBox="0 0 24 24" version="1.1" xmlns="http://www.w3.org/2000/svg" xmlns:xlink="http://www.w3.org/1999/xlink"><g fill="#32B8E6" stroke="none" stroke-width="1" fill-rule="evenodd" opacity=".7"><path d="M23.5709024,2.08333333 L20.569898,2.08333333 L20.569898,0.4171875 C20.569898,0.186979167 20.3797237,0 20.1434789,0 L17.1424745,0 C16.9062298,0 16.7133769,0.186979167 16.7133769,0.4171875 L16.7133769,2 L7.28662307,2 L7.28662307,0.4171875 C7.28662307,0.186979167 7.09377023,0 6.8575255,0 L3.85652106,0 C3.62027633,0 3.4274235,0.186979167 3.4274235,0.4171875 L3.4274235,2.08333333 L0.429097565,2.08333333 C0.192317136,2.08333333 0,2.27083333 0,2.50052083 L0,23.5828125 C0,23.8130208 0.192317136,24 0.429097565,24 L23.5709024,24 C23.8071472,24 24,23.8130208 24,23.5828125 L24,2.50052083 C24,2.27083333 23.8071472,2.08333333 23.5709024,2.08333333 Z M17.5,4 L19.5,4 L19.5,1 L17.5,1 L17.5,4 Z M4.5,4 L6.5,4 L6.5,1 L4.5,1 L4.5,4 Z M1,3 L3.5,3 L3.5,4.5 C3.5,4.73020833 3.76375527,4.9171875 4,4.9171875 L7,4.9171875 C7.23624473,4.9171875 7.5,4.73020833 7.5,4.5 L7.5,3 L16.5,3 L16.5,4.5 C16.5,4.73020833 16.7637553,4.9171875 17,4.9171875 L20,4.9171875 C20.2362447,4.9171875 20.5,4.73020833 20.5,4.5 L20.5,3 L23,3 L23,6 L1,6 L1,3 Z M1,23 L23,23 L23,7 L1,7 L1,23 Z" transform="translate(-955.000000, -570.000000) translate(955.000000, 570.000000)"/><path d="M15.3683518,9 L4,9 L4,21 L20,21 L20,9 L15.3683518,9 Z M12.4202217,12.7255646 L15.3683518,12.7255646 L15.3683518,9.82847785 L12.4202217,9.82847785 L12.4202217,12.7255646 Z M12.4202217,16.4485434 L15.3683518,16.4485434 L15.3683518,13.5514566 L12.4202217,13.5514566 L12.4202217,16.4485434 Z M8.63164819,16.4485434 L11.5797783,16.4485434 L11.5797783,13.5514566 L8.63164819,13.5514566 L8.63164819,16.4485434 Z M8.63164819,12.7255646 L11.5797783,12.7255646 L11.5797783,9.82847785 L8.63164819,9.82847785 L8.63164819,12.7255646 Z M4.8430747,12.7255646 L7.7885735,12.7255646 L7.7885735,9.82847785 L4.8430747,9.82847785 L4.8430747,12.7255646 Z M4.8430747,16.4485434 L7.7885735,16.4485434 L7.7885735,13.5514566 L4.8430747,13.5514566 L4.8430747,16.4485434 Z M4.8430747,20.1715222 L7.7885735,20.1715222 L7.7885735,17.2744354 L4.8430747,17.2744354 L4.8430747,20.1715222 Z M8.63164819,20.1715222 L11.5797783,20.1715222 L11.5797783,17.2744354 L8.63164819,17.2744354 L8.63164819,20.1715222 Z M12.4202217,20.1715222 L15.3683518,20.1715222 L15.3683518,17.2744354 L12.4202217,17.2744354 L12.4202217,20.1715222 Z M16.2087952,20.1715222 L19.1569253,20.1715222 L19.1569253,17.2744354 L16.2087952,17.2744354 L16.2087952,20.1715222 Z M16.2087952,16.4485434 L19.1569253,16.4485434 L19.1569253,13.5514566 L16.2087952,13.5514566 L16.2087952,16.4485434 Z M16.2087952,12.7255646 L19.1569253,12.7255646 L19.1569253,9.82847785 L16.2087952,9.82847785 L16.2087952,12.7255646 Z" transform="translate(-955.000000, -570.000000) translate(955.000000, 570.000000)"/></g></svg>