<?xml version="1.0" encoding="UTF-8" standalone="no"?>
<svg width="47px" height="40px" viewBox="0 0 47 40" version="1.1" xmlns="http://www.w3.org/2000/svg" xmlns:xlink="http://www.w3.org/1999/xlink">
    <g stroke="none" stroke-width="1" fill="none" fill-rule="evenodd">
        <g transform="translate(-794.000000, -5924.000000)" fill="#FFFFFF">
            <g transform="translate(686.000000, 5908.000000)">
                <g transform="translate(108.000000, 16.000000)">
                    <g>
                        <polyline points="16.8291924 13.4593021 23.0222931 19.6533599 16.8291924 25.8474177 16.8291924 13.4593021"></polyline>
                        <polyline points="23.1074776 32.5530608 16.9138983 26.359003 23.1074776 20.1649452 23.1074776 32.5530608"></polyline>
                        <polyline points="23.4955932 20.1649452 29.6891725 26.359003 23.4955932 32.5530608 23.4955932 20.1649452"></polyline>
                        <polyline points="16.8291924 26.8701097 23.0222931 33.0646461 16.8291924 39.2582253 16.8291924 26.8701097"></polyline>
                        <polyline points="29.7312861 39.2582253 23.5381854 33.0641675 29.7312861 26.8701097 29.7312861 39.2582253"></polyline>
                        <polyline points="29.689651 25.8316251 23.4955932 19.6375673 29.689651 13.443988 29.689651 25.8316251"></polyline>
                        <polyline points="17.1077168 39.5812562 23.3008175 33.3871984 29.4958325 39.5812562 17.1077168 39.5812562"></polyline>
                        <polyline points="33.414317 26.8701097 39.6083749 33.0646461 33.414317 39.2582253 33.414317 26.8701097"></polyline>
                        <polyline points="39.6509671 19.1417747 33.4578664 12.9481954 39.6509671 6.75365902 39.6509671 19.1417747"></polyline>
                        <polyline points="40.0390828 6.75413759 46.2321834 12.9477168 40.0390828 19.1417747 40.0390828 6.75413759"></polyline>
                        <polyline points="33.3722034 13.4593021 39.5657827 19.6533599 33.3722034 25.8474177 33.3722034 13.4593021"></polyline>
                        <polyline points="46.3178465 25.8474177 40.1242672 19.6533599 46.3178465 13.4593021 46.3178465 25.8474177"></polyline>
                        <polyline points="39.6509671 32.5530608 33.4578664 26.359003 39.6509671 20.1649452 39.6509671 32.5530608"></polyline>
                        <polyline points="40.0390828 20.1649452 46.2321834 26.359003 40.0390828 32.5530608 40.0390828 20.1649452"></polyline>
                        <polyline points="46.2747757 39.2582253 40.081675 33.0641675 46.2747757 26.8701097 46.2747757 39.2582253"></polyline>
                        <polyline points="46.3178465 12.4366102 40.1242672 6.24207378 46.3178465 0.0480159521 46.3178465 12.4366102"></polyline>
                        <polyline points="33.6535992 39.5812562 39.847657 33.3871984 46.0417149 39.5812562 33.6535992 39.5812562"></polyline>
                        <polyline points="13.1882752 26.8701097 6.99469591 33.0646461 13.1882752 39.2582253 13.1882752 26.8701097"></polyline>
                        <polyline points="6.95162512 19.1417747 13.145683 12.9481954 6.95162512 6.75365902 6.95162512 19.1417747"></polyline>
                        <polyline points="6.56398804 6.75413759 0.370408774 12.9477168 6.56398804 19.1417747 6.56398804 6.75413759"></polyline>
                        <polyline points="13.2308674 13.4593021 7.03728814 19.6533599 13.2308674 25.8474177 13.2308674 13.4593021"></polyline>
                        <polyline points="0.285224327 25.8474177 6.47928215 19.6533599 0.285224327 13.4593021 0.285224327 25.8474177"></polyline>
                        <polyline points="6.95162512 32.5530608 13.145683 26.359003 6.95162512 20.1649452 6.95162512 32.5530608"></polyline>
                        <polyline points="6.56398804 20.1649452 0.370408774 26.359003 6.56398804 32.5530608 6.56398804 20.1649452"></polyline>
                        <polyline points="0.32781655 39.2582253 6.52139581 33.0641675 0.32781655 26.8701097 0.32781655 39.2582253"></polyline>
                        <polyline points="0.285224327 12.4366102 6.47928215 6.24207378 0.285224327 0.0480159521 0.285224327 12.4366102"></polyline>
                        <polyline points="12.948993 39.5812562 6.75541376 33.3871984 0.560877368 39.5812562 12.948993 39.5812562"></polyline>
                    </g>
                </g>
            </g>
        </g>
    </g>
</svg>