<svg width="32px" height="32px" viewBox="0 0 32 32" version="1.1" xmlns="http://www.w3.org/2000/svg" xmlns:xlink="http://www.w3.org/1999/xlink">
    <g stroke="none" stroke-width="1" fill="none" fill-rule="evenodd" opacity="0.800000012">
        <g transform="translate(-95.000000, -3966.000000)" fill="#FFFFFF">
            <g transform="translate(95.000000, 3966.000000)">
                <path d="M5.59866667,3.60066667 C4.276,3.60066667 3.20066667,4.676 3.20066667,5.99866667 C3.20066667,7.32466667 4.276,8.4 5.59866667,8.4 C6.92466667,8.4 8,7.32466667 8,5.99866667 C8,4.676 6.92466667,3.60066667 5.59866667,3.60066667 Z M5.59866667,7.332 C4.86466667,7.332 4.26533333,6.736 4.26533333,5.99866667 C4.26533333,5.26466667 4.86466667,4.66533333 5.59866667,4.66533333 C6.336,4.66533333 6.932,5.26466667 6.932,5.99866667 C6.932,6.736 6.336,7.332 5.59866667,7.332 Z"></path>
                <path d="M27.2006667,5.19933333 C27.2006667,5.494 26.9606667,5.73333333 26.6666667,5.73333333 C26.3726667,5.73333333 26.1326667,5.494 26.1326667,5.19933333 C26.1326667,4.90533333 26.3726667,4.66533333 26.6666667,4.66533333 C26.9606667,4.66533333 27.2006667,4.90533333 27.2006667,5.19933333 Z"></path>
                <path d="M25.068,5.19933333 C25.068,5.494 24.828,5.73333333 24.534,5.73333333 C24.2393333,5.73333333 24,5.494 24,5.19933333 C24,4.90533333 24.2393333,4.66533333 24.534,4.66533333 C24.828,4.66533333 25.068,4.90533333 25.068,5.19933333 Z"></path>
                <path d="M28.2653333,6.80133333 C28.2653333,7.09533333 28.0286667,7.332 27.7346667,7.332 C27.4373333,7.332 27.2006667,7.09533333 27.2006667,6.80133333 C27.2006667,6.504 27.4373333,6.26733333 27.7346667,6.26733333 C28.0286667,6.26733333 28.2653333,6.504 28.2653333,6.80133333 Z"></path>
                <path d="M26.1326667,6.80133333 C26.1326667,7.09533333 25.896,7.332 25.5986667,7.332 C25.3046667,7.332 25.068,7.09533333 25.068,6.80133333 C25.068,6.504 25.3046667,6.26733333 25.5986667,6.26733333 C25.896,6.26733333 26.1326667,6.504 26.1326667,6.80133333 Z"></path>
                <path d="M22.932,5.19933333 C22.932,5.494 22.6953333,5.73333333 22.4013333,5.73333333 C22.104,5.73333333 21.8673333,5.494 21.8673333,5.19933333 C21.8673333,4.90533333 22.104,4.66533333 22.4013333,4.66533333 C22.6953333,4.66533333 22.932,4.90533333 22.932,5.19933333 Z"></path>
                <path d="M24,6.80133333 C24,7.09533333 23.7606667,7.332 23.466,7.332 C23.172,7.332 22.932,7.09533333 22.932,6.80133333 C22.932,6.504 23.172,6.26733333 23.466,6.26733333 C23.7606667,6.26733333 24,6.504 24,6.80133333 Z"></path>
                <path d="M20.7993333,5.19933333 C20.7993333,5.494 20.5626667,5.73333333 20.2653333,5.73333333 C19.9713333,5.73333333 19.7346667,5.494 19.7346667,5.19933333 C19.7346667,4.90533333 19.9713333,4.66533333 20.2653333,4.66533333 C20.5626667,4.66533333 20.7993333,4.90533333 20.7993333,5.19933333 Z"></path>
                <path d="M21.8673333,6.80133333 C21.8673333,7.09533333 21.6273333,7.332 21.3333333,7.332 C21.0393333,7.332 20.7993333,7.09533333 20.7993333,6.80133333 C20.7993333,6.504 21.0393333,6.26733333 21.3333333,6.26733333 C21.6273333,6.26733333 21.8673333,6.504 21.8673333,6.80133333 Z"></path>
                <path d="M18.6666667,5.19933333 C18.6666667,5.494 18.4273333,5.73333333 18.1326667,5.73333333 C17.8386667,5.73333333 17.5986667,5.494 17.5986667,5.19933333 C17.5986667,4.90533333 17.8386667,4.66533333 18.1326667,4.66533333 C18.4273333,4.66533333 18.6666667,4.90533333 18.6666667,5.19933333 Z"></path>
                <path d="M19.7346667,6.80133333 C19.7346667,7.09533333 19.4946667,7.332 19.2006667,7.332 C18.906,7.332 18.6666667,7.09533333 18.6666667,6.80133333 C18.6666667,6.504 18.906,6.26733333 19.2006667,6.26733333 C19.4946667,6.26733333 19.7346667,6.504 19.7346667,6.80133333 Z"></path>
                <path d="M32,9.142 L32,2.858 C32,1.50133333 30.8986667,0.4 29.5413333,0.4 L2.45866667,0.4 C1.10133333,0.4 0,1.50133333 0,2.858 L0,9.142 C0,9.926 0.374666667,10.616 0.948,11.0666667 C0.374666667,11.5173333 0,12.2073333 0,12.9913333 L0,19.2746667 C0,20.632 1.10133333,21.7333333 2.45866667,21.7333333 L15.466,21.7333333 L15.466,26.0533333 C14.4246667,26.2673333 13.5986667,27.09 13.388,28.1346667 L0.534,28.1346667 C0.239333333,28.1346667 0,28.3713333 0,28.6653333 C0,28.9626667 0.239333333,29.1993333 0.534,29.1993333 L13.388,29.1993333 C13.6353333,30.4153333 14.7106667,31.332 16,31.332 C17.2893333,31.332 18.3646667,30.4153333 18.612,29.1993333 L31.466,29.1993333 C31.7606667,29.1993333 32,28.9626667 32,28.6653333 C32,28.3713333 31.7606667,28.1346667 31.466,28.1346667 L18.612,28.1346667 C18.4013333,27.09 17.5753333,26.2673333 16.534,26.0533333 L16.534,21.7333333 L29.5413333,21.7333333 C30.8986667,21.7333333 32,20.632 32,19.2746667 L32,12.9913333 C32,12.2073333 31.6253333,11.5173333 31.052,11.0666667 C31.6253333,10.616 32,9.926 32,9.142 Z M17.5986667,28.6653333 C17.5986667,29.5486667 16.8826667,30.2673333 16,30.2673333 C15.1173333,30.2673333 14.4013333,29.5486667 14.4013333,28.6653333 C14.4013333,27.7853333 15.1173333,27.0666667 16,27.0666667 C16.8826667,27.0666667 17.5986667,27.7853333 17.5986667,28.6653333 Z M30.932,12.9913333 L30.932,19.2746667 C30.932,20.0433333 30.31,20.6653333 29.5413333,20.6653333 L2.45866667,20.6653333 C1.69,20.6653333 1.068,20.0433333 1.068,19.2746667 L1.068,12.9913333 C1.068,12.2226667 1.69,11.6006667 2.45866667,11.6006667 L29.5413333,11.6006667 C30.31,11.6006667 30.932,12.2226667 30.932,12.9913333 Z M2.45866667,10.5326667 C1.69,10.5326667 1.068,9.91066667 1.068,9.142 L1.068,2.858 C1.068,2.09 1.69,1.468 2.45866667,1.468 L29.5413333,1.468 C30.31,1.468 30.932,2.09 30.932,2.858 L30.932,9.142 C30.932,9.91066667 30.31,10.5326667 29.5413333,10.5326667 L2.45866667,10.5326667 Z"></path>
                <path d="M5.59866667,18.5326667 C6.92466667,18.5326667 8,17.4573333 8,16.1346667 C8,14.8086667 6.92466667,13.7333333 5.59866667,13.7333333 C4.276,13.7333333 3.20066667,14.8086667 3.20066667,16.1346667 C3.20066667,17.4573333 4.276,18.5326667 5.59866667,18.5326667 Z M5.59866667,14.8013333 C6.336,14.8013333 6.932,15.3973333 6.932,16.1346667 C6.932,16.8686667 6.336,17.468 5.59866667,17.468 C4.86466667,17.468 4.26533333,16.8686667 4.26533333,16.1346667 C4.26533333,15.3973333 4.86466667,14.8013333 5.59866667,14.8013333 Z"></path>
                <path d="M27.2006667,15.332 C27.2006667,15.6293333 26.9606667,15.866 26.6666667,15.866 C26.3726667,15.866 26.1326667,15.6293333 26.1326667,15.332 C26.1326667,15.038 26.3726667,14.8013333 26.6666667,14.8013333 C26.9606667,14.8013333 27.2006667,15.038 27.2006667,15.332 Z"></path>
                <path d="M25.068,15.332 C25.068,15.6293333 24.828,15.866 24.534,15.866 C24.2393333,15.866 24,15.6293333 24,15.332 C24,15.038 24.2393333,14.8013333 24.534,14.8013333 C24.828,14.8013333 25.068,15.038 25.068,15.332 Z"></path>
                <path d="M28.2653333,16.934 C28.2653333,17.228 28.0286667,17.468 27.7346667,17.468 C27.4373333,17.468 27.2006667,17.228 27.2006667,16.934 C27.2006667,16.6393333 27.4373333,16.4 27.7346667,16.4 C28.0286667,16.4 28.2653333,16.6393333 28.2653333,16.934 Z"></path>
                <path d="M26.1326667,16.934 C26.1326667,17.228 25.896,17.468 25.5986667,17.468 C25.3046667,17.468 25.068,17.228 25.068,16.934 C25.068,16.6393333 25.3046667,16.4 25.5986667,16.4 C25.896,16.4 26.1326667,16.6393333 26.1326667,16.934 Z"></path>
                <path d="M22.932,15.332 C22.932,15.6293333 22.6953333,15.866 22.4013333,15.866 C22.104,15.866 21.8673333,15.6293333 21.8673333,15.332 C21.8673333,15.038 22.104,14.8013333 22.4013333,14.8013333 C22.6953333,14.8013333 22.932,15.038 22.932,15.332 Z"></path>
                <path d="M24,16.934 C24,17.228 23.7606667,17.468 23.466,17.468 C23.172,17.468 22.932,17.228 22.932,16.934 C22.932,16.6393333 23.172,16.4 23.466,16.4 C23.7606667,16.4 24,16.6393333 24,16.934 Z"></path>
                <path d="M20.7993333,15.332 C20.7993333,15.6293333 20.5626667,15.866 20.2653333,15.866 C19.9713333,15.866 19.7346667,15.6293333 19.7346667,15.332 C19.7346667,15.038 19.9713333,14.8013333 20.2653333,14.8013333 C20.5626667,14.8013333 20.7993333,15.038 20.7993333,15.332 Z"></path>
                <path d="M21.8673333,16.934 C21.8673333,17.228 21.6273333,17.468 21.3333333,17.468 C21.0393333,17.468 20.7993333,17.228 20.7993333,16.934 C20.7993333,16.6393333 21.0393333,16.4 21.3333333,16.4 C21.6273333,16.4 21.8673333,16.6393333 21.8673333,16.934 Z"></path>
                <path d="M18.6666667,15.332 C18.6666667,15.6293333 18.4273333,15.866 18.1326667,15.866 C17.8386667,15.866 17.5986667,15.6293333 17.5986667,15.332 C17.5986667,15.038 17.8386667,14.8013333 18.1326667,14.8013333 C18.4273333,14.8013333 18.6666667,15.038 18.6666667,15.332 Z"></path>
                <path d="M19.7346667,16.934 C19.7346667,17.228 19.4946667,17.468 19.2006667,17.468 C18.906,17.468 18.6666667,17.228 18.6666667,16.934 C18.6666667,16.6393333 18.906,16.4 19.2006667,16.4 C19.4946667,16.4 19.7346667,16.6393333 19.7346667,16.934 Z"></path>
            </g>
        </g>
    </g>
</svg>