<?xml version="1.0" encoding="UTF-8" standalone="no"?>
<svg width="548px" height="498px" viewBox="0 0 548 498" version="1.1" xmlns="http://www.w3.org/2000/svg" xmlns:xlink="http://www.w3.org/1999/xlink">
    <g stroke="none" stroke-width="1" fill="none" fill-rule="evenodd" opacity="0.340000004">
        <g transform="translate(-757.000000, -772.000000)" fill="#FFFFFF">
            <g transform="translate(0.000000, 772.000000)">
                <g>
                    <g transform="translate(717.000000, -106.000000)">
                        <g opacity="0.600000024">
                            <g transform="translate(0.000000, 23.000000)">
                                <polygon points="43.335 44.4954128 43.335 86.3027523 22.44 65.3990826"></polygon>
                                <polygon transform="translate(54.777500, 65.399083) scale(-1, 1) translate(-54.777500, -65.399083) " points="65.225 44.4954128 65.225 86.3027523 44.33 65.3990826"></polygon>
                            </g>
                            <g transform="translate(107.000000, 0.000000)">
                                <g transform="translate(168.000000, 108.500000) rotate(-360.000000) translate(-168.000000, -108.500000) translate(113.000000, 0.000000)">
                                    <polygon points="110 87.5963303 110 129.40367 89.105 108.5"></polygon>
                                    <polygon points="110 131.394495 110 173.201835 89.105 152.298165"></polygon>
                                    <polygon transform="translate(99.055000, 86.600917) scale(-1, 1) translate(-99.055000, -86.600917) " points="109.5025 65.6972477 109.5025 107.504587 88.6075 86.6009174"></polygon>
                                    <polygon transform="translate(99.055000, 130.399083) scale(-1, 1) translate(-99.055000, -130.399083) " points="109.5025 109.495413 109.5025 151.302752 88.6075 130.399083"></polygon>
                                    <polygon transform="translate(99.055000, 174.197248) scale(-1, 1) translate(-99.055000, -174.197248) " points="109.5025 153.293578 109.5025 195.100917 88.6075 174.197248"></polygon>
                                    <polygon points="110 175.192661 110 217 89.105 196.09633"></polygon>
                                    <polygon points="65.7225 87.5963303 65.7225 129.40367 44.8275 108.5"></polygon>
                                    <polygon points="65.7225 131.394495 65.7225 173.201835 44.8275 152.298165"></polygon>
                                    <polygon points="43.335 65.6972477 43.335 107.504587 22.44 86.6009174"></polygon>
                                    <polygon points="43.335 109.495413 43.335 151.302752 22.44 130.399083"></polygon>
                                    <polygon transform="translate(54.777500, 86.600917) scale(-1, 1) translate(-54.777500, -86.600917) " points="65.225 65.6972477 65.225 107.504587 44.33 86.6009174"></polygon>
                                    <polygon transform="translate(54.777500, 130.399083) scale(-1, 1) translate(-54.777500, -130.399083) " points="65.225 109.495413 65.225 151.302752 44.33 130.399083"></polygon>
                                    <polygon transform="translate(77.165000, 108.500000) scale(-1, 1) translate(-77.165000, -108.500000) " points="87.6125 87.5963303 87.6125 129.40367 66.7175 108.5"></polygon>
                                    <polygon points="20.9475 87.5963303 20.9475 129.40367 0.0525 108.5"></polygon>
                                    <polygon transform="translate(32.390000, 108.500000) scale(-1, 1) translate(-32.390000, -108.500000) " points="42.8375 87.5963303 42.8375 129.40367 21.9425 108.5"></polygon>
                                    <polygon transform="translate(77.165000, 152.298165) scale(-1, 1) translate(-77.165000, -152.298165) " points="87.6125 131.394495 87.6125 173.201835 66.7175 152.298165"></polygon>
                                    <polygon points="87.6125 65.6972477 87.6125 107.504587 66.7175 86.6009174"></polygon>
                                    <polygon points="87.6125 109.495413 87.6125 151.302752 66.7175 130.399083"></polygon>
                                    <polygon points="87.6125 153.293578 87.6125 195.100917 66.7175 174.197248"></polygon>
                                </g>
                                <g transform="translate(226.000000, 495.500000) rotate(-360.000000) translate(-226.000000, -495.500000) translate(171.000000, 387.000000)">
                                    <polygon points="110 0 110 41.8073394 89.105 20.9036697"></polygon>
                                    <polygon points="110 43.7981651 110 85.6055046 89.105 64.7018349"></polygon>
                                    <polygon points="110 87.5963303 110 129.40367 89.105 108.5"></polygon>
                                    <polygon points="110 131.394495 110 173.201835 89.105 152.298165"></polygon>
                                    <polygon transform="translate(99.055000, 42.802752) scale(-1, 1) translate(-99.055000, -42.802752) " points="109.5025 21.8990826 109.5025 63.706422 88.6075 42.8027523"></polygon>
                                    <polygon transform="translate(99.055000, 86.600917) scale(-1, 1) translate(-99.055000, -86.600917) " points="109.5025 65.6972477 109.5025 107.504587 88.6075 86.6009174"></polygon>
                                    <polygon transform="translate(99.055000, 130.399083) scale(-1, 1) translate(-99.055000, -130.399083) " points="109.5025 109.495413 109.5025 151.302752 88.6075 130.399083"></polygon>
                                    <polygon transform="translate(99.055000, 174.197248) scale(-1, 1) translate(-99.055000, -174.197248) " points="109.5025 153.293578 109.5025 195.100917 88.6075 174.197248"></polygon>
                                    <polygon points="110 175.192661 110 217 89.105 196.09633"></polygon>
                                    <polygon points="65.7225 43.7981651 65.7225 85.6055046 44.8275 64.7018349"></polygon>
                                    <polygon points="65.7225 87.5963303 65.7225 129.40367 44.8275 108.5"></polygon>
                                    <polygon points="65.7225 131.394495 65.7225 173.201835 44.8275 152.298165"></polygon>
                                    <polygon points="43.335 65.6972477 43.335 107.504587 22.44 86.6009174"></polygon>
                                    <polygon points="43.335 109.495413 43.335 151.302752 22.44 130.399083"></polygon>
                                    <polygon transform="translate(54.777500, 86.600917) scale(-1, 1) translate(-54.777500, -86.600917) " points="65.225 65.6972477 65.225 107.504587 44.33 86.6009174"></polygon>
                                    <polygon transform="translate(54.777500, 130.399083) scale(-1, 1) translate(-54.777500, -130.399083) " points="65.225 109.495413 65.225 151.302752 44.33 130.399083"></polygon>
                                    <polygon transform="translate(77.165000, 64.701835) scale(-1, 1) translate(-77.165000, -64.701835) " points="87.6125 43.7981651 87.6125 85.6055046 66.7175 64.7018349"></polygon>
                                    <polygon transform="translate(77.165000, 108.500000) scale(-1, 1) translate(-77.165000, -108.500000) " points="87.6125 87.5963303 87.6125 129.40367 66.7175 108.5"></polygon>
                                    <polygon points="20.9475 87.5963303 20.9475 129.40367 0.0525 108.5"></polygon>
                                    <polygon transform="translate(32.390000, 108.500000) scale(-1, 1) translate(-32.390000, -108.500000) " points="42.8375 87.5963303 42.8375 129.40367 21.9425 108.5"></polygon>
                                    <polygon transform="translate(77.165000, 152.298165) scale(-1, 1) translate(-77.165000, -152.298165) " points="87.6125 131.394495 87.6125 173.201835 66.7175 152.298165"></polygon>
                                    <polygon points="87.6125 21.8990826 87.6125 63.706422 66.7175 42.8027523"></polygon>
                                    <polygon points="87.6125 65.6972477 87.6125 107.504587 66.7175 86.6009174"></polygon>
                                    <polygon points="87.6125 109.495413 87.6125 151.302752 66.7175 130.399083"></polygon>
                                    <polygon points="87.6125 153.293578 87.6125 195.100917 66.7175 174.197248"></polygon>
                                </g>
                                <g transform="translate(168.000000, 340.500000) scale(-1, 1) rotate(-360.000000) translate(-168.000000, -340.500000) translate(113.000000, 232.000000)">
                                    <polygon points="110 -2.84217094e-14 110 41.8073394 89.105 20.9036697"></polygon>
                                    <polygon points="110 43.7981651 110 85.6055046 89.105 64.7018349"></polygon>
                                    <polygon points="110 87.5963303 110 129.40367 89.105 108.5"></polygon>
                                    <polygon points="110 131.394495 110 173.201835 89.105 152.298165"></polygon>
                                    <polygon transform="translate(99.055000, 42.802752) scale(-1, 1) translate(-99.055000, -42.802752) " points="109.5025 21.8990826 109.5025 63.706422 88.6075 42.8027523"></polygon>
                                    <polygon transform="translate(99.055000, 86.600917) scale(-1, 1) translate(-99.055000, -86.600917) " points="109.5025 65.6972477 109.5025 107.504587 88.6075 86.6009174"></polygon>
                                    <polygon transform="translate(99.055000, 130.399083) scale(-1, 1) translate(-99.055000, -130.399083) " points="109.5025 109.495413 109.5025 151.302752 88.6075 130.399083"></polygon>
                                    <polygon transform="translate(99.055000, 174.197248) scale(-1, 1) translate(-99.055000, -174.197248) " points="109.5025 153.293578 109.5025 195.100917 88.6075 174.197248"></polygon>
                                    <polygon points="110 175.192661 110 217 89.105 196.09633"></polygon>
                                    <polygon points="65.7225 43.7981651 65.7225 85.6055046 44.8275 64.7018349"></polygon>
                                    <polygon points="65.7225 87.5963303 65.7225 129.40367 44.8275 108.5"></polygon>
                                    <polygon points="65.7225 131.394495 65.7225 173.201835 44.8275 152.298165"></polygon>
                                    <polygon points="43.335 65.6972477 43.335 107.504587 22.44 86.6009174"></polygon>
                                    <polygon points="43.335 109.495413 43.335 151.302752 22.44 130.399083"></polygon>
                                    <polygon transform="translate(54.777500, 86.600917) scale(-1, 1) translate(-54.777500, -86.600917) " points="65.225 65.6972477 65.225 107.504587 44.33 86.6009174"></polygon>
                                    <polygon transform="translate(54.777500, 130.399083) scale(-1, 1) translate(-54.777500, -130.399083) " points="65.225 109.495413 65.225 151.302752 44.33 130.399083"></polygon>
                                    <polygon transform="translate(77.165000, 64.701835) scale(-1, 1) translate(-77.165000, -64.701835) " points="87.6125 43.7981651 87.6125 85.6055046 66.7175 64.7018349"></polygon>
                                    <polygon transform="translate(77.165000, 108.500000) scale(-1, 1) translate(-77.165000, -108.500000) " points="87.6125 87.5963303 87.6125 129.40367 66.7175 108.5"></polygon>
                                    <polygon points="20.9475 87.5963303 20.9475 129.40367 0.0525 108.5"></polygon>
                                    <polygon transform="translate(32.390000, 108.500000) scale(-1, 1) translate(-32.390000, -108.500000) " points="42.8375 87.5963303 42.8375 129.40367 21.9425 108.5"></polygon>
                                    <polygon transform="translate(77.165000, 152.298165) scale(-1, 1) translate(-77.165000, -152.298165) " points="87.6125 131.394495 87.6125 173.201835 66.7175 152.298165"></polygon>
                                    <polygon points="87.6125 21.8990826 87.6125 63.706422 66.7175 42.8027523"></polygon>
                                    <polygon points="87.6125 65.6972477 87.6125 107.504587 66.7175 86.6009174"></polygon>
                                    <polygon points="87.6125 109.495413 87.6125 151.302752 66.7175 130.399083"></polygon>
                                    <polygon points="87.6125 153.293578 87.6125 195.100917 66.7175 174.197248"></polygon>
                                </g>
                                <g transform="translate(426.000000, 236.500000) scale(-1, 1) rotate(-360.000000) translate(-426.000000, -236.500000) translate(371.000000, 128.000000)">
                                    <polygon points="110 -2.84217094e-14 110 41.8073394 89.105 20.9036697"></polygon>
                                    <polygon points="110 43.7981651 110 85.6055046 89.105 64.7018349"></polygon>
                                    <polygon points="110 87.5963303 110 129.40367 89.105 108.5"></polygon>
                                    <polygon points="110 131.394495 110 173.201835 89.105 152.298165"></polygon>
                                    <polygon transform="translate(99.055000, 42.802752) scale(-1, 1) translate(-99.055000, -42.802752) " points="109.5025 21.8990826 109.5025 63.706422 88.6075 42.8027523"></polygon>
                                    <polygon transform="translate(99.055000, 86.600917) scale(-1, 1) translate(-99.055000, -86.600917) " points="109.5025 65.6972477 109.5025 107.504587 88.6075 86.6009174"></polygon>
                                    <polygon transform="translate(99.055000, 130.399083) scale(-1, 1) translate(-99.055000, -130.399083) " points="109.5025 109.495413 109.5025 151.302752 88.6075 130.399083"></polygon>
                                    <polygon transform="translate(99.055000, 174.197248) scale(-1, 1) translate(-99.055000, -174.197248) " points="109.5025 153.293578 109.5025 195.100917 88.6075 174.197248"></polygon>
                                    <polygon points="110 175.192661 110 217 89.105 196.09633"></polygon>
                                    <polygon points="65.7225 43.7981651 65.7225 85.6055046 44.8275 64.7018349"></polygon>
                                    <polygon points="65.7225 87.5963303 65.7225 129.40367 44.8275 108.5"></polygon>
                                    <polygon points="65.7225 131.394495 65.7225 173.201835 44.8275 152.298165"></polygon>
                                    <polygon points="43.335 65.6972477 43.335 107.504587 22.44 86.6009174"></polygon>
                                    <polygon points="43.335 109.495413 43.335 151.302752 22.44 130.399083"></polygon>
                                    <polygon transform="translate(54.777500, 86.600917) scale(-1, 1) translate(-54.777500, -86.600917) " points="65.225 65.6972477 65.225 107.504587 44.33 86.6009174"></polygon>
                                    <polygon transform="translate(54.777500, 130.399083) scale(-1, 1) translate(-54.777500, -130.399083) " points="65.225 109.495413 65.225 151.302752 44.33 130.399083"></polygon>
                                    <polygon transform="translate(77.165000, 64.701835) scale(-1, 1) translate(-77.165000, -64.701835) " points="87.6125 43.7981651 87.6125 85.6055046 66.7175 64.7018349"></polygon>
                                    <polygon transform="translate(77.165000, 108.500000) scale(-1, 1) translate(-77.165000, -108.500000) " points="87.6125 87.5963303 87.6125 129.40367 66.7175 108.5"></polygon>
                                    <polygon points="20.9475 87.5963303 20.9475 129.40367 0.0525 108.5"></polygon>
                                    <polygon transform="translate(32.390000, 108.500000) scale(-1, 1) translate(-32.390000, -108.500000) " points="42.8375 87.5963303 42.8375 129.40367 21.9425 108.5"></polygon>
                                    <polygon transform="translate(77.165000, 152.298165) scale(-1, 1) translate(-77.165000, -152.298165) " points="87.6125 131.394495 87.6125 173.201835 66.7175 152.298165"></polygon>
                                    <polygon points="87.6125 21.8990826 87.6125 63.706422 66.7175 42.8027523"></polygon>
                                    <polygon points="87.6125 65.6972477 87.6125 107.504587 66.7175 86.6009174"></polygon>
                                    <polygon points="87.6125 109.495413 87.6125 151.302752 66.7175 130.399083"></polygon>
                                    <polygon points="87.6125 153.293578 87.6125 195.100917 66.7175 174.197248"></polygon>
                                </g>
                                <g transform="translate(0.000000, 167.000000)">
                                    <polygon points="65.7225 22.5963303 65.7225 64.4036697 44.8275 43.5"></polygon>
                                    <polygon points="43.335 0.697247706 43.335 42.5045872 22.44 21.6009174"></polygon>
                                    <polygon points="43.335 44.4954128 43.335 86.3027523 22.44 65.3990826"></polygon>
                                    <polygon transform="translate(54.777500, 21.600917) scale(-1, 1) translate(-54.777500, -21.600917) " points="65.225 0.697247706 65.225 42.5045872 44.33 21.6009174"></polygon>
                                    <polygon transform="translate(54.777500, 65.399083) scale(-1, 1) translate(-54.777500, -65.399083) " points="65.225 44.4954128 65.225 86.3027523 44.33 65.3990826"></polygon>
                                    <polygon transform="translate(77.165000, 43.500000) scale(-1, 1) translate(-77.165000, -43.500000) " points="87.6125 22.5963303 87.6125 64.4036697 66.7175 43.5"></polygon>
                                    <polygon points="20.9475 22.5963303 20.9475 64.4036697 0.0525 43.5"></polygon>
                                    <polygon transform="translate(32.390000, 43.500000) scale(-1, 1) translate(-32.390000, -43.500000) " points="42.8375 22.5963303 42.8375 64.4036697 21.9425 43.5"></polygon>
                                </g>
                                <g transform="translate(253.000000, 235.000000)">
                                    <polygon points="65.7225 22.5963303 65.7225 64.4036697 44.8275 43.5"></polygon>
                                    <polygon points="43.335 0.697247706 43.335 42.5045872 22.44 21.6009174"></polygon>
                                    <polygon points="43.335 44.4954128 43.335 86.3027523 22.44 65.3990826"></polygon>
                                    <polygon transform="translate(54.777500, 21.600917) scale(-1, 1) translate(-54.777500, -21.600917) " points="65.225 0.697247706 65.225 42.5045872 44.33 21.6009174"></polygon>
                                    <polygon transform="translate(54.777500, 65.399083) scale(-1, 1) translate(-54.777500, -65.399083) " points="65.225 44.4954128 65.225 86.3027523 44.33 65.3990826"></polygon>
                                    <polygon transform="translate(77.165000, 43.500000) scale(-1, 1) translate(-77.165000, -43.500000) " points="87.6125 22.5963303 87.6125 64.4036697 66.7175 43.5"></polygon>
                                    <polygon points="20.9475 22.5963303 20.9475 64.4036697 0.0525 43.5"></polygon>
                                    <polygon transform="translate(32.390000, 43.500000) scale(-1, 1) translate(-32.390000, -43.500000) " points="42.8375 22.5963303 42.8375 64.4036697 21.9425 43.5"></polygon>
                                </g>
                                <g transform="translate(326.000000, 460.000000)">
                                    <polygon points="65.7225 22.5963303 65.7225 64.4036697 44.8275 43.5"></polygon>
                                    <polygon points="43.335 0.697247706 43.335 42.5045872 22.44 21.6009174"></polygon>
                                    <polygon points="43.335 44.4954128 43.335 86.3027523 22.44 65.3990826"></polygon>
                                    <polygon transform="translate(54.777500, 21.600917) scale(-1, 1) translate(-54.777500, -21.600917) " points="65.225 0.697247706 65.225 42.5045872 44.33 21.6009174"></polygon>
                                    <polygon transform="translate(54.777500, 65.399083) scale(-1, 1) translate(-54.777500, -65.399083) " points="65.225 44.4954128 65.225 86.3027523 44.33 65.3990826"></polygon>
                                    <polygon transform="translate(77.165000, 43.500000) scale(-1, 1) translate(-77.165000, -43.500000) " points="87.6125 22.5963303 87.6125 64.4036697 66.7175 43.5"></polygon>
                                    <polygon points="20.9475 22.5963303 20.9475 64.4036697 0.0525 43.5"></polygon>
                                    <polygon transform="translate(32.390000, 43.500000) scale(-1, 1) translate(-32.390000, -43.500000) " points="42.8375 22.5963303 42.8375 64.4036697 21.9425 43.5"></polygon>
                                </g>
                                <g transform="translate(253.000000, 62.000000)">
                                    <polygon points="65.7225 22.5963303 65.7225 64.4036697 44.8275 43.5"></polygon>
                                    <polygon points="43.335 44.4954128 43.335 86.3027523 22.44 65.3990826"></polygon>
                                    <polygon transform="translate(54.777500, 65.399083) scale(-1, 1) translate(-54.777500, -65.399083) " points="65.225 44.4954128 65.225 86.3027523 44.33 65.3990826"></polygon>
                                    <polygon transform="translate(77.165000, 43.500000) scale(-1, 1) translate(-77.165000, -43.500000) " points="87.6125 22.5963303 87.6125 64.4036697 66.7175 43.5"></polygon>
                                    <polygon points="20.9475 22.5963303 20.9475 64.4036697 0.0525 43.5"></polygon>
                                    <polygon transform="translate(32.390000, 43.500000) scale(-1, 1) translate(-32.390000, -43.500000) " points="42.8375 22.5963303 42.8375 64.4036697 21.9425 43.5"></polygon>
                                </g>
                            </g>
                        </g>
                    </g>
                </g>
            </g>
        </g>
    </g>
</svg>