<?xml version="1.0" encoding="UTF-8" standalone="no"?>
<svg width="170px" height="71px" viewBox="0 0 170 71" version="1.1" xmlns="http://www.w3.org/2000/svg" xmlns:xlink="http://www.w3.org/1999/xlink">
    <g stroke="none" stroke-width="1" fill="none" fill-rule="evenodd">
        <g transform="translate(-96.000000, -5410.000000)">
            <g transform="translate(-40.000000, 5361.000000)">
                <g transform="translate(136.000000, 49.000000)">
                    <polyline fill="#FFFFFF" points="29.4326966 24.7247708 40.2638554 35.5576035 29.4326966 46.3904361 29.4326966 24.7247708"></polyline>
                    <polyline fill="#FFFFFF" points="40.4128351 58.1179839 29.5808394 47.2851513 40.4128351 36.4523186 40.4128351 58.1179839"></polyline>
                    <polyline fill="#FFFFFF" points="41.0916133 36.4523186 51.923609 47.2851513 41.0916133 58.1179839 41.0916133 36.4523186"></polyline>
                    <polyline fill="#FFFFFF" points="29.4326966 48.1790295 40.2638554 59.0126991 29.4326966 69.8446947 29.4326966 48.1790295"></polyline>
                    <polyline fill="#FFFFFF" points="51.9972619 69.8446947 41.1661032 59.0118621 51.9972619 48.1790295 51.9972619 69.8446947"></polyline>
                    <polyline fill="#FFFFFF" points="51.924446 46.3628163 41.0916133 35.5299837 51.924446 24.697988 51.924446 46.3628163"></polyline>
                    <polyline fill="#FFFFFF" points="29.91981 70.4096458 40.7509687 59.5768132 51.5854753 70.4096458 29.91981 70.4096458"></polyline>
                    <polyline fill="#FFFFFF" points="58.4385414 48.1790295 69.271374 59.0126991 58.4385414 69.8446947 58.4385414 48.1790295"></polyline>
                    <polyline fill="#FFFFFF" points="69.3458638 34.6628883 58.5147051 23.8308927 69.3458638 12.9972231 69.3458638 34.6628883"></polyline>
                    <polyline fill="#FFFFFF" points="70.0246421 12.99806 80.8558008 23.8300557 70.0246421 34.6628883 70.0246421 12.99806"></polyline>
                    <polyline fill="#FFFFFF" points="58.3648885 24.7247708 69.1968841 35.5576035 58.3648885 46.3904361 58.3648885 24.7247708"></polyline>
                    <polyline fill="#FFFFFF" points="81.0056175 46.3904361 70.1736218 35.5576035 81.0056175 24.7247708 81.0056175 46.3904361"></polyline>
                    <polyline fill="#FFFFFF" points="69.3458638 58.1179839 58.5147051 47.2851513 69.3458638 36.4523186 69.3458638 58.1179839"></polyline>
                    <polyline fill="#FFFFFF" points="70.0246421 36.4523186 80.8558008 47.2851513 70.0246421 58.1179839 70.0246421 36.4523186"></polyline>
                    <polyline fill="#FFFFFF" points="80.9302907 69.8446947 70.099132 59.0118621 80.9302907 48.1790295 80.9302907 69.8446947"></polyline>
                    <polyline fill="#FFFFFF" points="81.0056175 22.9361775 70.1736218 12.1025079 81.0056175 1.26967528 81.0056175 22.9361775"></polyline>
                    <polyline fill="#FFFFFF" points="58.8570236 70.4096458 69.6898563 59.5768132 80.5226889 70.4096458 58.8570236 70.4096458"></polyline>
                    <path d="M94.1442876,6.33080013 L94.6958472,2.62890577 C94.7167714,2.48662179 94.7946091,2.36442496 94.9285234,2.26315224 C95.0574159,2.16857524 95.197189,2.1200313 95.3461687,2.1200313 C95.4976593,2.1200313 95.6349215,2.16355346 95.7571183,2.24976081 C95.8809891,2.33680513 95.9646856,2.45146927 96.0098816,2.59626415 L96.8585637,5.22349598 L96.8711182,5.22349598 L97.7198003,2.59626415 C97.7658333,2.45146927 97.8495298,2.33680513 97.9725636,2.24976081 C98.0955974,2.16355346 98.2328596,2.1200313 98.3835132,2.1200313 C98.5366777,2.1200313 98.6756138,2.16690131 98.8019955,2.25980438 C98.9350729,2.35940317 99.0129106,2.48243696 99.0346717,2.62890577 L99.5845574,6.33080013 C99.5895792,6.35841996 99.5912531,6.37767015 99.5912531,6.38938765 L99.5912531,6.44379035 C99.5912531,6.58607433 99.546894,6.70157544 99.4590127,6.78861976 C99.3711314,6.87650104 99.2547933,6.9200232 99.1125094,6.9200232 C98.8036694,6.9200232 98.6312547,6.76518475 98.5944283,6.45718178 L98.270523,3.75629706 L98.2571316,3.75629706 L97.395895,6.53753038 C97.3155464,6.79280458 97.1397838,6.9200232 96.8644225,6.9200232 C96.5907351,6.9200232 96.4132986,6.79280458 96.3337869,6.53753038 L95.4725504,3.75629706 L95.4599959,3.75629706 L95.1327428,6.45718178 C95.0959163,6.76518475 94.9243386,6.9200232 94.6180095,6.9200232 C94.4748886,6.9200232 94.3593875,6.87650104 94.2715062,6.78861976 C94.181951,6.70157544 94.1384288,6.58607433 94.1384288,6.44379035 L94.1384288,6.38938765 C94.1384288,6.37599622 94.1409397,6.35674603 94.1442876,6.33080013" fill="#FFFFFF"></path>
                    <path d="M103.576878,6.04539521 C103.98448,6.04539521 104.300853,5.88637194 104.525996,5.56665146 C104.724357,5.28375743 104.823119,4.9347432 104.823119,4.52044573 C104.823119,3.84501531 104.589606,3.37798907 104.120068,3.12104094 C103.967741,3.03734448 103.78612,2.99465929 103.576878,2.99465929 C103.174298,2.99465929 102.858763,3.15619346 102.627761,3.47758786 C102.4294,3.75629706 102.329801,4.10363737 102.329801,4.52044573 C102.329801,4.94980856 102.433585,5.30384458 102.641152,5.58255379 C102.869643,5.89139372 103.180994,6.04539521 103.576878,6.04539521 Z M103.576878,6.96187143 C102.8981,6.96187143 102.343193,6.71831474 101.912156,6.23036438 C101.501206,5.76835993 101.29615,5.19838705 101.29615,4.52044573 C101.29615,3.82074334 101.507902,3.23905295 101.931406,2.7745376 C102.35491,2.31085922 102.903122,2.07818307 103.576878,2.07818307 C104.243939,2.07818307 104.795499,2.32173976 105.23072,2.80717922 C105.65004,3.2733685 105.859281,3.84501531 105.859281,4.52044573 C105.859281,5.20675669 105.651714,5.7809144 105.237416,6.24291885 C104.810564,6.72249956 104.256494,6.96187143 103.576878,6.96187143 L103.576878,6.96187143 Z" fill="#FFFFFF"></path>
                    <path d="M107.428589,4.52044573 C107.428589,3.82743905 107.634483,3.25244438 108.044595,2.79462475 C108.472284,2.31671798 109.028029,2.07818307 109.711829,2.07818307 C110.286824,2.07818307 110.710328,2.20456472 110.984852,2.45732803 C111.086962,2.55023109 111.13718,2.67242792 111.13718,2.82308155 C111.13718,2.94611534 111.098679,3.05073592 111.021678,3.13778023 C110.945515,3.22398759 110.845916,3.26750975 110.725393,3.26750975 C110.665969,3.26750975 110.521174,3.22817241 110.291845,3.1503347 C110.063354,3.072497 109.869178,3.03399663 109.711829,3.03399663 C109.306738,3.03399663 108.990365,3.19134597 108.762711,3.50688162 C108.56435,3.78307993 108.465589,4.12707238 108.465589,4.53969592 C108.465589,4.94729767 108.569372,5.28794226 108.776102,5.55995575 C109.00292,5.85791514 109.314271,6.00689484 109.711829,6.00689484 C109.875874,6.00689484 110.075072,5.96002482 110.307748,5.86795872 C110.541261,5.77505565 110.693588,5.72818563 110.76473,5.72818563 C110.965602,5.72818563 111.102027,5.83196924 111.17568,6.03953646 C111.19493,6.09310219 111.204974,6.13913524 111.204974,6.17847258 C111.204974,6.45718178 111.016657,6.66642293 110.638349,6.80703298 C110.361313,6.90997963 110.05331,6.96187143 109.711829,6.96187143 C109.033888,6.96187143 108.47898,6.71831474 108.047943,6.23036438 C107.63532,5.76417511 107.428589,5.19336526 107.428589,4.52044573" fill="#FFFFFF"></path>
                    <path d="M112.836218,6.44379035 L112.836218,2.60965558 C112.836218,2.46067588 112.881414,2.34182691 112.972643,2.25310867 C113.063035,2.16522739 113.183558,2.1200313 113.335049,2.1200313 C113.484028,2.1200313 113.603714,2.16522739 113.694106,2.25310867 C113.784499,2.34182691 113.830532,2.46067588 113.830532,2.60965558 L113.830532,4.04086502 L115.462613,2.30500047 C115.578951,2.18196668 115.707843,2.1200313 115.847616,2.1200313 C115.990737,2.1200313 116.108749,2.16522739 116.200815,2.25310867 C116.293718,2.34182691 116.340588,2.45649106 116.340588,2.59626415 C116.340588,2.7368742 116.230946,2.91431069 116.012498,3.12773666 L114.759562,4.36142246 L116.291207,5.95835089 C116.477014,6.15252667 116.569917,6.32075656 116.569917,6.46304054 C116.569917,6.76769565 116.396665,6.9200232 116.051836,6.9200232 C115.909552,6.9200232 115.742159,6.81623959 115.550494,6.60867237 L113.830532,4.75312189 L113.830532,6.44379035 C113.830532,6.58607433 113.783662,6.70157544 113.691595,6.78861976 C113.598692,6.87650104 113.479843,6.9200232 113.335049,6.9200232 C113.190254,6.9200232 113.071405,6.87650104 112.976828,6.78861976 C112.883088,6.70157544 112.836218,6.58607433 112.836218,6.44379035" fill="#FFFFFF"></path>
                    <path d="M119.914427,6.04539521 C120.322866,6.04539521 120.639239,5.88637194 120.863545,5.56665146 C121.062743,5.28375743 121.161504,4.9347432 121.161504,4.52044573 C121.161504,3.84501531 120.927154,3.37798907 120.458454,3.12104094 C120.30529,3.03734448 120.123668,2.99465929 119.914427,2.99465929 C119.512684,2.99465929 119.196312,3.15619346 118.966146,3.47758786 C118.766949,3.75629706 118.66735,4.10363737 118.66735,4.52044573 C118.66735,4.94980856 118.771134,5.30384458 118.978701,5.58255379 C119.208029,5.89139372 119.51938,6.04539521 119.914427,6.04539521 Z M119.914427,6.96187143 C119.236486,6.96187143 118.681578,6.71831474 118.249705,6.23036438 C117.839592,5.76835993 117.634536,5.19838705 117.634536,4.52044573 C117.634536,3.82074334 117.846288,3.23905295 118.269792,2.7745376 C118.692459,2.31085922 119.241508,2.07818307 119.914427,2.07818307 C120.581488,2.07818307 121.133048,2.32173976 121.569106,2.80717922 C121.988425,3.2733685 122.197667,3.84501531 122.197667,4.52044573 C122.197667,5.20675669 121.990099,5.7809144 121.575802,6.24291885 C121.148113,6.72249956 120.594879,6.96187143 119.914427,6.96187143 L119.914427,6.96187143 Z" fill="#FFFFFF"></path>
                    <path d="M124.899388,4.90544944 L124.899388,6.00689484 L125.683624,6.00689484 C125.86943,6.00689484 126.019247,5.95584 126.134748,5.85456728 C126.251086,5.75329457 126.308,5.61017362 126.308,5.42687838 C126.308,5.07953808 126.072813,4.90544944 125.602439,4.90544944 L124.899388,4.90544944 Z M124.899388,3.03399663 L124.899388,4.02831055 L125.418306,4.02831055 C125.582351,4.02831055 125.712081,3.98144054 125.809169,3.88853747 C125.907094,3.7956344 125.955638,3.66841578 125.955638,3.50688162 C125.955638,3.19134597 125.77569,3.03399663 125.418306,3.03399663 L124.899388,3.03399663 Z M123.905911,6.37599622 L123.905911,2.65485167 C123.905911,2.50168715 123.954455,2.38116425 124.051543,2.292446 C124.148631,2.20372776 124.274176,2.15936863 124.429851,2.15936863 L125.702037,2.15936863 C126.256108,2.15936863 126.637764,2.387023 126.849516,2.8431687 C126.916473,2.98796357 126.949952,3.14866077 126.949952,3.3252603 C126.949952,3.78056904 126.744895,4.10614826 126.333946,4.29948708 L126.333946,4.31287851 C126.626046,4.3580746 126.866255,4.48445625 127.057083,4.69202347 C127.246237,4.89875372 127.340814,5.1498431 127.340814,5.44361767 C127.340814,5.90311123 127.19853,6.26049511 126.910614,6.51493234 C126.639438,6.759326 126.269499,6.88068586 125.80331,6.88068586 L124.436547,6.88068586 C124.283382,6.88068586 124.157001,6.83465281 124.056565,6.74174974 C123.956129,6.64884667 123.905911,6.52748681 123.905911,6.37599622 L123.905911,6.37599622 Z" fill="#FFFFFF"></path>
                    <path d="M128.908449,4.52044573 C128.908449,3.82743905 129.113505,3.25244438 129.523618,2.79462475 C129.951307,2.31671798 130.507051,2.07818307 131.190851,2.07818307 C131.765846,2.07818307 132.18935,2.20456472 132.463874,2.45732803 C132.565984,2.55023109 132.616202,2.67242792 132.616202,2.82308155 C132.616202,2.94611534 132.577701,3.05073592 132.501538,3.13778023 C132.424537,3.22398759 132.325775,3.26750975 132.204415,3.26750975 C132.144991,3.26750975 132.000196,3.22817241 131.770868,3.1503347 C131.542376,3.072497 131.349037,3.03399663 131.190851,3.03399663 C130.78576,3.03399663 130.469388,3.19134597 130.241733,3.50688162 C130.043373,3.78307993 129.944611,4.12707238 129.944611,4.53969592 C129.944611,4.94729767 130.048394,5.28794226 130.255125,5.55995575 C130.481942,5.85791514 130.793293,6.00689484 131.190851,6.00689484 C131.354896,6.00689484 131.554094,5.96002482 131.78677,5.86795872 C132.020283,5.77505565 132.172611,5.72818563 132.243753,5.72818563 C132.444624,5.72818563 132.581049,5.83196924 132.654702,6.03953646 C132.674789,6.09310219 132.683996,6.13913524 132.683996,6.17847258 C132.683996,6.45718178 132.495679,6.66642293 132.118208,6.80703298 C131.840336,6.90997963 131.532333,6.96187143 131.190851,6.96187143 C130.513747,6.96187143 129.958002,6.71831474 129.526965,6.23036438 C129.114342,5.76417511 128.908449,5.19336526 128.908449,4.52044573" fill="#FFFFFF"></path>
                    <path d="M134.31524,6.44379035 L134.31524,2.60965558 C134.31524,2.46067588 134.359599,2.34182691 134.450828,2.25310867 C134.54122,2.16522739 134.66258,2.1200313 134.813234,2.1200313 C134.962213,2.1200313 135.082736,2.16522739 135.172292,2.25310867 C135.262684,2.34182691 135.308717,2.46067588 135.308717,2.60965558 L135.308717,4.04086502 L136.940798,2.30500047 C137.057136,2.18196668 137.186028,2.1200313 137.325801,2.1200313 C137.468922,2.1200313 137.586934,2.16522739 137.679001,2.25310867 C137.771904,2.34182691 137.818774,2.45649106 137.818774,2.59626415 C137.818774,2.7368742 137.709131,2.91431069 137.490684,3.12773666 L136.237748,4.36142246 L137.769393,5.95835089 C137.955199,6.15252667 138.048102,6.32075656 138.048102,6.46304054 C138.048102,6.76769565 137.87485,6.9200232 137.530021,6.9200232 C137.387737,6.9200232 137.220344,6.81623959 137.028679,6.60867237 L135.308717,4.75312189 L135.308717,6.44379035 C135.308717,6.58607433 135.261847,6.70157544 135.169781,6.78861976 C135.076878,6.87650104 134.958029,6.9200232 134.813234,6.9200232 C134.668439,6.9200232 134.54959,6.87650104 134.455013,6.78861976 C134.361273,6.70157544 134.31524,6.58607433 134.31524,6.44379035" fill="#FFFFFF"></path>
                    <path d="M143.440665,6.77690226 C143.35111,6.87231622 143.22975,6.9200232 143.076585,6.9200232 C142.925932,6.9200232 142.804572,6.87231622 142.715853,6.77690226 C142.625461,6.68232526 142.580265,6.5584545 142.580265,6.40528998 L142.580265,3.93122266 L142.568548,3.93122266 L140.462745,6.70324937 C140.421733,6.75681511 140.358961,6.80703298 140.273591,6.85222907 C140.18822,6.89742516 140.112057,6.9200232 140.045099,6.9200232 C139.894446,6.9200232 139.773923,6.87231622 139.684368,6.77690226 C139.594812,6.68232526 139.549616,6.5584545 139.549616,6.40528998 L139.549616,2.63560148 C139.549616,2.292446 139.715335,2.1200313 140.045099,2.1200313 C140.378211,2.1200313 140.54393,2.292446 140.54393,2.63560148 L140.54393,5.14231042 L140.557322,5.14231042 L142.65894,2.33764209 C142.766908,2.19284722 142.905844,2.1200313 143.076585,2.1200313 C143.40886,2.1200313 143.575416,2.292446 143.575416,2.63560148 L143.575416,6.40528998 C143.575416,6.5584545 143.53022,6.68232526 143.440665,6.77690226" fill="#FFFFFF"></path>
                    <path d="M148.244005,1.95849713 C148.023046,2.11835737 147.759402,2.19870597 147.450562,2.19870597 L147.395322,2.19870597 C147.073928,2.19368418 146.803588,2.10831379 146.585978,1.94259481 C146.344095,1.75678867 146.223572,1.50904715 146.223572,1.19769632 C146.223572,1.06378199 146.269605,0.95079177 146.360834,0.857888701 C146.452063,0.764985632 146.565054,0.718115615 146.698968,0.718115615 C146.833719,0.718115615 146.945872,0.764985632 147.039612,0.857888701 C147.132516,0.95079177 147.178549,1.06378199 147.178549,1.19769632 C147.178549,1.27971885 147.267267,1.32156708 147.443866,1.32407798 L147.457258,1.32407798 C147.593683,1.32407798 147.668173,1.28222975 147.680727,1.19769632 C147.680727,1.06378199 147.72676,0.95079177 147.819663,0.857888701 C147.912567,0.764985632 148.025557,0.718115615 148.160308,0.718115615 C148.294222,0.718115615 148.406376,0.764985632 148.498442,0.857888701 C148.589671,0.95079177 148.635704,1.06378199 148.635704,1.19769632 C148.635704,1.5149059 148.505137,1.76850617 148.244005,1.95849713 Z M149.311134,6.77690226 C149.221579,6.87231622 149.100219,6.9200232 148.947055,6.9200232 C148.795564,6.9200232 148.675041,6.87231622 148.585486,6.77690226 C148.495931,6.68232526 148.450735,6.5584545 148.450735,6.40528998 L148.450735,3.93122266 L148.439017,3.93122266 L146.333214,6.70324937 C146.292203,6.75681511 146.229431,6.80703298 146.143223,6.85222907 C146.05869,6.89742516 145.982526,6.9200232 145.915569,6.9200232 C145.764078,6.9200232 145.644393,6.87231622 145.554,6.77690226 C145.465282,6.68232526 145.420086,6.5584545 145.420086,6.40528998 L145.420086,2.63560148 C145.420086,2.292446 145.584968,2.1200313 145.915569,2.1200313 C146.247844,2.1200313 146.4144,2.292446 146.4144,2.63560148 L146.4144,5.14231042 L146.426954,5.14231042 L148.529409,2.33764209 C148.637378,2.19284722 148.776314,2.1200313 148.947055,2.1200313 C149.278493,2.1200313 149.445886,2.292446 149.445886,2.63560148 L149.445886,6.40528998 C149.445886,6.5584545 149.40069,6.68232526 149.311134,6.77690226 L149.311134,6.77690226 Z" fill="#FFFFFF"></path>
                    <path d="M94.1442876,14.2894964 L94.6958472,10.588439 C94.7167714,10.445318 94.7946091,10.3231212 94.9285234,10.2218485 C95.0574159,10.1272715 95.197189,10.0795645 95.3461687,10.0795645 C95.4976593,10.0795645 95.6349215,10.1230867 95.7571183,10.209294 C95.8809891,10.2955014 95.9646856,10.4110025 96.0098816,10.5557974 L96.8585637,13.1821922 L96.8711182,13.1821922 L97.7198003,10.5557974 C97.7658333,10.4110025 97.8495298,10.2955014 97.9725636,10.209294 C98.0955974,10.1230867 98.2328596,10.0795645 98.3835132,10.0795645 C98.5366777,10.0795645 98.6756138,10.1255976 98.8019955,10.2185006 C98.9350729,10.3180994 99.0129106,10.4411332 99.0346717,10.588439 L99.5845574,14.2894964 C99.5895792,14.3179532 99.5912531,14.3372034 99.5912531,14.3480839 L99.5912531,14.4024866 C99.5912531,14.5456075 99.546894,14.6602717 99.4590127,14.747316 C99.3711314,14.8351973 99.2547933,14.8787195 99.1125094,14.8787195 C98.8036694,14.8787195 98.6312547,14.724718 98.5944283,14.415878 L98.270523,11.7149933 L98.2571316,11.7149933 L97.395895,14.4970636 C97.3155464,14.7515008 97.1397838,14.8787195 96.8644225,14.8787195 C96.5907351,14.8787195 96.4132986,14.7515008 96.3337869,14.4970636 L95.4725504,11.7149933 L95.4599959,11.7149933 L95.1327428,14.415878 C95.0959163,14.724718 94.9243386,14.8787195 94.6180095,14.8787195 C94.4748886,14.8787195 94.3593875,14.8351973 94.2715062,14.747316 C94.181951,14.6602717 94.1384288,14.5456075 94.1384288,14.4024866 L94.1384288,14.3480839 C94.1384288,14.3346925 94.1409397,14.3154423 94.1442876,14.2894964" fill="#FFFFFF"></path>
                    <path d="M101.374825,14.3413882 L101.374825,10.6947335 C101.374825,10.3105667 101.547239,10.1189018 101.892069,10.1189018 L103.537541,10.1189018 C103.673966,10.1189018 103.78612,10.1607501 103.874001,10.2452835 C103.963556,10.32898 104.007915,10.4386223 104.007915,10.5750475 C104.007915,10.706451 103.961882,10.8160934 103.870653,10.9023007 C103.780261,10.9885081 103.668945,11.0311932 103.537541,11.0311932 L102.369139,11.0311932 L102.369139,11.9995613 L103.456356,11.9995613 C103.603661,11.9995613 103.721673,12.0397356 103.809555,12.1200842 C103.898273,12.1995958 103.941795,12.313423 103.941795,12.4598918 C103.941795,12.596317 103.896599,12.7059594 103.802859,12.7904928 C103.709956,12.8741893 103.594455,12.9160375 103.456356,12.9160375 L102.369139,12.9160375 L102.369139,13.9237429 L103.596129,13.9237429 C103.734228,13.9237429 103.847218,13.9655911 103.936773,14.0492875 C104.024655,14.133821 104.069014,14.2451373 104.069014,14.3832364 C104.069014,14.5171508 104.023818,14.6267931 103.933425,14.7121635 C103.842196,14.7975339 103.730043,14.8402191 103.596129,14.8402191 L101.88621,14.8402191 C101.739741,14.8402191 101.617544,14.7933491 101.520456,14.700446 C101.423369,14.6075429 101.374825,14.487857 101.374825,14.3413882" fill="#FFFFFF"></path>
                    <path d="M108.20613,12.7126551 L106.486167,14.5682056 C106.294502,14.7757728 106.12711,14.8787195 105.984826,14.8787195 C105.835846,14.8787195 105.713649,14.841056 105.618235,14.7657292 C105.512778,14.6811958 105.460049,14.5673686 105.460049,14.4225738 C105.460049,14.2844746 105.554626,14.1162447 105.745454,13.9170471 L107.277099,12.3201187 L106.024163,11.0864329 C105.807389,10.8746809 105.699421,10.6980813 105.699421,10.5557974 C105.699421,10.4176982 105.746291,10.303871 105.839194,10.2134788 C105.93126,10.1239236 106.048435,10.0795645 106.189045,10.0795645 C106.328818,10.0795645 106.456874,10.1406629 106.574049,10.2636967 L108.20613,11.9995613 L108.20613,10.5683518 C108.20613,10.4193721 108.251326,10.3005232 108.341718,10.2118049 C108.432947,10.1239236 108.552633,10.0795645 108.701613,10.0795645 C108.853103,10.0795645 108.973626,10.1239236 109.064855,10.2118049 C109.155247,10.3005232 109.200444,10.4193721 109.200444,10.5683518 L109.200444,11.9995613 L110.832524,10.2636967 C110.9497,10.1406629 111.077755,10.0795645 111.218365,10.0795645 C111.353953,10.0795645 111.469455,10.1239236 111.564868,10.2118049 C111.659445,10.3005232 111.707152,10.4151873 111.707152,10.5557974 C111.707152,10.6980813 111.599184,10.8746809 111.383247,11.0864329 L110.130311,12.3201187 L111.661956,13.9170471 C111.847763,14.1112229 111.939829,14.2794528 111.939829,14.4225738 C111.939829,14.5690426 111.889611,14.6837067 111.787501,14.7657292 C111.694598,14.841056 111.573238,14.8787195 111.421748,14.8787195 C111.276953,14.8787195 111.108723,14.7757728 110.916221,14.5682056 L109.200444,12.7126551 L109.200444,14.4024866 C109.200444,14.5430967 109.152737,14.6577608 109.056486,14.7456421 C108.961072,14.8343603 108.842223,14.8787195 108.701613,14.8787195 C108.556818,14.8787195 108.438806,14.8351973 108.345066,14.747316 C108.253,14.6602717 108.20613,14.5456075 108.20613,14.4024866 L108.20613,12.7126551" fill="#FFFFFF"></path>
                    <path d="M114.885944,13.9170471 L116.19663,13.9170471 L116.19663,10.9926929 L115.04413,10.9926929 L115.037435,12.6959158 C115.037435,13.1922358 114.987217,13.5998376 114.885944,13.9170471 Z M117.194292,13.9170471 C117.503132,13.9362973 117.657134,14.109549 117.657134,14.4351282 L117.657134,15.7499996 C117.657134,15.9031641 117.612775,16.0270349 117.523219,16.1224488 C117.433664,16.2170258 117.312304,16.2647328 117.158303,16.2647328 C117.007649,16.2647328 116.887126,16.2170258 116.797571,16.1224488 C116.708016,16.0270349 116.663657,15.9031641 116.663657,15.7499996 L116.663657,14.8335234 L114.24734,14.8335234 L114.24734,15.7499996 C114.24734,15.9031641 114.202144,16.0270349 114.113426,16.1224488 C114.023033,16.2170258 113.903348,16.2647328 113.751857,16.2647328 C113.599529,16.2647328 113.477333,16.2170258 113.387777,16.1224488 C113.298222,16.0270349 113.253026,15.9031641 113.253026,15.7499996 L113.253026,14.4351282 C113.253026,14.2024521 113.345929,14.0459397 113.531735,13.9655911 C113.546801,13.9505257 113.61041,13.9296016 113.722563,13.9044927 C113.949381,13.85009 114.062371,13.5563154 114.062371,13.023169 L114.062371,12.9972231 L114.050653,10.5942977 C114.050653,10.4386223 114.093338,10.3147516 114.18122,10.2201746 C114.268264,10.1264345 114.390461,10.0795645 114.545299,10.0795645 L116.696298,10.0795645 C117.027736,10.0795645 117.194292,10.2511423 117.194292,10.5942977 L117.194292,13.9170471 L117.194292,13.9170471 Z" fill="#FFFFFF"></path>
                    <path d="M119.415596,13.9655911 C119.526076,13.8643184 119.623164,13.8132635 119.70686,13.8132635 L119.736154,13.8132635 C119.813154,13.826655 119.88597,13.8333507 119.952928,13.8333507 C120.196484,13.8333507 120.367225,13.7002733 120.46515,13.4349555 L119.039799,10.801865 C118.998788,10.7265381 118.977864,10.6503744 118.977864,10.5750475 C118.977864,10.5532865 118.980375,10.5248297 118.98456,10.4905141 C119.000462,10.3699912 119.05068,10.2695555 119.138561,10.1900438 C119.225605,10.1096952 119.330226,10.0703579 119.451586,10.0703579 C119.47251,10.0703579 119.495945,10.0728688 119.522728,10.0795645 C119.699327,10.1013256 119.82822,10.1841851 119.907731,10.32898 L120.989927,12.3008685 L121.889664,10.3415344 C121.97336,10.1607501 122.129035,10.0703579 122.355853,10.0703579 C122.470517,10.0703579 122.570116,10.1071843 122.655486,10.1833481 C122.74002,10.2586749 122.792748,10.3532519 122.811999,10.4679161 C122.81702,10.4921881 122.818694,10.5231557 122.818694,10.5616561 C122.818694,10.6461895 122.804466,10.7198424 122.773498,10.7826148 L121.844468,12.738601 C121.524747,13.4115205 121.337267,13.7965242 121.280353,13.8911012 C120.994112,14.3832364 120.712891,14.677848 120.438367,14.7757728 C120.304453,14.8226428 120.163006,14.8469148 120.014863,14.8469148 C119.619816,14.8469148 119.385466,14.6820328 119.311813,14.3539427 C119.307628,14.3196271 119.305117,14.2878225 119.305117,14.2568548 C119.305117,14.132147 119.341943,14.0350591 119.415596,13.9655911" fill="#FFFFFF"></path>
                    <path d="M124.297611,14.3639862 L124.297611,10.5942977 C124.297611,10.2511423 124.46333,10.0795645 124.795605,10.0795645 C125.126206,10.0795645 125.291088,10.2511423 125.291088,10.5942977 L125.291088,11.9995613 L127.374293,11.9995613 L127.374293,10.5942977 C127.374293,10.2511423 127.540012,10.0795645 127.872286,10.0795645 C128.204561,10.0795645 128.371117,10.2511423 128.371117,10.5942977 L128.371117,14.3639862 C128.371117,14.5171508 128.325921,14.6410215 128.236366,14.7364355 C128.146811,14.8310125 128.025451,14.8787195 127.872286,14.8787195 C127.719122,14.8787195 127.597762,14.8310125 127.508207,14.7364355 C127.417815,14.6410215 127.374293,14.5171508 127.374293,14.3639862 L127.374293,12.9160375 L125.291088,12.9160375 L125.291088,14.3639862 C125.291088,14.5171508 125.246729,14.6410215 125.156336,14.7364355 C125.067618,14.8310125 124.947095,14.8787195 124.795605,14.8787195 C124.64244,14.8787195 124.52108,14.8310125 124.431525,14.7364355 C124.34197,14.6410215 124.297611,14.5171508 124.297611,14.3639862" fill="#FFFFFF"></path>
                    <path d="M132.191024,11.0738784 L131.560789,12.9972231 L132.819584,12.9972231 L132.204415,11.0738784 L132.191024,11.0738784 Z M130.154689,14.1957564 L131.48881,10.588439 C131.625236,10.2210115 131.86126,10.0368793 132.197719,10.0368793 C132.538364,10.0368793 132.776062,10.2210115 132.907465,10.588439 L134.209782,14.1957564 C134.244098,14.2903333 134.260837,14.3723559 134.260837,14.4418239 C134.260837,14.5690426 134.215641,14.6736631 134.125249,14.7556857 C134.034857,14.8377082 133.927725,14.8787195 133.803855,14.8787195 C133.553602,14.8787195 133.392068,14.7640553 133.318415,14.535564 L133.120891,13.9103514 L131.275384,13.9103514 L131.077024,14.5288683 C131.003371,14.7623814 130.844348,14.8787195 130.59828,14.8787195 C130.464366,14.8787195 130.348865,14.8343603 130.253451,14.7456421 C130.1572,14.6577608 130.109493,14.5472815 130.109493,14.415878 C130.109493,14.394117 130.124558,14.321301 130.154689,14.1957564 L130.154689,14.1957564 Z" fill="#FFFFFF"></path>
                    <path d="M136.939961,10.9926929 L136.939961,12.3979564 L137.615391,12.3979564 C137.820448,12.3979564 137.984493,12.3326732 138.110037,12.2021067 C138.234745,12.0715402 138.29668,11.9024734 138.29668,11.6957431 C138.29668,11.4906868 138.233908,11.3224569 138.108363,11.1902165 C137.981982,11.0588131 137.817937,10.9926929 137.615391,10.9926929 L136.939961,10.9926929 Z M135.946484,14.3639862 L135.946484,10.636146 C135.946484,10.4771227 135.99168,10.3499041 136.083746,10.257838 C136.174975,10.1649349 136.301357,10.1189018 136.46038,10.1189018 L137.634641,10.1189018 C138.133472,10.1189018 138.536889,10.2620228 138.84824,10.5491016 C139.169634,10.8445501 139.330332,11.2295539 139.330332,11.7016019 C139.330332,12.0388986 139.239939,12.337695 139.059992,12.597154 C138.880882,12.85745 138.63314,13.045767 138.318441,13.1621051 C138.113385,13.2382689 137.899122,13.2759323 137.673979,13.2759323 L136.939961,13.2759323 L136.939961,14.3639862 C136.939961,14.5171508 136.895602,14.6410215 136.806046,14.7364355 C136.716491,14.8310125 136.595131,14.8787195 136.441967,14.8787195 C136.287965,14.8787195 136.167442,14.8301755 136.078724,14.7330876 C135.990006,14.6359997 135.946484,14.5129659 135.946484,14.3639862 L135.946484,14.3639862 Z" fill="#FFFFFF"></path>
                    <path d="M143.12764,14.0049284 C143.535242,14.0049284 143.851614,13.8450682 144.076758,13.5253477 C144.275118,13.2424537 144.37388,12.8942764 144.37388,12.479142 C144.37388,11.8037116 144.140367,11.3375223 143.67083,11.0805742 C143.518502,10.9960407 143.336881,10.9541925 143.12764,10.9541925 C142.72506,10.9541925 142.408687,11.1148897 142.178522,11.4362841 C141.980162,11.7149933 141.880563,12.0623336 141.880563,12.479142 C141.880563,12.9093418 141.984346,13.2625408 142.191914,13.54125 C142.420405,13.85009 142.731756,14.0049284 143.12764,14.0049284 Z M143.12764,14.9205677 C142.448862,14.9205677 141.893954,14.677011 141.462917,14.1890606 C141.051968,13.7270562 140.846911,13.1570833 140.846911,12.479142 C140.846911,11.7794396 141.058664,11.1977492 141.482168,10.7332339 C141.905672,10.2695555 142.453884,10.0368793 143.12764,10.0368793 C143.794701,10.0368793 144.34626,10.280436 144.781482,10.7658755 C145.200801,11.2320647 145.410042,11.8037116 145.410042,12.479142 C145.410042,13.1654529 145.202475,13.7396107 144.788178,14.2024521 C144.360489,14.6811958 143.807255,14.9205677 143.12764,14.9205677 L143.12764,14.9205677 Z" fill="#FFFFFF"></path>
                    <path d="M148.254048,13.9170471 L149.564735,13.9170471 L149.564735,10.9926929 L148.412234,10.9926929 L148.405539,12.6959158 C148.405539,13.1922358 148.355321,13.5998376 148.254048,13.9170471 Z M150.563233,13.9170471 C150.871236,13.9362973 151.025238,14.109549 151.025238,14.4351282 L151.025238,15.7499996 C151.025238,15.9031641 150.981716,16.0270349 150.891323,16.1224488 C150.801768,16.2170258 150.680408,16.2647328 150.527244,16.2647328 C150.375753,16.2647328 150.25523,16.2170258 150.165675,16.1224488 C150.076957,16.0270349 150.031761,15.9031641 150.031761,15.7499996 L150.031761,14.8335234 L147.615444,14.8335234 L147.615444,15.7499996 C147.615444,15.9031641 147.570248,16.0270349 147.48153,16.1224488 C147.391975,16.2170258 147.271452,16.2647328 147.119961,16.2647328 C146.967634,16.2647328 146.845437,16.2170258 146.755881,16.1224488 C146.666326,16.0270349 146.621967,15.9031641 146.621967,15.7499996 L146.621967,14.4351282 C146.621967,14.2024521 146.714033,14.0459397 146.900676,13.9655911 C146.914905,13.9505257 146.978514,13.9296016 147.090667,13.9044927 C147.318322,13.85009 147.430475,13.5563154 147.430475,13.023169 L147.430475,12.9972231 L147.418757,10.5942977 C147.418757,10.4386223 147.46228,10.3147516 147.549324,10.2201746 C147.637205,10.1264345 147.758565,10.0795645 147.91424,10.0795645 L150.064402,10.0795645 C150.39584,10.0795645 150.563233,10.2511423 150.563233,10.5942977 L150.563233,13.9170471 L150.563233,13.9170471 Z" fill="#FFFFFF"></path>
                    <path d="M152.618818,14.3639862 L152.618818,10.5942977 C152.618818,10.2511423 152.784537,10.0795645 153.116812,10.0795645 C153.447413,10.0795645 153.612295,10.2511423 153.612295,10.5942977 L153.612295,11.9995613 L155.694663,11.9995613 L155.694663,10.5942977 C155.694663,10.2511423 155.861219,10.0795645 156.193494,10.0795645 C156.525769,10.0795645 156.692325,10.2511423 156.692325,10.5942977 L156.692325,14.3639862 C156.692325,14.5171508 156.647129,14.6410215 156.557574,14.7364355 C156.468019,14.8310125 156.346659,14.8787195 156.193494,14.8787195 C156.04033,14.8787195 155.91897,14.8310125 155.829415,14.7364355 C155.739022,14.6410215 155.694663,14.5171508 155.694663,14.3639862 L155.694663,12.9160375 L153.612295,12.9160375 L153.612295,14.3639862 C153.612295,14.5171508 153.567099,14.6410215 153.477544,14.7364355 C153.388826,14.8310125 153.268303,14.8787195 153.116812,14.8787195 C152.963648,14.8787195 152.842288,14.8310125 152.752733,14.7364355 C152.662341,14.6410215 152.618818,14.5171508 152.618818,14.3639862" fill="#FFFFFF"></path>
                    <path d="M162.506718,14.7330876 C162.598784,14.8301755 162.719307,14.8787195 162.866613,14.8787195 C163.01894,14.8787195 163.141137,14.8310125 163.229855,14.7364355 C163.320248,14.6410215 163.365444,14.5171508 163.365444,14.3639862 L163.365444,10.5942977 C163.365444,10.2511423 163.198051,10.0795645 162.866613,10.0795645 C162.715122,10.0795645 162.594599,10.1272715 162.50337,10.2218485 C162.412978,10.3172625 162.367782,10.4411332 162.367782,10.5942977 L162.367782,14.3639862 C162.367782,14.5129659 162.413815,14.6359997 162.506718,14.7330876 Z M160.200881,13.9655911 C160.403426,13.9655911 160.569145,13.8994709 160.69469,13.7680674 C160.821071,13.636664 160.884681,13.4684341 160.884681,13.2625408 C160.884681,13.0574845 160.821071,12.8892546 160.696364,12.7561773 C160.571656,12.6230999 160.405937,12.5569797 160.200881,12.5569797 L159.524613,12.5569797 L159.524613,13.9655911 L160.200881,13.9655911 Z M159.025782,10.0795645 C159.35722,10.0795645 159.524613,10.2511423 159.524613,10.5942977 L159.524613,11.6823517 L160.259468,11.6823517 C160.494655,11.6823517 160.709755,11.7183412 160.903931,11.7894832 C161.22114,11.9058212 161.469719,12.0949752 161.648829,12.3561082 C161.82794,12.6172411 161.917495,12.9177114 161.917495,13.2566821 C161.917495,13.7354258 161.752613,14.1221035 161.422012,14.415878 C161.106476,14.6987721 160.706407,14.8402191 160.220968,14.8402191 L159.044196,14.8402191 C158.885172,14.8402191 158.759628,14.7933491 158.667561,14.700446 C158.576332,14.6075429 158.529462,14.4819982 158.529462,14.322138 L158.529462,10.5942977 C158.529462,10.2511423 158.694344,10.0795645 159.025782,10.0795645 L159.025782,10.0795645 Z" fill="#FFFFFF"></path>
                    <path d="M167.998043,9.91719338 C167.777084,10.0770536 167.51344,10.1574022 167.203763,10.1574022 L167.149361,10.1574022 C166.827129,10.1532174 166.557627,10.067847 166.339179,9.90129106 C166.097296,9.71548492 165.97761,9.4677434 165.97761,9.15639258 C165.97761,9.02331521 166.022806,8.90948802 166.114872,8.81658495 C166.206102,8.72368188 166.319092,8.67681187 166.453006,8.67681187 C166.58692,8.67681187 166.699911,8.72368188 166.792814,8.81658495 C166.886554,8.90948802 166.93175,9.02331521 166.93175,9.15639258 C166.93175,9.2384151 167.021305,9.2811003 167.197905,9.28277423 L167.210459,9.28277423 C167.346884,9.28277423 167.421374,9.240926 167.434766,9.15639258 C167.434766,9.02331521 167.479962,8.90948802 167.573702,8.81658495 C167.665768,8.72368188 167.779595,8.67681187 167.913509,8.67681187 C168.047424,8.67681187 168.160414,8.72368188 168.251643,8.81658495 C168.343709,8.90948802 168.388905,9.02331521 168.388905,9.15639258 C168.388905,9.47443912 168.258339,9.72720242 167.998043,9.91719338 Z M169.064336,14.7364355 C168.975617,14.8310125 168.85342,14.8787195 168.701093,14.8787195 C168.549602,14.8787195 168.428242,14.8310125 168.339524,14.7364355 C168.249132,14.6410215 168.204773,14.5171508 168.204773,14.3639862 L168.204773,11.8899189 L168.192218,11.8899189 L166.086416,14.6619456 C166.046241,14.7155114 165.982632,14.7657292 165.897262,14.8109253 C165.811891,14.8561214 165.736564,14.8787195 165.66877,14.8787195 C165.518117,14.8787195 165.397594,14.8310125 165.308038,14.7364355 C165.218483,14.6410215 165.174124,14.5171508 165.174124,14.3639862 L165.174124,10.5942977 C165.174124,10.2511423 165.339006,10.0795645 165.66877,10.0795645 C166.001882,10.0795645 166.167601,10.2511423 166.167601,10.5942977 L166.167601,13.1010067 L166.180993,13.1010067 L168.282611,10.2963383 C168.390579,10.1515435 168.529515,10.0795645 168.701093,10.0795645 C169.032531,10.0795645 169.199087,10.2511423 169.199087,10.5942977 L169.199087,14.3639862 C169.199087,14.5171508 169.153891,14.6410215 169.064336,14.7364355 L169.064336,14.7364355 Z" fill="#FFFFFF"></path>
                    <path d="M97.3699491,21.0212026 L98.0437056,21.0212026 C98.2512728,21.0212026 98.4169918,20.9550824 98.5408625,20.8245159 C98.6647333,20.6939494 98.7266687,20.5248826 98.7266687,20.3181523 C98.7266687,20.1105851 98.6647333,19.9415182 98.5408625,19.8109518 C98.4169918,19.6803853 98.2512728,19.615102 98.0437056,19.615102 L97.3699491,19.615102 L97.3699491,21.0212026 Z M95.6960199,19.615102 C95.4951484,19.615102 95.3302664,19.6812222 95.2038847,19.8142996 C95.0766661,19.947377 95.0130568,20.1147699 95.0130568,20.3181523 C95.0130568,20.5206977 95.0766661,20.6889276 95.2038847,20.821168 C95.3302664,20.9542454 95.4951484,21.0212026 95.6960199,21.0212026 L96.3731243,21.0212026 L96.3731243,19.615102 L95.6960199,19.615102 Z M96.3731243,21.8949936 L95.6382694,21.8949936 C95.4131259,21.8949936 95.2005369,21.8581671 94.9996654,21.7853512 C94.6799449,21.6681762 94.4296925,21.4806961 94.2497451,21.222911 C94.0697977,20.9651259 93.9794056,20.6654926 93.9794056,20.3240111 C93.9794056,19.8427564 94.1434506,19.4552418 94.4715407,19.1614672 C94.7870764,18.8810841 95.1879824,18.7404741 95.6759328,18.7404741 L96.3731243,18.7404741 L96.3731243,18.552994 C96.3731243,18.2098385 96.5388433,18.0382608 96.8711182,18.0382608 C97.2042301,18.0382608 97.3699491,18.2098385 97.3699491,18.552994 L97.3699491,18.7404741 L98.0663036,18.7404741 C98.5500692,18.7404741 98.9509752,18.8819211 99.2673478,19.1648151 C99.5979488,19.4585897 99.7628308,19.8452673 99.7628308,20.3240111 C99.7628308,20.7927112 99.6038076,21.1743671 99.2840871,21.4673047 C98.9735732,21.7527096 98.5801999,21.8949936 98.105641,21.8949936 L97.3699491,21.8949936 L97.3699491,22.3226825 C97.3699491,22.475847 97.324753,22.5997178 97.2360348,22.6951317 C97.1456426,22.7897087 97.0251197,22.8374157 96.8711182,22.8374157 C96.7673346,22.8374157 96.6727576,22.8106328 96.5857133,22.7562301 C96.4936472,22.7001535 96.4367336,22.6239897 96.4141355,22.5260649 C96.3907005,22.4206073 96.3764721,22.3528132 96.3731243,22.3226825 L96.3731243,21.8949936 L96.3731243,21.8949936 Z" fill="#FFFFFF"></path>
                    <path d="M103.59027,21.9627877 C103.997872,21.9627877 104.314244,21.8037644 104.538551,21.484044 C104.737748,21.2011499 104.83651,20.8521357 104.83651,20.4378382 C104.83651,19.7624078 104.602997,19.2953816 104.13346,19.0384334 C103.980295,18.954737 103.799511,18.9120518 103.59027,18.9120518 C103.18769,18.9120518 102.871317,19.073586 102.641152,19.3949804 C102.441954,19.6736896 102.342356,20.0210299 102.342356,20.4378382 C102.342356,20.8672011 102.446139,21.2212371 102.653707,21.4999463 C102.883035,21.8087862 103.194386,21.9627877 103.59027,21.9627877 Z M103.59027,22.8792639 C102.911492,22.8792639 102.356584,22.6357072 101.92471,22.1477569 C101.514598,21.6857524 101.309541,21.1157796 101.309541,20.4378382 C101.309541,19.7381358 101.521293,19.1564455 101.944798,18.6919301 C102.368302,18.2282517 102.916513,17.9955756 103.59027,17.9955756 C104.256494,17.9955756 104.80889,18.2391323 105.244112,18.7245717 C105.663431,19.190761 105.872672,19.7624078 105.872672,20.4378382 C105.872672,21.1241492 105.665105,21.6983069 105.250808,22.1603114 C104.823119,22.6398921 104.269885,22.8792639 103.59027,22.8792639 L103.59027,22.8792639 Z" fill="#FFFFFF"></path>
                    <path d="M108.623775,18.9513891 L108.623775,20.3566527 L109.299205,20.3566527 C109.504262,20.3566527 109.668307,20.2913694 109.793851,20.160803 C109.918559,20.0302365 109.980495,19.8611696 109.980495,19.6544394 C109.980495,19.4493831 109.917722,19.2803162 109.792177,19.1489128 C109.665796,19.0166724 109.501751,18.9513891 109.299205,18.9513891 L108.623775,18.9513891 Z M107.630298,22.3226825 L107.630298,18.5948422 C107.630298,18.4358189 107.675494,18.3086003 107.76756,18.2156973 C107.858789,18.1236312 107.985171,18.0767611 108.144194,18.0767611 L109.318456,18.0767611 C109.817286,18.0767611 110.220703,18.220719 110.532054,18.5077979 C110.853449,18.8032464 111.014146,19.1882501 111.014146,19.6602981 C111.014146,19.9975949 110.923754,20.2955543 110.743806,20.5558502 C110.564696,20.8161462 110.316954,21.0044633 110.002256,21.1208013 C109.797199,21.1961282 109.582936,21.2346285 109.357793,21.2346285 L108.623775,21.2346285 L108.623775,22.3226825 C108.623775,22.475847 108.578579,22.5997178 108.489861,22.6951317 C108.400305,22.7897087 108.278946,22.8374157 108.125781,22.8374157 C107.97178,22.8374157 107.851257,22.7888718 107.762538,22.6917839 C107.67382,22.594696 107.630298,22.4716622 107.630298,22.3226825 L107.630298,22.3226825 Z" fill="#FFFFFF"></path>
                    <path d="M112.740804,21.9242873 C112.851283,21.8230146 112.948371,21.7719598 113.032904,21.7719598 L113.061361,21.7719598 C113.139199,21.7853512 113.212015,21.79121 113.278972,21.79121 C113.522529,21.79121 113.693269,21.6589696 113.790357,21.3928148 L112.365007,18.7605612 C112.323995,18.6843974 112.303908,18.6090706 112.303908,18.5337438 C112.303908,18.5119827 112.306419,18.4835259 112.310604,18.4492104 C112.325669,18.3286875 112.376724,18.2282517 112.463768,18.1479031 C112.55165,18.0683915 112.65627,18.0282172 112.776793,18.0282172 C112.798554,18.0282172 112.821989,18.031565 112.847935,18.0382608 C113.024535,18.0591849 113.153427,18.1428813 113.232939,18.2876762 L114.315134,20.2595648 L115.214871,18.3002307 C115.299404,18.1194463 115.454243,18.0282172 115.681897,18.0282172 C115.796561,18.0282172 115.89616,18.0658806 115.980694,18.1420444 C116.066064,18.2173712 116.117956,18.3119482 116.138043,18.4266123 C116.143065,18.4508843 116.144739,18.481852 116.144739,18.5203524 C116.144739,18.6048858 116.129673,18.6785387 116.099543,18.7404741 L115.169675,20.6964603 C114.850791,21.3702168 114.662474,21.7543835 114.606398,21.8497975 C114.319319,22.3419327 114.038099,22.6365442 113.764411,22.7336321 C113.630497,22.7813391 113.48905,22.8047741 113.34007,22.8047741 C112.945023,22.8047741 112.710673,22.640729 112.63702,22.3126389 C112.632835,22.2783234 112.630324,22.2456817 112.630324,22.215551 C112.630324,22.0900063 112.667151,21.9937554 112.740804,21.9242873" fill="#FFFFFF"></path>
                    <path d="M117.489741,22.2481926 L118.040463,18.5462983 C118.062225,18.4040143 118.139225,18.2818175 118.273977,18.1805447 C118.402869,18.0859677 118.542642,18.0382608 118.691622,18.0382608 C118.842276,18.0382608 118.979538,18.080946 119.102572,18.1671533 C119.225605,18.2541976 119.310139,18.3696987 119.354498,18.5136567 L120.20318,21.1408885 L120.216571,21.1408885 L121.064417,18.5136567 C121.11045,18.3696987 121.194983,18.2541976 121.31718,18.1671533 C121.441051,18.080946 121.578313,18.0382608 121.728129,18.0382608 C121.882131,18.0382608 122.021067,18.0842938 122.146612,18.1771969 C122.280526,18.2767957 122.357527,18.3998295 122.380125,18.5462983 L122.930011,22.2481926 C122.935032,22.2766494 122.936706,22.2950627 122.936706,22.3067802 L122.936706,22.3611829 C122.936706,22.5034668 122.892347,22.6189679 122.804466,22.7060123 C122.715748,22.7938935 122.59941,22.8374157 122.457963,22.8374157 C122.148286,22.8374157 121.975871,22.6825773 121.939045,22.3745743 L121.615976,19.6736896 L121.602585,19.6736896 L120.741348,22.4549229 C120.661,22.7101971 120.4844,22.8374157 120.209876,22.8374157 C119.936188,22.8374157 119.758752,22.7101971 119.678403,22.4549229 L118.818004,19.6736896 L118.804612,19.6736896 L118.478196,22.3745743 C118.44137,22.6825773 118.269792,22.8374157 117.962626,22.8374157 C117.820342,22.8374157 117.704841,22.7938935 117.616122,22.7060123 C117.527404,22.6189679 117.483045,22.5034668 117.483045,22.3611829 L117.483045,22.3067802 C117.483045,22.2933887 117.485556,22.2741385 117.489741,22.2481926" fill="#FFFFFF"></path>
                    <polyline fill="#FFFFFF" points="23.0650701 48.1790295 12.2330744 59.0126991 23.0650701 69.8446947 23.0650701 48.1790295"></polyline>
                    <polyline fill="#FFFFFF" points="12.1577476 34.6628883 22.9905802 23.8308927 12.1577476 12.9972231 12.1577476 34.6628883"></polyline>
                    <polyline fill="#FFFFFF" points="11.4798063 12.99806 0.64781059 23.8300557 11.4798063 34.6628883 11.4798063 12.99806"></polyline>
                    <polyline fill="#FFFFFF" points="23.1395599 24.7247708 12.3075642 35.5576035 23.1395599 46.3904361 23.1395599 24.7247708"></polyline>
                    <polyline fill="#FFFFFF" points="0.498830894 46.3904361 11.3316635 35.5576035 0.498830894 24.7247708 0.498830894 46.3904361"></polyline>
                    <polyline fill="#FFFFFF" points="12.1577476 58.1179839 22.9905802 47.2851513 12.1577476 36.4523186 12.1577476 58.1179839"></polyline>
                    <polyline fill="#FFFFFF" points="11.4798063 36.4523186 0.64781059 47.2851513 11.4798063 58.1179839 11.4798063 36.4523186"></polyline>
                    <polyline fill="#FFFFFF" points="0.573320742 69.8446947 11.4053164 59.0118621 0.573320742 48.1790295 0.573320742 69.8446947"></polyline>
                    <polyline fill="#FFFFFF" points="0.498830894 22.9361775 11.3316635 12.1025079 0.498830894 1.26967528 0.498830894 22.9361775"></polyline>
                    <polyline fill="#FFFFFF" points="22.6465878 70.4096458 11.8145921 59.5768132 0.980922495 70.4096458 22.6465878 70.4096458"></polyline>
                    <polyline fill="#FFFFFF" points="94.0756565 33.9740665 101.457684 33.9740665 101.457684 35.2889379 95.3922018 35.2889379 95.3922018 52.6835729 94.0756565 52.6835729 94.0756565 33.9740665"></polyline>
                    <polygon stroke="#FFFFFF" stroke-width="1.462" points="94.0756565 33.9740665 101.457684 33.9740665 101.457684 35.2889379 95.3922018 35.2889379 95.3922018 52.6835729 94.0756565 52.6835729"></polygon>
                    <path d="M115.334557,37.2214891 C115.334557,36.7921263 115.258393,36.4481338 115.106903,36.1886748 C114.954575,35.9300527 114.770443,35.7325291 114.55618,35.5986148 C114.341917,35.4630265 114.122632,35.37933 113.899163,35.3433406 C113.674019,35.3073511 113.482354,35.2889379 113.321657,35.2889379 L112.381746,35.2889379 C111.934807,35.2889379 111.518835,35.4462872 111.133832,35.758475 C110.748828,36.0714997 110.556326,36.5067213 110.556326,37.0607919 L110.556326,49.488879 C110.556326,49.9182419 110.63249,50.2630713 110.784817,50.5216933 C110.937145,50.7819893 111.12044,50.978676 111.33554,51.1117534 C111.549803,51.2473416 111.77411,51.331875 112.006786,51.3670276 C112.239462,51.403017 112.426942,51.4214303 112.570063,51.4214303 L113.535083,51.4214303 C113.96612,51.4214303 114.372885,51.2640809 114.757051,50.9510562 C115.142892,50.6380314 115.334557,50.2136904 115.334557,49.6763591 L115.334557,37.2214891 Z M113.321657,33.9740665 C114.341917,33.9740665 115.150425,34.269515 115.750528,34.859575 C116.349795,35.4496351 116.649428,36.2372187 116.649428,37.2214891 L116.649428,49.6763591 C116.649428,50.1417114 116.556525,50.5618676 116.368208,50.9376647 C116.179891,51.3142988 115.938008,51.6365302 115.643397,51.9035219 C115.347111,52.1721875 115.01651,52.3780808 114.64992,52.5220387 C114.283329,52.6643227 113.912554,52.7371386 113.535083,52.7371386 L112.570063,52.7371386 C111.549803,52.7371386 110.740458,52.4458749 110.140355,51.8641845 C109.541088,51.2824941 109.241455,50.4907256 109.241455,49.488879 L109.241455,37.0607919 C109.241455,36.5770264 109.336032,36.1485005 109.522675,35.7727034 C109.711829,35.3969063 109.952875,35.0755119 110.248323,34.8051723 C110.543772,34.5381806 110.879394,34.3314504 111.255192,34.1883294 C111.630989,34.0452085 112.006786,33.9740665 112.381746,33.9740665 L113.321657,33.9740665 L113.321657,33.9740665 Z" fill="#FFFFFF"></path>
                    <path d="M115.334557,37.2214891 C115.334557,36.7921263 115.258393,36.4481338 115.106903,36.1886748 C114.954575,35.9300527 114.770443,35.7325291 114.55618,35.5986148 C114.341917,35.4630265 114.122632,35.37933 113.899163,35.3433406 C113.674019,35.3073511 113.482354,35.2889379 113.321657,35.2889379 L112.381746,35.2889379 C111.934807,35.2889379 111.518835,35.4462872 111.133832,35.758475 C110.748828,36.0714997 110.556326,36.5067213 110.556326,37.0607919 L110.556326,49.488879 C110.556326,49.9182419 110.63249,50.2630713 110.784817,50.5216933 C110.937145,50.7819893 111.12044,50.978676 111.33554,51.1117534 C111.549803,51.2473416 111.77411,51.331875 112.006786,51.3670276 C112.239462,51.403017 112.426942,51.4214303 112.570063,51.4214303 L113.535083,51.4214303 C113.96612,51.4214303 114.372885,51.2640809 114.757051,50.9510562 C115.142892,50.6380314 115.334557,50.2136904 115.334557,49.6763591 L115.334557,37.2214891 Z M113.321657,33.9740665 C114.341917,33.9740665 115.150425,34.269515 115.750528,34.859575 C116.349795,35.4496351 116.649428,36.2372187 116.649428,37.2214891 L116.649428,49.6763591 C116.649428,50.1417114 116.556525,50.5618676 116.368208,50.9376647 C116.179891,51.3142988 115.938008,51.6365302 115.643397,51.9035219 C115.347111,52.1721875 115.01651,52.3780808 114.64992,52.5220387 C114.283329,52.6643227 113.912554,52.7371386 113.535083,52.7371386 L112.570063,52.7371386 C111.549803,52.7371386 110.740458,52.4458749 110.140355,51.8641845 C109.541088,51.2824941 109.241455,50.4907256 109.241455,49.488879 L109.241455,37.0607919 C109.241455,36.5770264 109.336032,36.1485005 109.522675,35.7727034 C109.711829,35.3969063 109.952875,35.0755119 110.248323,34.8051723 C110.543772,34.5381806 110.879394,34.3314504 111.255192,34.1883294 C111.630989,34.0452085 112.006786,33.9740665 112.381746,33.9740665 L113.321657,33.9740665 Z" stroke="#FFFFFF" stroke-width="1.462"></path>
                    <path d="M129.802327,43.9054883 C129.998177,43.9054883 130.213276,43.865314 130.445953,43.7849654 C130.677792,43.7046168 130.897913,43.5832569 131.103807,43.4217227 C131.3097,43.2610255 131.479604,43.0559692 131.614355,42.8048798 C131.747433,42.5546274 131.81439,42.2591789 131.81439,41.9185343 L131.81439,37.034009 C131.81439,36.4975147 131.623562,36.0723367 131.238558,35.759312 C130.853554,35.4462872 130.445953,35.2889379 130.01659,35.2889379 L127.091399,35.2889379 L127.091399,43.9054883 L129.802327,43.9054883 Z M133.130935,39.0745287 L133.130935,41.9185343 C133.130935,42.4382894 133.030499,42.8986199 132.83465,43.3020368 C132.637963,43.7046168 132.383526,44.0486092 132.069664,44.3348511 C131.756639,44.62193 131.399255,44.8412147 130.996675,44.9918683 C130.593258,45.1441959 130.1957,45.2211966 129.802327,45.2211966 L127.091399,45.2211966 L127.091399,52.7103557 L125.774853,52.7103557 L125.774853,33.9740665 L130.01659,33.9740665 C130.392387,33.9740665 130.763162,34.0452085 131.13059,34.1883294 C131.49718,34.3322873 131.828618,34.5381806 132.12323,34.8051723 C132.418678,35.0746749 132.660561,35.3969063 132.848878,35.7718664 C133.035521,36.1485005 133.130935,36.5686567 133.130935,37.034009 L133.130935,39.0745287 L133.130935,39.0745287 Z" fill="#FFFFFF"></path>
                    <path d="M129.802327,43.9054883 C129.998177,43.9054883 130.213276,43.865314 130.445953,43.7849654 C130.677792,43.7046168 130.897913,43.5832569 131.103807,43.4217227 C131.3097,43.2610255 131.479604,43.0559692 131.614355,42.8048798 C131.747433,42.5546274 131.81439,42.2591789 131.81439,41.9185343 L131.81439,37.034009 C131.81439,36.4975147 131.623562,36.0723367 131.238558,35.759312 C130.853554,35.4462872 130.445953,35.2889379 130.01659,35.2889379 L127.091399,35.2889379 L127.091399,43.9054883 L129.802327,43.9054883 Z M133.130935,39.0745287 L133.130935,41.9185343 C133.130935,42.4382894 133.030499,42.8986199 132.83465,43.3020368 C132.637963,43.7046168 132.383526,44.0486092 132.069664,44.3348511 C131.756639,44.62193 131.399255,44.8412147 130.996675,44.9918683 C130.593258,45.1441959 130.1957,45.2211966 129.802327,45.2211966 L127.091399,45.2211966 L127.091399,52.7103557 L125.774853,52.7103557 L125.774853,33.9740665 L130.01659,33.9740665 C130.392387,33.9740665 130.763162,34.0452085 131.13059,34.1883294 C131.49718,34.3322873 131.828618,34.5381806 132.12323,34.8051723 C132.418678,35.0746749 132.660561,35.3969063 132.848878,35.7718664 C133.035521,36.1485005 133.130935,36.5686567 133.130935,37.034009 L133.130935,39.0745287 Z" stroke="#FFFFFF" stroke-width="1.462"></path>
                    <path d="M148.349462,37.2214891 C148.349462,36.7921263 148.272461,36.4481338 148.120971,36.1886748 C147.968643,35.9300527 147.784511,35.7325291 147.570248,35.5986148 C147.356822,35.4630265 147.137537,35.37933 146.913231,35.3433406 C146.688087,35.3073511 146.497259,35.2889379 146.335725,35.2889379 L145.397488,35.2889379 C144.950549,35.2889379 144.532904,35.4462872 144.148737,35.758475 C143.76457,36.0714997 143.571231,36.5067213 143.571231,37.0607919 L143.571231,49.488879 C143.571231,49.9182419 143.647395,50.2630713 143.799723,50.5216933 C143.951213,50.7819893 144.134508,50.978676 144.349608,51.1117534 C144.564708,51.2473416 144.787341,51.331875 145.020854,51.3670276 C145.252693,51.403017 145.440173,51.4214303 145.583294,51.4214303 L146.550825,51.4214303 C146.979351,51.4214303 147.386953,51.2640809 147.771956,50.9510562 C148.156123,50.6380314 148.349462,50.2136904 148.349462,49.6763591 L148.349462,37.2214891 Z M146.335725,33.9740665 C147.356822,33.9740665 148.16533,34.269515 148.764596,34.859575 C149.363863,35.4496351 149.663496,36.2372187 149.663496,37.2214891 L149.663496,49.6763591 C149.663496,50.1417114 149.569756,50.5618676 149.382276,50.9376647 C149.193959,51.3142988 148.952914,51.6365302 148.657465,51.9035219 C148.362853,52.1721875 148.031416,52.3780808 147.664825,52.5220387 C147.296561,52.6643227 146.925785,52.7371386 146.550825,52.7371386 L145.583294,52.7371386 C144.564708,52.7371386 143.754526,52.4458749 143.154423,51.8641845 C142.554319,51.2824941 142.25636,50.4907256 142.25636,49.488879 L142.25636,37.0607919 C142.25636,36.5770264 142.349263,36.1485005 142.538417,35.7727034 C142.72506,35.3969063 142.966106,35.0755119 143.262391,34.8051723 C143.557003,34.5381806 143.892626,34.3314504 144.268423,34.1883294 C144.64422,34.0452085 145.020854,33.9740665 145.397488,33.9740665 L146.335725,33.9740665 L146.335725,33.9740665 Z" fill="#FFFFFF"></path>
                    <path d="M148.349462,37.2214891 C148.349462,36.7921263 148.272461,36.4481338 148.120971,36.1886748 C147.968643,35.9300527 147.784511,35.7325291 147.570248,35.5986148 C147.356822,35.4630265 147.137537,35.37933 146.913231,35.3433406 C146.688087,35.3073511 146.497259,35.2889379 146.335725,35.2889379 L145.397488,35.2889379 C144.950549,35.2889379 144.532904,35.4462872 144.148737,35.758475 C143.76457,36.0714997 143.571231,36.5067213 143.571231,37.0607919 L143.571231,49.488879 C143.571231,49.9182419 143.647395,50.2630713 143.799723,50.5216933 C143.951213,50.7819893 144.134508,50.978676 144.349608,51.1117534 C144.564708,51.2473416 144.787341,51.331875 145.020854,51.3670276 C145.252693,51.403017 145.440173,51.4214303 145.583294,51.4214303 L146.550825,51.4214303 C146.979351,51.4214303 147.386953,51.2640809 147.771956,50.9510562 C148.156123,50.6380314 148.349462,50.2136904 148.349462,49.6763591 L148.349462,37.2214891 Z M146.335725,33.9740665 C147.356822,33.9740665 148.16533,34.269515 148.764596,34.859575 C149.363863,35.4496351 149.663496,36.2372187 149.663496,37.2214891 L149.663496,49.6763591 C149.663496,50.1417114 149.569756,50.5618676 149.382276,50.9376647 C149.193959,51.3142988 148.952914,51.6365302 148.657465,51.9035219 C148.362853,52.1721875 148.031416,52.3780808 147.664825,52.5220387 C147.296561,52.6643227 146.925785,52.7371386 146.550825,52.7371386 L145.583294,52.7371386 C144.564708,52.7371386 143.754526,52.4458749 143.154423,51.8641845 C142.554319,51.2824941 142.25636,50.4907256 142.25636,49.488879 L142.25636,37.0607919 C142.25636,36.5770264 142.349263,36.1485005 142.538417,35.7727034 C142.72506,35.3969063 142.966106,35.0755119 143.262391,34.8051723 C143.557003,34.5381806 143.892626,34.3314504 144.268423,34.1883294 C144.64422,34.0452085 145.020854,33.9740665 145.397488,33.9740665 L146.335725,33.9740665 Z" stroke="#FFFFFF" stroke-width="1.462"></path>
                    <path d="M161.151672,49.1934305 C161.151672,49.5868039 161.106476,49.9759924 161.017758,50.3618331 C160.927366,50.7468368 160.784245,51.0983619 160.587558,51.4214303 L165.90312,51.4214303 L165.90312,35.2362091 L163.192192,35.2362091 C163.030658,35.2362091 162.838993,35.2537853 162.614686,35.2889379 C162.39038,35.3249273 162.171932,35.4102977 161.957669,35.5442121 C161.742569,35.6789634 161.558437,35.87565 161.406947,36.1342721 C161.254619,36.3945681 161.178455,36.7385605 161.178455,37.1687603 C161.160879,39.208443 161.151672,41.0598087 161.151672,42.7253682 L161.151672,49.1934305 Z M165.945806,54.7048423 L165.944132,52.7371386 L159.419993,52.7111927 L159.416645,54.7048423 L158.095915,54.7048423 L158.095915,51.4364956 L158.521093,51.4214303 L158.575495,51.4214303 C158.753769,51.4214303 158.92451,51.3544731 159.08437,51.2205588 C159.246741,51.0866444 159.381492,50.9108819 159.487787,50.6966189 C159.595755,50.481519 159.679452,50.2446581 159.743061,49.986036 C159.804996,49.72574 159.836801,49.4620962 159.836801,49.1934305 L159.836801,42.7253682 C159.836801,41.0598087 159.845171,39.208443 159.863584,37.1687603 C159.863584,36.18449 160.16238,35.3977433 160.762484,34.8060093 C161.362587,34.2151123 162.171932,33.9205008 163.192192,33.9205008 L167.217992,33.9205008 L167.217992,35.2362091 L167.212133,54.7048423 L165.945806,54.7048423 L165.945806,54.7048423 Z" fill="#FFFFFF"></path>
                    <path d="M161.151672,49.1934305 C161.151672,49.5868039 161.106476,49.9759924 161.017758,50.3618331 C160.927366,50.7468368 160.784245,51.0983619 160.587558,51.4214303 L165.90312,51.4214303 L165.90312,35.2362091 L163.192192,35.2362091 C163.030658,35.2362091 162.838993,35.2537853 162.614686,35.2889379 C162.39038,35.3249273 162.171932,35.4102977 161.957669,35.5442121 C161.742569,35.6789634 161.558437,35.87565 161.406947,36.1342721 C161.254619,36.3945681 161.178455,36.7385605 161.178455,37.1687603 C161.160879,39.208443 161.151672,41.0598087 161.151672,42.7253682 L161.151672,49.1934305 Z M165.945806,54.7048423 L165.944132,52.7371386 L159.419993,52.7111927 L159.416645,54.7048423 L158.095915,54.7048423 L158.095915,51.4364956 L158.521093,51.4214303 L158.575495,51.4214303 C158.753769,51.4214303 158.92451,51.3544731 159.08437,51.2205588 C159.246741,51.0866444 159.381492,50.9108819 159.487787,50.6966189 C159.595755,50.481519 159.679452,50.2446581 159.743061,49.986036 C159.804996,49.72574 159.836801,49.4620962 159.836801,49.1934305 L159.836801,42.7253682 C159.836801,41.0598087 159.845171,39.208443 159.863584,37.1687603 C159.863584,36.18449 160.16238,35.3977433 160.762484,34.8060093 C161.362587,34.2151123 162.171932,33.9205008 163.192192,33.9205008 L167.217992,33.9205008 L167.217992,35.2362091 L167.212133,54.7048423 L165.945806,54.7048423 Z" stroke="#FFFFFF" stroke-width="1.462"></path>
                    <path d="M97.6746042,60.8958694 C97.6746042,60.6355734 97.6285711,60.4271692 97.536505,60.2698199 C97.4444389,60.1133075 97.3322857,59.9919476 97.2025562,59.9107621 C97.0719897,59.8312504 96.9389123,59.7793586 96.8033241,59.7567606 C96.6677358,59.7341625 96.5505608,59.723282 96.4543098,59.723282 L95.8843369,59.723282 C95.6123235,59.723282 95.3603971,59.818696 95.126884,60.0086869 C94.8933709,60.1986779 94.7761958,60.4623217 94.7761958,60.7979445 L94.7761958,68.3356476 C94.7761958,68.5959436 94.8222289,68.8060217 94.915132,68.963371 C95.008035,69.1198834 95.1185144,69.2387324 95.2490808,69.3207549 C95.3788103,69.4027774 95.5143986,69.4538323 95.6566826,69.4764303 C95.7972926,69.4965175 95.9102829,69.5090719 95.9981641,69.5090719 L96.5832024,69.5090719 C96.8443353,69.5090719 97.0912399,69.413658 97.323916,69.22283 C97.5582661,69.0328391 97.6746042,68.775054 97.6746042,68.4503117 L97.6746042,60.8958694 Z M96.4543098,58.9264917 C97.0719897,58.9264917 97.5624509,59.1047652 97.9273675,59.462986 C98.2914471,59.8212069 98.4722315,60.2999506 98.4722315,60.8958694 L98.4722315,68.4503117 C98.4722315,68.7323688 98.4153179,68.98848 98.3006537,69.2152974 C98.1868265,69.4429517 98.0411947,69.6379645 97.8620843,69.8011726 C97.6838108,69.9652176 97.4821023,70.0890884 97.2594698,70.1752957 C97.0368372,70.2623401 96.8125307,70.3050253 96.5832024,70.3050253 L95.9981641,70.3050253 C95.3788103,70.3050253 94.8883491,70.1300997 94.5242695,69.7760636 C94.1610269,69.4253755 93.9794056,68.9432839 93.9794056,68.3356476 L93.9794056,60.7979445 C93.9794056,60.5050069 94.0363191,60.2447109 94.1501463,60.0170566 C94.2639735,59.7885652 94.4112793,59.5935525 94.5903897,59.4320183 C94.7686632,59.2679733 94.9728825,59.1432655 95.1996999,59.0562212 C95.4281913,58.9700139 95.6566826,58.9264917 95.8843369,58.9264917 L96.4543098,58.9264917 L96.4543098,58.9264917 Z" fill="#FFFFFF"></path>
                    <path d="M97.6746042,60.8958694 C97.6746042,60.6355734 97.6285711,60.4271692 97.536505,60.2698199 C97.4444389,60.1133075 97.3322857,59.9919476 97.2025562,59.9107621 C97.0719897,59.8312504 96.9389123,59.7793586 96.8033241,59.7567606 C96.6677358,59.7341625 96.5505608,59.723282 96.4543098,59.723282 L95.8843369,59.723282 C95.6123235,59.723282 95.3603971,59.818696 95.126884,60.0086869 C94.8933709,60.1986779 94.7761958,60.4623217 94.7761958,60.7979445 L94.7761958,68.3356476 C94.7761958,68.5959436 94.8222289,68.8060217 94.915132,68.963371 C95.008035,69.1198834 95.1185144,69.2387324 95.2490808,69.3207549 C95.3788103,69.4027774 95.5143986,69.4538323 95.6566826,69.4764303 C95.7972926,69.4965175 95.9102829,69.5090719 95.9981641,69.5090719 L96.5832024,69.5090719 C96.8443353,69.5090719 97.0912399,69.413658 97.323916,69.22283 C97.5582661,69.0328391 97.6746042,68.775054 97.6746042,68.4503117 L97.6746042,60.8958694 Z M96.4543098,58.9264917 C97.0719897,58.9264917 97.5624509,59.1047652 97.9273675,59.462986 C98.2914471,59.8212069 98.4722315,60.2999506 98.4722315,60.8958694 L98.4722315,68.4503117 C98.4722315,68.7323688 98.4153179,68.98848 98.3006537,69.2152974 C98.1868265,69.4429517 98.0411947,69.6379645 97.8620843,69.8011726 C97.6838108,69.9652176 97.4821023,70.0890884 97.2594698,70.1752957 C97.0368372,70.2623401 96.8125307,70.3050253 96.5832024,70.3050253 L95.9981641,70.3050253 C95.3788103,70.3050253 94.8883491,70.1300997 94.5242695,69.7760636 C94.1610269,69.4253755 93.9794056,68.9432839 93.9794056,68.3356476 L93.9794056,60.7979445 C93.9794056,60.5050069 94.0363191,60.2447109 94.1501463,60.0170566 C94.2639735,59.7885652 94.4112793,59.5935525 94.5903897,59.4320183 C94.7686632,59.2679733 94.9728825,59.1432655 95.1996999,59.0562212 C95.4281913,58.9700139 95.6566826,58.9264917 95.8843369,58.9264917 L96.4543098,58.9264917 Z" stroke="#FFFFFF" stroke-width="0.731"></path>
                    <path d="M103.340017,69.4923326 C103.600313,69.4923326 103.847218,69.3977556 104.079894,69.2077647 C104.314244,69.0177737 104.430582,68.7532929 104.430582,68.4185071 L104.430582,65.4221739 C104.430582,65.2162806 104.390408,65.0371702 104.309222,64.8848426 C104.2272,64.733352 104.123416,64.6086443 103.999546,64.5107194 C103.874001,64.4119576 103.740924,64.3399787 103.600313,64.2905977 C103.458866,64.2420538 103.324115,64.2169449 103.193549,64.2169449 L101.533848,64.2169449 L101.533848,69.4764303 C101.738904,69.4764303 101.996689,69.4789412 102.305529,69.4848 C102.615206,69.4898218 102.960036,69.4923326 103.340017,69.4923326 M105.229047,67.1806365 L105.229047,68.4185071 C105.229047,68.7106077 105.170459,68.9709037 105.057469,69.1985581 C104.944479,69.4270494 104.797173,69.6220622 104.617225,69.7852703 C104.437278,69.9476414 104.23808,70.0723491 104.015448,70.1593934 C103.792815,70.2464377 103.567672,70.2899599 103.340017,70.2899599 C102.742425,70.2899599 102.232713,70.287449 101.810046,70.2807533 C101.386542,70.2765685 101.169768,70.2740576 101.158051,70.2740576 L100.751286,70.2740576 L100.751286,58.9256547 L104.821445,58.9256547 L104.821445,59.724119 L101.533848,59.724119 L101.533848,63.4193176 L103.193549,63.4193176 C103.432084,63.4193176 103.673966,63.4661876 103.91836,63.5582537 C104.161917,63.6503198 104.382038,63.7825602 104.577051,63.9574858 C104.772901,64.1299005 104.929413,64.3424895 105.049099,64.592742 C105.167948,64.8413204 105.229047,65.1175188 105.229047,65.4221739 L105.229047,67.1806365" fill="#FFFFFF"></path>
                    <path d="M103.340017,69.4923326 C103.600313,69.4923326 103.847218,69.3977556 104.079894,69.2077647 C104.314244,69.0177737 104.430582,68.7532929 104.430582,68.4185071 L104.430582,65.4221739 C104.430582,65.2162806 104.390408,65.0371702 104.309222,64.8848426 C104.2272,64.733352 104.123416,64.6086443 103.999546,64.5107194 C103.874001,64.4119576 103.740924,64.3399787 103.600313,64.2905977 C103.458866,64.2420538 103.324115,64.2169449 103.193549,64.2169449 L101.533848,64.2169449 L101.533848,69.4764303 C101.738904,69.4764303 101.996689,69.4789412 102.305529,69.4848 C102.615206,69.4898218 102.960036,69.4923326 103.340017,69.4923326 Z M105.229047,67.1806365 L105.229047,68.4185071 C105.229047,68.7106077 105.170459,68.9709037 105.057469,69.1985581 C104.944479,69.4270494 104.797173,69.6220622 104.617225,69.7852703 C104.437278,69.9476414 104.23808,70.0723491 104.015448,70.1593934 C103.792815,70.2464377 103.567672,70.2899599 103.340017,70.2899599 C102.742425,70.2899599 102.232713,70.287449 101.810046,70.2807533 C101.386542,70.2765685 101.169768,70.2740576 101.158051,70.2740576 L100.751286,70.2740576 L100.751286,58.9256547 L104.821445,58.9256547 L104.821445,59.724119 L101.533848,59.724119 L101.533848,63.4193176 L103.193549,63.4193176 C103.432084,63.4193176 103.673966,63.4661876 103.91836,63.5582537 C104.161917,63.6503198 104.382038,63.7825602 104.577051,63.9574858 C104.772901,64.1299005 104.929413,64.3424895 105.049099,64.592742 C105.167948,64.8413204 105.229047,65.1175188 105.229047,65.4221739 L105.229047,67.1806365 Z" stroke="#FFFFFF" stroke-width="0.731"></path>
                    <path d="M109.949527,64.9492889 C110.069213,64.9492889 110.198942,64.9258539 110.339552,64.876473 C110.480162,64.827092 110.614077,64.7542761 110.739621,64.6580252 C110.863492,64.5601003 110.966439,64.4345557 111.047624,64.2813911 C111.12881,64.1299005 111.170658,63.9516271 111.170658,63.7440599 L111.170658,60.7820422 C111.170658,60.456463 111.053483,60.1986779 110.81997,60.0086869 C110.586457,59.818696 110.339552,59.724119 110.079256,59.724119 L108.304891,59.724119 L108.304891,64.9492889 L109.949527,64.9492889 Z M111.967448,62.0190759 L111.967448,63.7440599 C111.967448,64.0595955 111.908024,64.3391417 111.788338,64.5835353 C111.670326,64.827092 111.514651,65.0363332 111.32466,65.2095849 C111.134669,65.3836735 110.917895,65.5167509 110.673501,65.6096539 C110.429944,65.70172 110.188062,65.7469161 109.949527,65.7469161 L108.304891,65.7469161 L108.304891,70.2899599 L107.507264,70.2899599 L107.507264,58.9264917 L110.079256,58.9264917 C110.307748,58.9264917 110.532891,58.9691769 110.755524,59.0553843 C110.978156,59.1432655 111.178191,59.2688102 111.358138,59.4320183 C111.537249,59.5935525 111.68288,59.7877283 111.796708,60.0170566 C111.911372,60.2455479 111.967448,60.4999851 111.967448,60.7820422 L111.967448,62.0190759 L111.967448,62.0190759 Z" fill="#FFFFFF"></path>
                    <path d="M109.949527,64.9492889 C110.069213,64.9492889 110.198942,64.9258539 110.339552,64.876473 C110.480162,64.827092 110.614077,64.7542761 110.739621,64.6580252 C110.863492,64.5601003 110.966439,64.4345557 111.047624,64.2813911 C111.12881,64.1299005 111.170658,63.9516271 111.170658,63.7440599 L111.170658,60.7820422 C111.170658,60.456463 111.053483,60.1986779 110.81997,60.0086869 C110.586457,59.818696 110.339552,59.724119 110.079256,59.724119 L108.304891,59.724119 L108.304891,64.9492889 L109.949527,64.9492889 Z M111.967448,62.0190759 L111.967448,63.7440599 C111.967448,64.0595955 111.908024,64.3391417 111.788338,64.5835353 C111.670326,64.827092 111.514651,65.0363332 111.32466,65.2095849 C111.134669,65.3836735 110.917895,65.5167509 110.673501,65.6096539 C110.429944,65.70172 110.188062,65.7469161 109.949527,65.7469161 L108.304891,65.7469161 L108.304891,70.2899599 L107.507264,70.2899599 L107.507264,58.9264917 L110.079256,58.9264917 C110.307748,58.9264917 110.532891,58.9691769 110.755524,59.0553843 C110.978156,59.1432655 111.178191,59.2688102 111.358138,59.4320183 C111.537249,59.5935525 111.68288,59.7877283 111.796708,60.0170566 C111.911372,60.2455479 111.967448,60.4999851 111.967448,60.7820422 L111.967448,62.0190759 Z" stroke="#FFFFFF" stroke-width="0.731"></path>
                    <path d="M115.924617,64.9183212 L117.959278,64.9183212 L117.161651,59.724119 L116.770788,59.724119 L115.924617,64.9183212 Z M116.086151,58.9264917 L117.845451,58.9264917 L119.587174,70.2581552 L118.772807,70.2740576 L118.057203,65.5527403 L118.057203,65.7151115 L115.794051,65.7151115 L115.044967,70.2740576 L114.246503,70.2581552 L116.086151,58.9264917 L116.086151,58.9264917 Z" fill="#FFFFFF"></path>
                    <path d="M115.924617,64.9183212 L117.959278,64.9183212 L117.161651,59.724119 L116.770788,59.724119 L115.924617,64.9183212 Z M116.086151,58.9264917 L117.845451,58.9264917 L119.587174,70.2581552 L118.772807,70.2740576 L118.057203,65.5527403 L118.057203,65.7151115 L115.794051,65.7151115 L115.044967,70.2740576 L114.246503,70.2581552 L116.086151,58.9264917 Z" stroke="#FFFFFF" stroke-width="0.731"></path>
                    <path d="M126.033475,67.1957018 L126.033475,68.4344094 C126.033475,68.72651 125.977399,68.98848 125.862735,69.2152974 C125.74807,69.4429517 125.602439,69.6379645 125.423328,69.8011726 C125.244218,69.9652176 125.043346,70.0890884 124.820714,70.1752957 C124.598918,70.2623401 124.373775,70.3058622 124.144446,70.3058622 L123.574473,70.3058622 C122.95763,70.3058622 122.462984,70.1267518 122.09472,69.768531 C121.726456,69.4111471 121.540649,68.9332403 121.540649,68.3364846 L122.338277,68.3364846 C122.338277,68.5967805 122.385147,68.8060217 122.476376,68.963371 C122.568442,69.1207204 122.679758,69.2395693 122.810325,69.3207549 C122.940891,69.4027774 123.076479,69.4546692 123.217089,69.4764303 C123.358536,69.4965175 123.477385,69.508235 123.574473,69.508235 L124.144446,69.508235 C124.41646,69.508235 124.669223,69.413658 124.902736,69.223667 C125.136249,69.0336761 125.250913,68.7708692 125.250913,68.4344094 C125.250913,68.1950375 125.250076,67.9807746 125.244218,67.7899467 C125.238359,67.6016296 125.236685,67.403269 125.236685,67.1957018 L125.236685,65.4380762 C125.236685,65.2422265 125.198185,65.0698118 125.122021,64.9183212 C125.045857,64.7659936 124.948769,64.6404489 124.82992,64.543361 C124.709397,64.4454362 124.582179,64.3709463 124.44659,64.3224024 C124.310165,64.2746954 124.177925,64.2445647 124.048195,64.2345211 L124.015554,64.2504234 L124.015554,64.2345211 L123.461483,64.2345211 L123.461483,63.4352199 L124.048195,63.4352199 C124.307654,63.4243394 124.549537,63.3272515 124.771333,63.1439563 C124.994802,62.9573132 125.106119,62.7028759 125.106119,62.3781337 L125.106119,60.8958694 C125.106119,60.6355734 125.060085,60.4271692 124.968019,60.2698199 C124.875116,60.1133075 124.7638,59.9919476 124.633234,59.911599 C124.502667,59.8304135 124.367916,59.7793586 124.227306,59.7567606 C124.085022,59.7349995 123.966173,59.724119 123.868248,59.724119 L123.835606,59.724119 C123.738518,59.724119 123.621343,59.7349995 123.485755,59.7567606 C123.34933,59.7793586 123.217089,59.8245547 123.08736,59.8956967 C122.95763,59.9651648 122.84464,60.077318 122.753411,60.2296456 C122.661345,60.3811362 122.615312,60.5870294 122.615312,60.8473254 L121.817685,60.8473254 C121.817685,60.2505697 121.998469,59.7818695 122.362549,59.438714 C122.725791,59.0972325 123.217089,58.9264917 123.835606,58.9264917 L123.868248,58.9264917 C124.486765,58.9264917 124.981411,59.1030912 125.349675,59.4537794 C125.718777,59.8086524 125.902909,60.2882331 125.902909,60.8958694 L125.902909,62.3781337 C125.902909,62.6710713 125.84181,62.9422478 125.716266,63.1925002 C125.591558,63.4419157 125.420817,63.6536677 125.204043,63.8260824 C125.441741,64.000171 125.640102,64.2236406 125.797451,64.4948171 C125.954801,64.7659936 126.033475,65.0798553 126.033475,65.4380762 L126.033475,67.1957018" fill="#FFFFFF"></path>
                    <path d="M126.033475,67.1957018 L126.033475,68.4344094 C126.033475,68.72651 125.977399,68.98848 125.862735,69.2152974 C125.74807,69.4429517 125.602439,69.6379645 125.423328,69.8011726 C125.244218,69.9652176 125.043346,70.0890884 124.820714,70.1752957 C124.598918,70.2623401 124.373775,70.3058622 124.144446,70.3058622 L123.574473,70.3058622 C122.95763,70.3058622 122.462984,70.1267518 122.09472,69.768531 C121.726456,69.4111471 121.540649,68.9332403 121.540649,68.3364846 L122.338277,68.3364846 C122.338277,68.5967805 122.385147,68.8060217 122.476376,68.963371 C122.568442,69.1207204 122.679758,69.2395693 122.810325,69.3207549 C122.940891,69.4027774 123.076479,69.4546692 123.217089,69.4764303 C123.358536,69.4965175 123.477385,69.508235 123.574473,69.508235 L124.144446,69.508235 C124.41646,69.508235 124.669223,69.413658 124.902736,69.223667 C125.136249,69.0336761 125.250913,68.7708692 125.250913,68.4344094 C125.250913,68.1950375 125.250076,67.9807746 125.244218,67.7899467 C125.238359,67.6016296 125.236685,67.403269 125.236685,67.1957018 L125.236685,65.4380762 C125.236685,65.2422265 125.198185,65.0698118 125.122021,64.9183212 C125.045857,64.7659936 124.948769,64.6404489 124.82992,64.543361 C124.709397,64.4454362 124.582179,64.3709463 124.44659,64.3224024 C124.310165,64.2746954 124.177925,64.2445647 124.048195,64.2345211 L124.015554,64.2504234 L124.015554,64.2345211 L123.461483,64.2345211 L123.461483,63.4352199 L124.048195,63.4352199 C124.307654,63.4243394 124.549537,63.3272515 124.771333,63.1439563 C124.994802,62.9573132 125.106119,62.7028759 125.106119,62.3781337 L125.106119,60.8958694 C125.106119,60.6355734 125.060085,60.4271692 124.968019,60.2698199 C124.875116,60.1133075 124.7638,59.9919476 124.633234,59.911599 C124.502667,59.8304135 124.367916,59.7793586 124.227306,59.7567606 C124.085022,59.7349995 123.966173,59.724119 123.868248,59.724119 L123.835606,59.724119 C123.738518,59.724119 123.621343,59.7349995 123.485755,59.7567606 C123.34933,59.7793586 123.217089,59.8245547 123.08736,59.8956967 C122.95763,59.9651648 122.84464,60.077318 122.753411,60.2296456 C122.661345,60.3811362 122.615312,60.5870294 122.615312,60.8473254 L121.817685,60.8473254 C121.817685,60.2505697 121.998469,59.7818695 122.362549,59.438714 C122.725791,59.0972325 123.217089,58.9264917 123.835606,58.9264917 L123.868248,58.9264917 C124.486765,58.9264917 124.981411,59.1030912 125.349675,59.4537794 C125.718777,59.8086524 125.902909,60.2882331 125.902909,60.8958694 L125.902909,62.3781337 C125.902909,62.6710713 125.84181,62.9422478 125.716266,63.1925002 C125.591558,63.4419157 125.420817,63.6536677 125.204043,63.8260824 C125.441741,64.000171 125.640102,64.2236406 125.797451,64.4948171 C125.954801,64.7659936 126.033475,65.0798553 126.033475,65.4380762 L126.033475,67.1957018 Z" stroke="#FFFFFF" stroke-width="0.731"></path>
                    <path d="M132.008565,60.8958694 C132.008565,60.6355734 131.962532,60.4271692 131.870466,60.2698199 C131.777563,60.1133075 131.666247,59.9919476 131.537354,59.9107621 C131.405951,59.8312504 131.273711,59.7793586 131.137285,59.7567606 C131.001697,59.7341625 130.885359,59.723282 130.787434,59.723282 L130.218298,59.723282 C129.946285,59.723282 129.693521,59.818696 129.460845,60.0086869 C129.226495,60.1986779 129.110994,60.4623217 129.110994,60.7979445 L129.110994,68.3356476 C129.110994,68.5959436 129.15619,68.8060217 129.249093,68.963371 C129.341159,69.1198834 129.452476,69.2387324 129.583879,69.3207549 C129.712772,69.4027774 129.849197,69.4538323 129.990644,69.4764303 C130.130417,69.4965175 130.245081,69.5090719 130.331288,69.5090719 L130.918001,69.5090719 C131.17746,69.5090719 131.424364,69.413658 131.657877,69.22283 C131.89139,69.0328391 132.008565,68.775054 132.008565,68.4503117 L132.008565,60.8958694 Z M130.787434,58.9264917 C131.405951,58.9264917 131.897249,59.1047652 132.260492,59.462986 C132.624571,59.8212069 132.806193,60.2999506 132.806193,60.8958694 L132.806193,68.4503117 C132.806193,68.7323688 132.749279,68.98848 132.635452,69.2152974 C132.520788,69.4429517 132.375156,69.6379645 132.196046,69.8011726 C132.016098,69.9652176 131.815227,70.0890884 131.593431,70.1752957 C131.370798,70.2623401 131.145655,70.3050253 130.918001,70.3050253 L130.331288,70.3050253 C129.712772,70.3050253 129.22231,70.1300997 128.859068,69.7760636 C128.494151,69.4253755 128.31253,68.9432839 128.31253,68.3356476 L128.31253,60.7979445 C128.31253,60.5050069 128.369443,60.2447109 128.483271,60.0170566 C128.597098,59.7885652 128.743567,59.5935525 128.923514,59.4320183 C129.102624,59.2679733 129.306007,59.1432655 129.534498,59.0562212 C129.762153,58.9700139 129.990644,58.9264917 130.218298,58.9264917 L130.787434,58.9264917 L130.787434,58.9264917 Z" fill="#FFFFFF"></path>
                    <path d="M132.008565,60.8958694 C132.008565,60.6355734 131.962532,60.4271692 131.870466,60.2698199 C131.777563,60.1133075 131.666247,59.9919476 131.537354,59.9107621 C131.405951,59.8312504 131.273711,59.7793586 131.137285,59.7567606 C131.001697,59.7341625 130.885359,59.723282 130.787434,59.723282 L130.218298,59.723282 C129.946285,59.723282 129.693521,59.818696 129.460845,60.0086869 C129.226495,60.1986779 129.110994,60.4623217 129.110994,60.7979445 L129.110994,68.3356476 C129.110994,68.5959436 129.15619,68.8060217 129.249093,68.963371 C129.341159,69.1198834 129.452476,69.2387324 129.583879,69.3207549 C129.712772,69.4027774 129.849197,69.4538323 129.990644,69.4764303 C130.130417,69.4965175 130.245081,69.5090719 130.331288,69.5090719 L130.918001,69.5090719 C131.17746,69.5090719 131.424364,69.413658 131.657877,69.22283 C131.89139,69.0328391 132.008565,68.775054 132.008565,68.4503117 L132.008565,60.8958694 Z M130.787434,58.9264917 C131.405951,58.9264917 131.897249,59.1047652 132.260492,59.462986 C132.624571,59.8212069 132.806193,60.2999506 132.806193,60.8958694 L132.806193,68.4503117 C132.806193,68.7323688 132.749279,68.98848 132.635452,69.2152974 C132.520788,69.4429517 132.375156,69.6379645 132.196046,69.8011726 C132.016098,69.9652176 131.815227,70.0890884 131.593431,70.1752957 C131.370798,70.2623401 131.145655,70.3050253 130.918001,70.3050253 L130.331288,70.3050253 C129.712772,70.3050253 129.22231,70.1300997 128.859068,69.7760636 C128.494151,69.4253755 128.31253,68.9432839 128.31253,68.3356476 L128.31253,60.7979445 C128.31253,60.5050069 128.369443,60.2447109 128.483271,60.0170566 C128.597098,59.7885652 128.743567,59.5935525 128.923514,59.4320183 C129.102624,59.2679733 129.306007,59.1432655 129.534498,59.0562212 C129.762153,58.9700139 129.990644,58.9264917 130.218298,58.9264917 L130.787434,58.9264917 Z" stroke="#FFFFFF" stroke-width="0.731"></path>
                    <path d="M137.689881,69.4923326 C137.950177,69.4923326 138.197082,69.3977556 138.430595,69.2077647 C138.664108,69.0177737 138.779609,68.7599886 138.779609,68.4344094 L138.779609,65.4380762 C138.779609,65.2321829 138.741109,65.0539094 138.659086,64.9007449 C138.577064,64.7492543 138.47328,64.6245466 138.349409,64.5266218 C138.223028,64.4295339 138.08995,64.355881 137.950177,64.3065001 C137.809567,64.2579561 137.672305,64.2345211 137.543412,64.2345211 L135.882875,64.2345211 L135.882875,69.4923326 L137.689881,69.4923326 Z M135.882875,59.724119 L135.882875,63.4352199 L137.510771,63.4352199 C137.760186,63.4142958 137.990351,63.3113492 138.20294,63.12638 C138.413855,62.9422478 138.520987,62.6928323 138.520987,62.3781337 L138.520987,61.8081608 C138.520987,61.7972802 138.517639,61.7780301 138.51178,61.7504102 C138.506759,61.7236274 138.503411,61.6809422 138.503411,61.6206807 L138.503411,60.8791301 C138.503411,60.6196711 138.457378,60.4129408 138.365311,60.2614502 C138.273245,60.1091227 138.161092,59.9919476 138.031363,59.911599 C137.901633,59.8304135 137.768556,59.7793586 137.632967,59.7567606 C137.497379,59.7349995 137.380204,59.724119 137.282279,59.724119 L135.882875,59.724119 Z M139.579747,67.1965388 L139.579747,68.4344094 C139.579747,68.72651 139.520323,68.987643 139.407332,69.2144604 C139.293505,69.4429517 139.146199,69.6354536 138.967926,69.7928029 C138.787979,69.9509892 138.587944,70.0723491 138.365311,70.1593934 C138.142679,70.2464377 137.916698,70.2899599 137.689881,70.2899599 L135.507914,70.2899599 L135.507914,70.2740576 L135.08441,70.2740576 L135.08441,58.9256547 L137.282279,58.9256547 C137.901633,58.9256547 138.393768,59.1030912 138.756174,59.4546164 C139.121091,59.8086524 139.301875,60.2832113 139.301875,60.8791301 L139.301875,61.6047784 C139.301875,61.6968445 139.30606,61.7529211 139.318614,61.7755192 L139.318614,62.3781337 C139.318614,62.6601907 139.258353,62.9196497 139.138667,63.1598586 C139.019818,63.3983935 138.861631,63.6034498 138.666619,63.7775385 C138.926078,63.952464 139.143689,64.1767706 139.318614,64.4529689 C139.491029,64.7300041 139.579747,65.0580943 139.579747,65.4380762 L139.579747,67.1965388 L139.579747,67.1965388 Z" fill="#FFFFFF"></path>
                    <path d="M137.689881,69.4923326 C137.950177,69.4923326 138.197082,69.3977556 138.430595,69.2077647 C138.664108,69.0177737 138.779609,68.7599886 138.779609,68.4344094 L138.779609,65.4380762 C138.779609,65.2321829 138.741109,65.0539094 138.659086,64.9007449 C138.577064,64.7492543 138.47328,64.6245466 138.349409,64.5266218 C138.223028,64.4295339 138.08995,64.355881 137.950177,64.3065001 C137.809567,64.2579561 137.672305,64.2345211 137.543412,64.2345211 L135.882875,64.2345211 L135.882875,69.4923326 L137.689881,69.4923326 Z M135.882875,59.724119 L135.882875,63.4352199 L137.510771,63.4352199 C137.760186,63.4142958 137.990351,63.3113492 138.20294,63.12638 C138.413855,62.9422478 138.520987,62.6928323 138.520987,62.3781337 L138.520987,61.8081608 C138.520987,61.7972802 138.517639,61.7780301 138.51178,61.7504102 C138.506759,61.7236274 138.503411,61.6809422 138.503411,61.6206807 L138.503411,60.8791301 C138.503411,60.6196711 138.457378,60.4129408 138.365311,60.2614502 C138.273245,60.1091227 138.161092,59.9919476 138.031363,59.911599 C137.901633,59.8304135 137.768556,59.7793586 137.632967,59.7567606 C137.497379,59.7349995 137.380204,59.724119 137.282279,59.724119 L135.882875,59.724119 Z M139.579747,67.1965388 L139.579747,68.4344094 C139.579747,68.72651 139.520323,68.987643 139.407332,69.2144604 C139.293505,69.4429517 139.146199,69.6354536 138.967926,69.7928029 C138.787979,69.9509892 138.587944,70.0723491 138.365311,70.1593934 C138.142679,70.2464377 137.916698,70.2899599 137.689881,70.2899599 L135.507914,70.2899599 L135.507914,70.2740576 L135.08441,70.2740576 L135.08441,58.9256547 L137.282279,58.9256547 C137.901633,58.9256547 138.393768,59.1030912 138.756174,59.4546164 C139.121091,59.8086524 139.301875,60.2832113 139.301875,60.8791301 L139.301875,61.6047784 C139.301875,61.6968445 139.30606,61.7529211 139.318614,61.7755192 L139.318614,62.3781337 C139.318614,62.6601907 139.258353,62.9196497 139.138667,63.1598586 C139.019818,63.3983935 138.861631,63.6034498 138.666619,63.7775385 C138.926078,63.952464 139.143689,64.1767706 139.318614,64.4529689 C139.491029,64.7300041 139.579747,65.0580943 139.579747,65.4380762 L139.579747,67.1965388 Z" stroke="#FFFFFF" stroke-width="0.731"></path>
                    <path d="M143.534405,64.9183212 L145.569066,64.9183212 L144.771438,59.724119 L144.380576,59.724119 L143.534405,64.9183212 Z M143.696776,58.9264917 L145.455239,58.9264917 L147.196962,70.2581552 L146.382595,70.2740576 L145.666154,65.5527403 L145.666154,65.7151115 L143.404675,65.7151115 L142.654755,70.2740576 L141.857128,70.2581552 L143.696776,58.9264917 L143.696776,58.9264917 Z" fill="#FFFFFF"></path>
                    <path d="M143.534405,64.9183212 L145.569066,64.9183212 L144.771438,59.724119 L144.380576,59.724119 L143.534405,64.9183212 Z M143.696776,58.9264917 L145.455239,58.9264917 L147.196962,70.2581552 L146.382595,70.2740576 L145.666154,65.5527403 L145.666154,65.7151115 L143.404675,65.7151115 L142.654755,70.2740576 L141.857128,70.2581552 L143.696776,58.9264917 Z" stroke="#FFFFFF" stroke-width="0.731"></path>
                    <polyline fill="#FFFFFF" points="153.172052 58.9264917 153.969679 58.9264917 153.969679 70.2899599 153.172052 70.2899599 153.172052 64.2495865 150.274481 64.2495865 150.274481 70.2899599 149.476016 70.2899599 149.476016 58.9264917 150.274481 58.9264917 150.274481 63.4519592 153.172052 63.4519592 153.172052 58.9264917"></polyline>
                    <polygon stroke="#FFFFFF" stroke-width="0.731" points="153.172052 58.9264917 153.969679 58.9264917 153.969679 70.2899599 153.172052 70.2899599 153.172052 64.2495865 150.274481 64.2495865 150.274481 70.2899599 149.476016 70.2899599 149.476016 58.9264917 150.274481 58.9264917 150.274481 63.4519592 153.172052 63.4519592"></polygon>
                    <polyline fill="#FFFFFF" points="159.912128 58.9415571 160.742397 58.9415571 160.742397 70.3050253 159.943932 70.3050253 159.943932 61.4658423 157.061426 70.3050253 156.247897 70.3050253 156.247897 58.9415571 157.046361 58.9415571 157.046361 67.783251 159.912128 58.9415571"></polyline>
                    <polygon stroke="#FFFFFF" stroke-width="0.731" points="159.912128 58.9415571 160.742397 58.9415571 160.742397 70.3050253 159.943932 70.3050253 159.943932 61.4658423 157.061426 70.3050253 156.247897 70.3050253 156.247897 58.9415571 157.046361 58.9415571 157.046361 67.783251"></polygon>
                    <path d="M166.617888,64.9660282 L166.617888,59.7082166 L164.811719,59.7082166 C164.550586,59.7082166 164.304518,59.8027936 164.070168,59.9919476 C163.837492,60.1827756 163.720317,60.4405606 163.720317,60.7653029 L163.720317,63.7775385 C163.720317,63.9842687 163.761328,64.1600313 163.842514,64.3065001 C163.923699,64.4529689 164.027483,64.5760027 164.15219,64.6739275 C164.276898,64.7701784 164.409975,64.8438313 164.550586,64.8923753 C164.692033,64.9417562 164.828458,64.9660282 164.95735,64.9660282 L166.617888,64.9660282 Z M166.992848,58.9264917 L167.416352,58.9264917 L167.416352,70.2899599 L166.617888,70.2899599 L166.617888,65.7636554 L165.918186,65.7636554 C165.701412,65.7862535 165.510584,65.892548 165.34905,66.081702 C165.185005,66.2716929 165.028492,66.5663045 164.877002,66.9680475 C164.714631,67.3915515 164.558955,67.8016642 164.412486,68.1975484 C164.266018,68.5942696 164.137962,68.9474687 164.029157,69.2554717 C163.921188,69.5651486 163.801502,69.909978 163.670936,70.2899599 L162.858243,70.2899599 C162.998016,69.8438578 163.128583,69.4521583 163.248269,69.1098398 C163.367118,68.7683583 163.503543,68.3858655 163.655033,67.9615244 C163.807361,67.5388573 163.96471,67.1153532 164.127918,66.6926861 C164.170604,66.5730002 164.230028,66.4282053 164.307029,66.2599754 C164.382356,66.0925825 164.486139,65.9168199 164.616706,65.7310138 C164.399095,65.6983722 164.189854,65.6289041 163.989819,65.5200987 C163.787274,65.4112933 163.609,65.2740311 163.453325,65.1049643 C163.295139,64.9367344 163.16792,64.7408847 163.069158,64.5182521 C162.97207,64.2972935 162.922689,64.0495519 162.922689,63.7775385 L162.922689,60.7653029 C162.922689,60.4849198 162.977929,60.2296456 163.085898,60.0011542 C163.193866,59.7726629 163.338661,59.5784871 163.516934,59.4144421 C163.696882,59.2529079 163.899427,59.1273632 164.127918,59.0403189 C164.355573,58.9532746 164.584064,58.9105894 164.811719,58.9105894 L166.992848,58.9105894 L166.992848,58.9264917 L166.992848,58.9264917 Z" fill="#FFFFFF"></path>
                    <path d="M166.617888,64.9660282 L166.617888,59.7082166 L164.811719,59.7082166 C164.550586,59.7082166 164.304518,59.8027936 164.070168,59.9919476 C163.837492,60.1827756 163.720317,60.4405606 163.720317,60.7653029 L163.720317,63.7775385 C163.720317,63.9842687 163.761328,64.1600313 163.842514,64.3065001 C163.923699,64.4529689 164.027483,64.5760027 164.15219,64.6739275 C164.276898,64.7701784 164.409975,64.8438313 164.550586,64.8923753 C164.692033,64.9417562 164.828458,64.9660282 164.95735,64.9660282 L166.617888,64.9660282 Z M166.992848,58.9264917 L167.416352,58.9264917 L167.416352,70.2899599 L166.617888,70.2899599 L166.617888,65.7636554 L165.918186,65.7636554 C165.701412,65.7862535 165.510584,65.892548 165.34905,66.081702 C165.185005,66.2716929 165.028492,66.5663045 164.877002,66.9680475 C164.714631,67.3915515 164.558955,67.8016642 164.412486,68.1975484 C164.266018,68.5942696 164.137962,68.9474687 164.029157,69.2554717 C163.921188,69.5651486 163.801502,69.909978 163.670936,70.2899599 L162.858243,70.2899599 C162.998016,69.8438578 163.128583,69.4521583 163.248269,69.1098398 C163.367118,68.7683583 163.503543,68.3858655 163.655033,67.9615244 C163.807361,67.5388573 163.96471,67.1153532 164.127918,66.6926861 C164.170604,66.5730002 164.230028,66.4282053 164.307029,66.2599754 C164.382356,66.0925825 164.486139,65.9168199 164.616706,65.7310138 C164.399095,65.6983722 164.189854,65.6289041 163.989819,65.5200987 C163.787274,65.4112933 163.609,65.2740311 163.453325,65.1049643 C163.295139,64.9367344 163.16792,64.7408847 163.069158,64.5182521 C162.97207,64.2972935 162.922689,64.0495519 162.922689,63.7775385 L162.922689,60.7653029 C162.922689,60.4849198 162.977929,60.2296456 163.085898,60.0011542 C163.193866,59.7726629 163.338661,59.5784871 163.516934,59.4144421 C163.696882,59.2529079 163.899427,59.1273632 164.127918,59.0403189 C164.355573,58.9532746 164.584064,58.9105894 164.811719,58.9105894 L166.992848,58.9105894 L166.992848,58.9264917 Z" stroke="#FFFFFF" stroke-width="0.731"></path>
                </g>
            </g>
        </g>
    </g>
</svg>