<?xml version="1.0" encoding="UTF-8" standalone="no"?>
<svg width="144px" height="50px" viewBox="0 0 144 50" version="1.1" xmlns="http://www.w3.org/2000/svg" xmlns:xlink="http://www.w3.org/1999/xlink">
    <g stroke="none" stroke-width="1" fill="none" fill-rule="evenodd">
        <g transform="translate(-97.000000, -15.000000)">
            <g>
                <g>
                    <g>
                        <g>
                            <g transform="translate(97.000000, 15.000000)">
                                <g>
                                    <polyline fill="#253870" points="21.0364905 16.8241276 28.7778664 24.5666999 21.0364905 32.3092722 21.0364905 16.8241276"></polyline>
                                    <polyline fill="#3785BA" points="28.884347 40.691326 21.1423729 32.9487537 28.884347 25.2061815 28.884347 40.691326"></polyline>
                                    <polyline fill="#006A98" points="29.3694915 25.2061815 37.1114656 32.9487537 29.3694915 40.691326 29.3694915 25.2061815"></polyline>
                                    <polyline fill="#3785BA" points="21.0364905 33.5876371 28.7778664 41.3308076 21.0364905 49.0727817 21.0364905 33.5876371"></polyline>
                                    <polyline fill="#3785BA" points="37.1641077 49.0727817 29.4227318 41.3302094 37.1641077 33.5876371 37.1641077 49.0727817"></polyline>
                                    <polyline fill="#2C2C68" points="37.1120638 32.2895314 29.3694915 24.5469591 37.1120638 16.804985 37.1120638 32.2895314"></polyline>
                                    <polyline fill="#81CBD2" points="21.3846461 49.4765703 29.1260219 41.733998 36.8697906 49.4765703 21.3846461 49.4765703"></polyline>
                                    <polyline fill="#B6D037" points="41.7678963 33.5876371 49.5104686 41.3308076 41.7678963 49.0727817 41.7678963 33.5876371"></polyline>
                                    <polyline fill="#216638" points="49.5637089 23.9272183 41.822333 16.1852443 49.5637089 8.44207378 49.5637089 23.9272183"></polyline>
                                    <polyline fill="#359A46" points="50.0488534 8.44267198 57.7902293 16.1846461 50.0488534 23.9272183 50.0488534 8.44267198"></polyline>
                                    <polyline fill="#359A46" points="41.7152542 16.8241276 49.4572283 24.5666999 41.7152542 32.3092722 41.7152542 16.8241276"></polyline>
                                    <polyline fill="#7EAA40" points="57.8973081 32.3092722 50.155334 24.5666999 57.8973081 16.8241276 57.8973081 32.3092722"></polyline>
                                    <polyline fill="#7EAA40" points="49.5637089 40.691326 41.822333 32.9487537 49.5637089 25.2061815 49.5637089 40.691326"></polyline>
                                    <polyline fill="#B6D037" points="50.0488534 25.2061815 57.7902293 32.9487537 50.0488534 40.691326 50.0488534 25.2061815"></polyline>
                                    <polyline fill="#D7DD2D" points="57.8434696 49.0727817 50.1020937 41.3302094 57.8434696 33.5876371 57.8434696 49.0727817"></polyline>
                                    <polyline fill="#216638" points="57.8973081 15.5457627 50.155334 7.80259222 57.8973081 0.0600199402 57.8973081 15.5457627"></polyline>
                                    <polyline fill="#F0E825" points="42.066999 49.4765703 49.8095713 41.733998 57.5521436 49.4765703 42.066999 49.4765703"></polyline>
                                    <polyline fill="#DC3B2A" points="16.485344 33.5876371 8.74336989 41.3308076 16.485344 49.0727817 16.485344 33.5876371"></polyline>
                                    <polyline fill="#7D2632" points="8.68953141 23.9272183 16.4321037 16.1852443 8.68953141 8.44207378 8.68953141 23.9272183"></polyline>
                                    <polyline fill="#982A34" points="8.20498504 8.44267198 0.463010967 16.1846461 8.20498504 23.9272183 8.20498504 8.44267198"></polyline>
                                    <polyline fill="#982A34" points="16.5385842 16.8241276 8.79661017 24.5666999 16.5385842 32.3092722 16.5385842 16.8241276"></polyline>
                                    <polyline fill="#C12531" points="0.356530409 32.3092722 8.09910269 24.5666999 0.356530409 16.8241276 0.356530409 32.3092722"></polyline>
                                    <polyline fill="#C12531" points="8.68953141 40.691326 16.4321037 32.9487537 8.68953141 25.2061815 8.68953141 40.691326"></polyline>
                                    <polyline fill="#DC3B2A" points="8.20498504 25.2061815 0.463010967 32.9487537 8.20498504 40.691326 8.20498504 25.2061815"></polyline>
                                    <polyline fill="#ED962D" points="0.409770688 49.0727817 8.15174477 41.3302094 0.409770688 33.5876371 0.409770688 49.0727817"></polyline>
                                    <polyline fill="#7D2632" points="0.356530409 15.5457627 8.09910269 7.80259222 0.356530409 0.0600199402 0.356530409 15.5457627"></polyline>
                                    <polyline fill="#F8CD22" points="16.1862413 49.4765703 8.4442672 41.733998 0.70109671 49.4765703 16.1862413 49.4765703"></polyline>
                                </g>
                                <g transform="translate(70.000000, 10.000000)">
                                    <polyline fill="#636463" points="0.857142857 0 8.08719978 0 8.08719978 1.28780266 2.14658498 1.28780266 2.14658498 18.3243416 0.857142857 18.3243416 0.857142857 0"></polyline>
                                    <polygon stroke="#636463" stroke-width="1.462" points="0.857142857 0 8.08719978 0 8.08719978 1.28780266 2.14658498 1.28780266 2.14658498 18.3243416 0.857142857 18.3243416"></polygon>
                                    <path d="M20.7602928,3.18056926 C20.7602928,2.76004554 20.6856969,2.42313472 20.537325,2.16901708 C20.3881334,1.91571917 20.2077918,1.72226186 19.9979398,1.59110436 C19.7880878,1.4583074 19.5733174,1.37633397 19.3544484,1.34108539 C19.1339398,1.30583681 18.9462207,1.28780266 18.7888317,1.28780266 L17.86827,1.28780266 C17.4305319,1.28780266 17.0231239,1.44191271 16.6460461,1.74767362 C16.2689683,2.05425427 16.0804294,2.48051613 16.0804294,3.02318027 L16.0804294,15.1954156 C16.0804294,15.6159393 16.1550252,15.9536698 16.3042169,16.2069677 C16.4534085,16.4619051 16.6329303,16.6545427 16.8436021,16.7848805 C17.0534541,16.9176774 17.2731429,17.0004706 17.501029,17.0348994 C17.7289152,17.070148 17.9125356,17.0881822 18.0527102,17.0881822 L18.9978639,17.0881822 C19.4200271,17.0881822 19.818418,16.9340721 20.1946761,16.6274915 C20.5725736,16.3209108 20.7602928,15.9053055 20.7602928,15.3790361 L20.7602928,3.18056926 Z M18.7888317,0 C19.7880878,0 20.5799512,0.289366224 21.1677007,0.867278937 C21.7546305,1.44519165 22.0480954,2.21656167 22.0480954,3.18056926 L22.0480954,15.3790361 C22.0480954,15.8348083 21.9571049,16.246315 21.7726647,16.6143757 C21.5882245,16.9832562 21.3513212,17.2988539 21.0627747,17.5603491 C20.7725888,17.8234839 20.4487937,18.0251385 20.0897501,18.1661328 C19.7307064,18.3054877 19.3675641,18.3768046 18.9978639,18.3768046 L18.0527102,18.3768046 C17.0534541,18.3768046 16.2607709,18.091537 15.6730214,17.5218216 C15.0860916,16.9521063 14.7926267,16.1766376 14.7926267,15.1954156 L14.7926267,3.02318027 C14.7926267,2.54937381 14.8852567,2.12966983 15.0680575,1.76160911 C15.2533174,1.39354839 15.4894009,1.0787704 15.7787671,0.813996205 C16.0681334,0.552500949 16.3968468,0.350026565 16.7649076,0.209851992 C17.1329683,0.0696774194 17.501029,0 17.86827,0 L18.7888317,0 L18.7888317,0 Z" fill="#636463"></path>
                                    <path d="M20.7602928,3.18056926 C20.7602928,2.76004554 20.6856969,2.42313472 20.537325,2.16901708 C20.3881334,1.91571917 20.2077918,1.72226186 19.9979398,1.59110436 C19.7880878,1.4583074 19.5733174,1.37633397 19.3544484,1.34108539 C19.1339398,1.30583681 18.9462207,1.28780266 18.7888317,1.28780266 L17.86827,1.28780266 C17.4305319,1.28780266 17.0231239,1.44191271 16.6460461,1.74767362 C16.2689683,2.05425427 16.0804294,2.48051613 16.0804294,3.02318027 L16.0804294,15.1954156 C16.0804294,15.6159393 16.1550252,15.9536698 16.3042169,16.2069677 C16.4534085,16.4619051 16.6329303,16.6545427 16.8436021,16.7848805 C17.0534541,16.9176774 17.2731429,17.0004706 17.501029,17.0348994 C17.7289152,17.070148 17.9125356,17.0881822 18.0527102,17.0881822 L18.9978639,17.0881822 C19.4200271,17.0881822 19.818418,16.9340721 20.1946761,16.6274915 C20.5725736,16.3209108 20.7602928,15.9053055 20.7602928,15.3790361 L20.7602928,3.18056926 Z M18.7888317,0 C19.7880878,0 20.5799512,0.289366224 21.1677007,0.867278937 C21.7546305,1.44519165 22.0480954,2.21656167 22.0480954,3.18056926 L22.0480954,15.3790361 C22.0480954,15.8348083 21.9571049,16.246315 21.7726647,16.6143757 C21.5882245,16.9832562 21.3513212,17.2988539 21.0627747,17.5603491 C20.7725888,17.8234839 20.4487937,18.0251385 20.0897501,18.1661328 C19.7307064,18.3054877 19.3675641,18.3768046 18.9978639,18.3768046 L18.0527102,18.3768046 C17.0534541,18.3768046 16.2607709,18.091537 15.6730214,17.5218216 C15.0860916,16.9521063 14.7926267,16.1766376 14.7926267,15.1954156 L14.7926267,3.02318027 C14.7926267,2.54937381 14.8852567,2.12966983 15.0680575,1.76160911 C15.2533174,1.39354839 15.4894009,1.0787704 15.7787671,0.813996205 C16.0681334,0.552500949 16.3968468,0.350026565 16.7649076,0.209851992 C17.1329683,0.0696774194 17.501029,0 17.86827,0 L18.7888317,0 Z" stroke="#636463" stroke-width="1.462"></path>
                                    <path d="M34.9952529,9.72696774 C35.1870708,9.72696774 35.3977425,9.68762049 35.6256286,9.608926 C35.852695,9.5302315 36.0682852,9.41137002 36.2699398,9.25316129 C36.4715945,9.0957723 36.6380005,8.89493738 36.7699778,8.64901708 C36.9003155,8.40391651 36.9658943,8.11455028 36.9658943,7.78091841 L36.9658943,2.99694877 C36.9658943,2.47149905 36.7789948,2.055074 36.4019171,1.74849336 C36.0248393,1.44191271 35.6256286,1.28780266 35.2051049,1.28780266 L32.3401334,1.28780266 L32.3401334,9.72696774 L34.9952529,9.72696774 Z M38.2553364,4.9954611 L38.2553364,7.78091841 C38.2553364,8.28997343 38.1569683,8.74082732 37.9651504,9.13593928 C37.7725129,9.5302315 37.5233136,9.86714231 37.2159133,10.1474915 C36.9093326,10.4286603 36.559306,10.6434307 36.1650138,10.7909829 C35.7699019,10.9401746 35.3805281,11.0155901 34.9952529,11.0155901 L32.3401334,11.0155901 L32.3401334,18.3505731 L31.0506912,18.3505731 L31.0506912,0 L35.2051049,0 C35.5731656,0 35.9363079,0.0696774194 36.2961713,0.209851992 C36.655215,0.3508463 36.9798298,0.552500949 37.2683763,0.813996205 C37.5577425,1.07795066 37.7946457,1.39354839 37.9790859,1.76078937 C38.1618867,2.12966983 38.2553364,2.54117647 38.2553364,2.99694877 L38.2553364,4.9954611 L38.2553364,4.9954611 Z" fill="#636463"></path>
                                    <path d="M34.9952529,9.72696774 C35.1870708,9.72696774 35.3977425,9.68762049 35.6256286,9.608926 C35.852695,9.5302315 36.0682852,9.41137002 36.2699398,9.25316129 C36.4715945,9.0957723 36.6380005,8.89493738 36.7699778,8.64901708 C36.9003155,8.40391651 36.9658943,8.11455028 36.9658943,7.78091841 L36.9658943,2.99694877 C36.9658943,2.47149905 36.7789948,2.055074 36.4019171,1.74849336 C36.0248393,1.44191271 35.6256286,1.28780266 35.2051049,1.28780266 L32.3401334,1.28780266 L32.3401334,9.72696774 L34.9952529,9.72696774 Z M38.2553364,4.9954611 L38.2553364,7.78091841 C38.2553364,8.28997343 38.1569683,8.74082732 37.9651504,9.13593928 C37.7725129,9.5302315 37.5233136,9.86714231 37.2159133,10.1474915 C36.9093326,10.4286603 36.559306,10.6434307 36.1650138,10.7909829 C35.7699019,10.9401746 35.3805281,11.0155901 34.9952529,11.0155901 L32.3401334,11.0155901 L32.3401334,18.3505731 L31.0506912,18.3505731 L31.0506912,0 L35.2051049,0 C35.5731656,0 35.9363079,0.0696774194 36.2961713,0.209851992 C36.655215,0.3508463 36.9798298,0.552500949 37.2683763,0.813996205 C37.5577425,1.07795066 37.7946457,1.39354839 37.9790859,1.76078937 C38.1618867,2.12966983 38.2553364,2.54117647 38.2553364,2.99694877 L38.2553364,4.9954611 Z" stroke="#636463" stroke-width="1.462"></path>
                                    <path d="M53.2764218,3.18056926 C53.2764218,2.76004554 53.2010062,2.42313472 53.0526343,2.16901708 C52.9034427,1.91571917 52.7231011,1.72226186 52.5132491,1.59110436 C52.3042169,1.4583074 52.0894465,1.37633397 51.8697577,1.34108539 C51.6492491,1.30583681 51.4623497,1.28780266 51.304141,1.28780266 L50.3852188,1.28780266 C49.9474806,1.28780266 49.5384332,1.44191271 49.1621751,1.74767362 C48.7859171,2.05425427 48.5965584,2.48051613 48.5965584,3.02318027 L48.5965584,15.1954156 C48.5965584,15.6159393 48.6711542,15.9536698 48.8203459,16.2069677 C48.9687178,16.4619051 49.1482396,16.6545427 49.3589114,16.7848805 C49.5695831,16.9176774 49.7876324,17.0004706 50.0163383,17.0348994 C50.2434047,17.070148 50.4270252,17.0881822 50.5671998,17.0881822 L51.5148127,17.0881822 C51.9345167,17.0881822 52.3337273,16.9340721 52.7108051,16.6274915 C53.0870632,16.3209108 53.2764218,15.9053055 53.2764218,15.3790361 L53.2764218,3.18056926 Z M51.304141,0 C52.3042169,0 53.0960802,0.289366224 53.68301,0.867278937 C54.2699398,1.44519165 54.5634047,2.21656167 54.5634047,3.18056926 L54.5634047,15.3790361 C54.5634047,15.8348083 54.4715945,16.246315 54.287974,16.6143757 C54.1035337,16.9832562 53.8674503,17.2988539 53.578084,17.5603491 C53.2895375,17.8234839 52.9649227,18.0251385 52.6058791,18.1661328 C52.245196,18.3054877 51.8820537,18.3768046 51.5148127,18.3768046 L50.5671998,18.3768046 C49.5695831,18.3768046 48.7760802,18.091537 48.1883307,17.5218216 C47.6005812,16.9521063 47.3087558,16.1766376 47.3087558,15.1954156 L47.3087558,3.02318027 C47.3087558,2.54937381 47.3997463,2.12966983 47.5850062,1.76160911 C47.767807,1.39354839 48.0038905,1.0787704 48.2940764,0.813996205 C48.5826229,0.552500949 48.9113364,0.350026565 49.2793971,0.209851992 C49.6474578,0.0696774194 50.0163383,0 50.3852188,0 L51.304141,0 L51.304141,0 Z" fill="#636463"></path>
                                    <path d="M53.2764218,3.18056926 C53.2764218,2.76004554 53.2010062,2.42313472 53.0526343,2.16901708 C52.9034427,1.91571917 52.7231011,1.72226186 52.5132491,1.59110436 C52.3042169,1.4583074 52.0894465,1.37633397 51.8697577,1.34108539 C51.6492491,1.30583681 51.4623497,1.28780266 51.304141,1.28780266 L50.3852188,1.28780266 C49.9474806,1.28780266 49.5384332,1.44191271 49.1621751,1.74767362 C48.7859171,2.05425427 48.5965584,2.48051613 48.5965584,3.02318027 L48.5965584,15.1954156 C48.5965584,15.6159393 48.6711542,15.9536698 48.8203459,16.2069677 C48.9687178,16.4619051 49.1482396,16.6545427 49.3589114,16.7848805 C49.5695831,16.9176774 49.7876324,17.0004706 50.0163383,17.0348994 C50.2434047,17.070148 50.4270252,17.0881822 50.5671998,17.0881822 L51.5148127,17.0881822 C51.9345167,17.0881822 52.3337273,16.9340721 52.7108051,16.6274915 C53.0870632,16.3209108 53.2764218,15.9053055 53.2764218,15.3790361 L53.2764218,3.18056926 Z M51.304141,0 C52.3042169,0 53.0960802,0.289366224 53.68301,0.867278937 C54.2699398,1.44519165 54.5634047,2.21656167 54.5634047,3.18056926 L54.5634047,15.3790361 C54.5634047,15.8348083 54.4715945,16.246315 54.287974,16.6143757 C54.1035337,16.9832562 53.8674503,17.2988539 53.578084,17.5603491 C53.2895375,17.8234839 52.9649227,18.0251385 52.6058791,18.1661328 C52.245196,18.3054877 51.8820537,18.3768046 51.5148127,18.3768046 L50.5671998,18.3768046 C49.5695831,18.3768046 48.7760802,18.091537 48.1883307,17.5218216 C47.6005812,16.9521063 47.3087558,16.1766376 47.3087558,15.1954156 L47.3087558,3.02318027 C47.3087558,2.54937381 47.3997463,2.12966983 47.5850062,1.76160911 C47.767807,1.39354839 48.0038905,1.0787704 48.2940764,0.813996205 C48.5826229,0.552500949 48.9113364,0.350026565 49.2793971,0.209851992 C49.6474578,0.0696774194 50.0163383,0 50.3852188,0 L51.304141,0 Z" stroke="#636463" stroke-width="1.462"></path>
                                    <path d="M66.5596704,14.9585123 C66.5596704,15.3437875 66.5154047,15.7249639 66.4285129,16.1028615 C66.3399816,16.4799393 66.199807,16.8242277 66.0071694,17.1406452 L71.2133022,17.1406452 L71.2133022,1.28862239 L68.5581827,1.28862239 C68.399974,1.28862239 68.2122548,1.30583681 67.992566,1.34026565 C67.7728772,1.37551423 67.5589265,1.45912713 67.3490745,1.59028463 C67.1384028,1.72226186 66.9580613,1.91489943 66.8096893,2.16819734 C66.6604977,2.42313472 66.5859019,2.76004554 66.5859019,3.18138899 C66.5686874,5.17908159 66.5596704,6.99233397 66.5596704,8.62360531 L66.5596704,14.9585123 Z M71.2551087,20.356463 L71.2534692,18.4292676 L64.86364,18.4038558 L64.8603611,20.356463 L63.5668203,20.356463 L63.5668203,17.1554004 L63.9832453,17.1406452 L64.0365281,17.1406452 C64.2111315,17.1406452 64.3783573,17.0750664 64.5349265,16.9439089 C64.693955,16.8127514 64.8259322,16.6406072 64.9300385,16.4307552 C65.0357842,16.2200835 65.1177577,15.9880987 65.1800575,15.7348008 C65.2407178,15.4798634 65.2718677,15.2216471 65.2718677,14.9585123 L65.2718677,8.62360531 C65.2718677,6.99233397 65.2800651,5.17908159 65.2980992,3.18138899 C65.2980992,2.2173814 65.5907444,1.44683112 66.1784939,0.867278937 C66.7662434,0.28854649 67.5589265,0 68.5581827,0 L72.5011049,0 L72.5011049,1.28862239 L72.4953668,20.356463 L71.2551087,20.356463 L71.2551087,20.356463 Z" fill="#636463"></path>
                                    <path d="M66.5596704,14.9585123 C66.5596704,15.3437875 66.5154047,15.7249639 66.4285129,16.1028615 C66.3399816,16.4799393 66.199807,16.8242277 66.0071694,17.1406452 L71.2133022,17.1406452 L71.2133022,1.28862239 L68.5581827,1.28862239 C68.399974,1.28862239 68.2122548,1.30583681 67.992566,1.34026565 C67.7728772,1.37551423 67.5589265,1.45912713 67.3490745,1.59028463 C67.1384028,1.72226186 66.9580613,1.91489943 66.8096893,2.16819734 C66.6604977,2.42313472 66.5859019,2.76004554 66.5859019,3.18138899 C66.5686874,5.17908159 66.5596704,6.99233397 66.5596704,8.62360531 L66.5596704,14.9585123 Z M71.2551087,20.356463 L71.2534692,18.4292676 L64.86364,18.4038558 L64.8603611,20.356463 L63.5668203,20.356463 L63.5668203,17.1554004 L63.9832453,17.1406452 L64.0365281,17.1406452 C64.2111315,17.1406452 64.3783573,17.0750664 64.5349265,16.9439089 C64.693955,16.8127514 64.8259322,16.6406072 64.9300385,16.4307552 C65.0357842,16.2200835 65.1177577,15.9880987 65.1800575,15.7348008 C65.2407178,15.4798634 65.2718677,15.2216471 65.2718677,14.9585123 L65.2718677,8.62360531 C65.2718677,6.99233397 65.2800651,5.17908159 65.2980992,3.18138899 C65.2980992,2.2173814 65.5907444,1.44683112 66.1784939,0.867278937 C66.7662434,0.28854649 67.5589265,0 68.5581827,0 L72.5011049,0 L72.5011049,1.28862239 L72.4953668,20.356463 L71.2551087,20.356463 Z" stroke="#636463" stroke-width="1.462"></path>
                                    <path d="M3.61912713,28.3159317 C3.61912713,28.0609943 3.57404175,27.8568805 3.48387097,27.7027704 C3.39370019,27.5494801 3.28385579,27.4306186 3.15679696,27.3511044 C3.02891841,27.2732296 2.89858065,27.2224061 2.76578368,27.2002732 C2.63298672,27.1781404 2.51822391,27.1674839 2.42395446,27.1674839 L1.86571537,27.1674839 C1.59930171,27.1674839 1.35256167,27.2609336 1.12385579,27.4470133 C0.895149905,27.633093 0.780387097,27.8913093 0.780387097,28.2200228 L0.780387097,35.6025503 C0.780387097,35.8574877 0.825472486,36.063241 0.916462998,36.217351 C1.00745351,36.3706414 1.11565844,36.4870436 1.243537,36.5673776 C1.37059583,36.6477116 1.50339279,36.6977154 1.64274763,36.7198482 C1.780463,36.7395218 1.89112713,36.7518178 1.97719924,36.7518178 L2.55019355,36.7518178 C2.80595066,36.7518178 3.0477723,36.6583681 3.27565844,36.4714687 C3.50518406,36.285389 3.61912713,36.0329108 3.61912713,35.7148539 L3.61912713,28.3159317 Z M2.42395446,26.3870968 C3.02891841,26.3870968 3.50928273,26.5617002 3.86668691,26.9125465 C4.22327135,27.2633928 4.40033397,27.7322808 4.40033397,28.3159317 L4.40033397,35.7148539 C4.40033397,35.9911044 4.34459203,36.2419431 4.23228843,36.4640911 C4.12080455,36.6870588 3.97817078,36.8780569 3.80274763,37.0379051 C3.62814421,37.1985731 3.43058824,37.3198937 3.2125389,37.4043264 C2.99448956,37.4895787 2.77480076,37.5313852 2.55019355,37.5313852 L1.97719924,37.5313852 C1.37059583,37.5313852 0.890231499,37.3600607 0.533647059,37.0133131 C0.177882353,36.6698444 0,36.1976774 0,35.6025503 L0,28.2200228 C0,27.9331157 0.0557419355,27.6781784 0.167225806,27.4552106 C0.278709677,27.2314231 0.422982922,27.040425 0.598406072,26.8822163 C0.773009488,26.7215484 0.973024668,26.599408 1.19517268,26.5141556 C1.41896015,26.429723 1.64274763,26.3870968 1.86571537,26.3870968 L2.42395446,26.3870968 L2.42395446,26.3870968 Z" fill="#636463"></path>
                                    <path d="M3.61912713,28.3159317 C3.61912713,28.0609943 3.57404175,27.8568805 3.48387097,27.7027704 C3.39370019,27.5494801 3.28385579,27.4306186 3.15679696,27.3511044 C3.02891841,27.2732296 2.89858065,27.2224061 2.76578368,27.2002732 C2.63298672,27.1781404 2.51822391,27.1674839 2.42395446,27.1674839 L1.86571537,27.1674839 C1.59930171,27.1674839 1.35256167,27.2609336 1.12385579,27.4470133 C0.895149905,27.633093 0.780387097,27.8913093 0.780387097,28.2200228 L0.780387097,35.6025503 C0.780387097,35.8574877 0.825472486,36.063241 0.916462998,36.217351 C1.00745351,36.3706414 1.11565844,36.4870436 1.243537,36.5673776 C1.37059583,36.6477116 1.50339279,36.6977154 1.64274763,36.7198482 C1.780463,36.7395218 1.89112713,36.7518178 1.97719924,36.7518178 L2.55019355,36.7518178 C2.80595066,36.7518178 3.0477723,36.6583681 3.27565844,36.4714687 C3.50518406,36.285389 3.61912713,36.0329108 3.61912713,35.7148539 L3.61912713,28.3159317 Z M2.42395446,26.3870968 C3.02891841,26.3870968 3.50928273,26.5617002 3.86668691,26.9125465 C4.22327135,27.2633928 4.40033397,27.7322808 4.40033397,28.3159317 L4.40033397,35.7148539 C4.40033397,35.9911044 4.34459203,36.2419431 4.23228843,36.4640911 C4.12080455,36.6870588 3.97817078,36.8780569 3.80274763,37.0379051 C3.62814421,37.1985731 3.43058824,37.3198937 3.2125389,37.4043264 C2.99448956,37.4895787 2.77480076,37.5313852 2.55019355,37.5313852 L1.97719924,37.5313852 C1.37059583,37.5313852 0.890231499,37.3600607 0.533647059,37.0133131 C0.177882353,36.6698444 0,36.1976774 0,35.6025503 L0,28.2200228 C0,27.9331157 0.0557419355,27.6781784 0.167225806,27.4552106 C0.278709677,27.2314231 0.422982922,27.040425 0.598406072,26.8822163 C0.773009488,26.7215484 0.973024668,26.599408 1.19517268,26.5141556 C1.41896015,26.429723 1.64274763,26.3870968 1.86571537,26.3870968 L2.42395446,26.3870968 Z" stroke="#636463" stroke-width="0.731"></path>
                                    <path d="M9.1990328,36.7362429 C9.45397018,36.7362429 9.69579181,36.6436129 9.92367796,36.4575332 C10.1532036,36.2714535 10.2671467,36.0124175 10.2671467,35.6845237 L10.2671467,32.7498748 C10.2671467,32.5482201 10.2277994,32.372797 10.1482852,32.2236053 C10.0679512,32.0752334 9.96630415,31.953093 9.84498346,31.8571841 C9.72202331,31.7604554 9.59168555,31.6899583 9.45397018,31.6415939 C9.31543508,31.5940493 9.18345785,31.5694573 9.05557929,31.5694573 L7.43004608,31.5694573 L7.43004608,36.7206679 C7.630881,36.7206679 7.88335918,36.7231271 8.18584115,36.7288653 C8.48914286,36.7337837 8.82687341,36.7362429 9.1990328,36.7362429 M11.0491732,34.4721366 L11.0491732,35.6845237 C11.0491732,35.970611 10.9917918,36.2255484 10.8811277,36.4485161 C10.7704635,36.6723036 10.6261903,36.8633017 10.4499474,37.0231499 C10.2737045,37.1821784 10.0786078,37.3043188 9.86055842,37.3895712 C9.64250908,37.4748235 9.42200054,37.5174497 9.1990328,37.5174497 C8.61374248,37.5174497 8.11452426,37.5149905 7.70055842,37.5084326 C7.28577284,37.504334 7.07346164,37.5018748 7.06198536,37.5018748 L6.66359447,37.5018748 L6.66359447,26.3870968 L10.6499626,26.3870968 L10.6499626,27.1691233 L7.43004608,27.1691233 L7.43004608,30.7882505 L9.05557929,30.7882505 C9.28920358,30.7882505 9.5261068,30.8341556 9.76546923,30.9243264 C10.0040119,31.0144972 10.2196021,31.1440152 10.4106002,31.3153397 C10.602418,31.4842049 10.7557083,31.6924175 10.8729303,31.937518 C10.9893326,32.1809791 11.0491732,32.4514915 11.0491732,32.7498748 L11.0491732,34.4721366" fill="#636463"></path>
                                    <path d="M9.1990328,36.7362429 C9.45397018,36.7362429 9.69579181,36.6436129 9.92367796,36.4575332 C10.1532036,36.2714535 10.2671467,36.0124175 10.2671467,35.6845237 L10.2671467,32.7498748 C10.2671467,32.5482201 10.2277994,32.372797 10.1482852,32.2236053 C10.0679512,32.0752334 9.96630415,31.953093 9.84498346,31.8571841 C9.72202331,31.7604554 9.59168555,31.6899583 9.45397018,31.6415939 C9.31543508,31.5940493 9.18345785,31.5694573 9.05557929,31.5694573 L7.43004608,31.5694573 L7.43004608,36.7206679 C7.630881,36.7206679 7.88335918,36.7231271 8.18584115,36.7288653 C8.48914286,36.7337837 8.82687341,36.7362429 9.1990328,36.7362429 Z M11.0491732,34.4721366 L11.0491732,35.6845237 C11.0491732,35.970611 10.9917918,36.2255484 10.8811277,36.4485161 C10.7704635,36.6723036 10.6261903,36.8633017 10.4499474,37.0231499 C10.2737045,37.1821784 10.0786078,37.3043188 9.86055842,37.3895712 C9.64250908,37.4748235 9.42200054,37.5174497 9.1990328,37.5174497 C8.61374248,37.5174497 8.11452426,37.5149905 7.70055842,37.5084326 C7.28577284,37.504334 7.07346164,37.5018748 7.06198536,37.5018748 L6.66359447,37.5018748 L6.66359447,26.3870968 L10.6499626,26.3870968 L10.6499626,27.1691233 L7.43004608,27.1691233 L7.43004608,30.7882505 L9.05557929,30.7882505 C9.28920358,30.7882505 9.5261068,30.8341556 9.76546923,30.9243264 C10.0040119,31.0144972 10.2196021,31.1440152 10.4106002,31.3153397 C10.602418,31.4842049 10.7557083,31.6924175 10.8729303,31.937518 C10.9893326,32.1809791 11.0491732,32.4514915 11.0491732,32.7498748 L11.0491732,34.4721366 Z" stroke="#636463" stroke-width="0.731"></path>
                                    <path d="M16.0233212,32.2859051 C16.1405432,32.2859051 16.2676021,32.2629526 16.4053174,32.2145882 C16.5430328,32.1662239 16.6741903,32.094907 16.7971504,32.0006376 C16.9184711,31.9047287 17.0192985,31.7817685 17.0988127,31.6317571 C17.1783269,31.4833852 17.2193136,31.3087818 17.2193136,31.1054877 L17.2193136,28.2044478 C17.2193136,27.8855712 17.1045508,27.633093 16.8758449,27.4470133 C16.6471391,27.2609336 16.4053174,27.1683036 16.15038,27.1683036 L14.4125432,27.1683036 L14.4125432,32.2859051 L16.0233212,32.2859051 Z M17.9997007,29.4160152 L17.9997007,31.1054877 C17.9997007,31.4145275 17.9414996,31.6883188 17.8242776,31.9276812 C17.708695,32.1662239 17.5562245,32.3711575 17.3701448,32.5408425 C17.1840651,32.7113472 16.9717539,32.841685 16.7323914,32.9326755 C16.4938487,33.0228463 16.2569455,33.067112 16.0233212,33.067112 L14.4125432,33.067112 L14.4125432,37.51663 L13.6313364,37.51663 L13.6313364,26.3870968 L16.15038,26.3870968 C16.3741675,26.3870968 16.5946761,26.4289032 16.8127254,26.5133359 C17.0307747,26.599408 17.2266912,26.7223681 17.4029341,26.8822163 C17.5783573,27.040425 17.7209911,27.2306034 17.8324749,27.4552106 C17.9447785,27.6789981 17.9997007,27.9281973 17.9997007,28.2044478 L17.9997007,29.4160152 L17.9997007,29.4160152 Z" fill="#636463"></path>
                                    <path d="M16.0233212,32.2859051 C16.1405432,32.2859051 16.2676021,32.2629526 16.4053174,32.2145882 C16.5430328,32.1662239 16.6741903,32.094907 16.7971504,32.0006376 C16.9184711,31.9047287 17.0192985,31.7817685 17.0988127,31.6317571 C17.1783269,31.4833852 17.2193136,31.3087818 17.2193136,31.1054877 L17.2193136,28.2044478 C17.2193136,27.8855712 17.1045508,27.633093 16.8758449,27.4470133 C16.6471391,27.2609336 16.4053174,27.1683036 16.15038,27.1683036 L14.4125432,27.1683036 L14.4125432,32.2859051 L16.0233212,32.2859051 Z M17.9997007,29.4160152 L17.9997007,31.1054877 C17.9997007,31.4145275 17.9414996,31.6883188 17.8242776,31.9276812 C17.708695,32.1662239 17.5562245,32.3711575 17.3701448,32.5408425 C17.1840651,32.7113472 16.9717539,32.841685 16.7323914,32.9326755 C16.4938487,33.0228463 16.2569455,33.067112 16.0233212,33.067112 L14.4125432,33.067112 L14.4125432,37.51663 L13.6313364,37.51663 L13.6313364,26.3870968 L16.15038,26.3870968 C16.3741675,26.3870968 16.5946761,26.4289032 16.8127254,26.5133359 C17.0307747,26.599408 17.2266912,26.7223681 17.4029341,26.8822163 C17.5783573,27.040425 17.7209911,27.2306034 17.8324749,27.4552106 C17.9447785,27.6789981 17.9997007,27.9281973 17.9997007,28.2044478 L17.9997007,29.4160152 Z" stroke="#636463" stroke-width="0.731"></path>
                                    <path d="M22.2426457,32.255575 L24.2354199,32.255575 L23.4542131,27.1683036 L23.0713971,27.1683036 L22.2426457,32.255575 Z M22.4008544,26.3870968 L24.123936,26.3870968 L25.8298032,37.4854801 L25.0322017,37.501055 L24.3313288,32.8769336 L24.3313288,33.035962 L22.1147671,33.035962 L21.3811049,37.501055 L20.5990783,37.4854801 L22.4008544,26.3870968 L22.4008544,26.3870968 Z" fill="#636463"></path>
                                    <path d="M22.2426457,32.255575 L24.2354199,32.255575 L23.4542131,27.1683036 L23.0713971,27.1683036 L22.2426457,32.255575 Z M22.4008544,26.3870968 L24.123936,26.3870968 L25.8298032,37.4854801 L25.0322017,37.501055 L24.3313288,32.8769336 L24.3313288,33.035962 L22.1147671,33.035962 L21.3811049,37.501055 L20.5990783,37.4854801 L22.4008544,26.3870968 Z" stroke="#636463" stroke-width="0.731"></path>
                                    <path d="M31.9671542,34.4860721 L31.9671542,35.6992789 C31.9671542,35.9853662 31.912232,36.2419431 31.7999284,36.4640911 C31.6876248,36.6870588 31.5449911,36.8780569 31.3695679,37.0379051 C31.1941448,37.1985731 30.9974085,37.3198937 30.7793592,37.4043264 C30.5621296,37.4895787 30.341621,37.5322049 30.1170138,37.5322049 L29.5587747,37.5322049 C28.9546305,37.5322049 28.4701675,37.3567818 28.1094844,37.0059355 C27.7488013,36.6559089 27.5668203,36.1878406 27.5668203,35.60337 L28.3480271,35.60337 C28.3480271,35.8583074 28.3939322,36.063241 28.4832833,36.217351 C28.5734541,36.3714611 28.6824787,36.4878634 28.8103573,36.5673776 C28.9382358,36.6477116 29.0710328,36.6985351 29.2087482,36.7198482 C29.3472833,36.7395218 29.4636856,36.7509981 29.5587747,36.7509981 L30.1170138,36.7509981 C30.3834275,36.7509981 30.6309873,36.6583681 30.8596931,36.4722884 C31.088399,36.2862087 31.2007026,36.0288121 31.2007026,35.6992789 C31.2007026,35.4648349 31.1998829,35.2549829 31.1941448,35.0680835 C31.1884066,34.8836433 31.1867671,34.6893662 31.1867671,34.4860721 L31.1867671,32.76463 C31.1867671,32.5728121 31.1490594,32.4039469 31.0744635,32.255575 C30.9998677,32.1063833 30.9047785,31.9834231 30.7883763,31.888334 C30.6703345,31.792425 30.5457349,31.7194687 30.4129379,31.6719241 C30.2793212,31.6251992 30.1498032,31.5956888 30.0227444,31.585852 L29.9907747,31.6014269 L29.9907747,31.585852 L29.4481106,31.585852 L29.4481106,30.8030057 L30.0227444,30.8030057 C30.276862,30.7923491 30.5137652,30.69726 30.7309948,30.5177381 C30.9498639,30.3349374 31.0588886,30.0857381 31.0588886,29.7676812 L31.0588886,28.3159317 C31.0588886,28.0609943 31.0138032,27.8568805 30.9236324,27.7027704 C30.8326419,27.5494801 30.7236172,27.4306186 30.5957387,27.3519241 C30.4678601,27.2724099 30.3358829,27.2224061 30.1981675,27.2002732 C30.0588127,27.1789602 29.9424104,27.1683036 29.8465015,27.1683036 L29.8145319,27.1683036 C29.7194427,27.1683036 29.6046799,27.1789602 29.4718829,27.2002732 C29.3382662,27.2224061 29.2087482,27.2666717 29.0816893,27.3363491 C28.9546305,27.4043871 28.8439664,27.5142315 28.7546153,27.6634231 C28.6644446,27.8117951 28.6193592,28.0134497 28.6193592,28.2683871 L27.8381523,28.2683871 C27.8381523,27.6839165 28.015215,27.2248653 28.3717994,26.8887742 C28.7275641,26.5543226 29.2087482,26.3870968 29.8145319,26.3870968 L29.8465015,26.3870968 C30.4522852,26.3870968 30.9367482,26.5600607 31.2974313,26.9035294 C31.6589341,27.2510968 31.8392757,27.7208046 31.8392757,28.3159317 L31.8392757,29.7676812 C31.8392757,30.0545882 31.7794351,30.3201822 31.6564749,30.5652827 C31.5343345,30.8095636 31.3671087,31.0169564 31.1547975,31.1858216 C31.3876021,31.3563264 31.5818791,31.5751954 31.7359892,31.8407894 C31.8900992,32.1063833 31.9671542,32.4137837 31.9671542,32.76463 L31.9671542,34.4860721" fill="#636463"></path>
                                    <path d="M31.9671542,34.4860721 L31.9671542,35.6992789 C31.9671542,35.9853662 31.912232,36.2419431 31.7999284,36.4640911 C31.6876248,36.6870588 31.5449911,36.8780569 31.3695679,37.0379051 C31.1941448,37.1985731 30.9974085,37.3198937 30.7793592,37.4043264 C30.5621296,37.4895787 30.341621,37.5322049 30.1170138,37.5322049 L29.5587747,37.5322049 C28.9546305,37.5322049 28.4701675,37.3567818 28.1094844,37.0059355 C27.7488013,36.6559089 27.5668203,36.1878406 27.5668203,35.60337 L28.3480271,35.60337 C28.3480271,35.8583074 28.3939322,36.063241 28.4832833,36.217351 C28.5734541,36.3714611 28.6824787,36.4878634 28.8103573,36.5673776 C28.9382358,36.6477116 29.0710328,36.6985351 29.2087482,36.7198482 C29.3472833,36.7395218 29.4636856,36.7509981 29.5587747,36.7509981 L30.1170138,36.7509981 C30.3834275,36.7509981 30.6309873,36.6583681 30.8596931,36.4722884 C31.088399,36.2862087 31.2007026,36.0288121 31.2007026,35.6992789 C31.2007026,35.4648349 31.1998829,35.2549829 31.1941448,35.0680835 C31.1884066,34.8836433 31.1867671,34.6893662 31.1867671,34.4860721 L31.1867671,32.76463 C31.1867671,32.5728121 31.1490594,32.4039469 31.0744635,32.255575 C30.9998677,32.1063833 30.9047785,31.9834231 30.7883763,31.888334 C30.6703345,31.792425 30.5457349,31.7194687 30.4129379,31.6719241 C30.2793212,31.6251992 30.1498032,31.5956888 30.0227444,31.585852 L29.9907747,31.6014269 L29.9907747,31.585852 L29.4481106,31.585852 L29.4481106,30.8030057 L30.0227444,30.8030057 C30.276862,30.7923491 30.5137652,30.69726 30.7309948,30.5177381 C30.9498639,30.3349374 31.0588886,30.0857381 31.0588886,29.7676812 L31.0588886,28.3159317 C31.0588886,28.0609943 31.0138032,27.8568805 30.9236324,27.7027704 C30.8326419,27.5494801 30.7236172,27.4306186 30.5957387,27.3519241 C30.4678601,27.2724099 30.3358829,27.2224061 30.1981675,27.2002732 C30.0588127,27.1789602 29.9424104,27.1683036 29.8465015,27.1683036 L29.8145319,27.1683036 C29.7194427,27.1683036 29.6046799,27.1789602 29.4718829,27.2002732 C29.3382662,27.2224061 29.2087482,27.2666717 29.0816893,27.3363491 C28.9546305,27.4043871 28.8439664,27.5142315 28.7546153,27.6634231 C28.6644446,27.8117951 28.6193592,28.0134497 28.6193592,28.2683871 L27.8381523,28.2683871 C27.8381523,27.6839165 28.015215,27.2248653 28.3717994,26.8887742 C28.7275641,26.5543226 29.2087482,26.3870968 29.8145319,26.3870968 L29.8465015,26.3870968 C30.4522852,26.3870968 30.9367482,26.5600607 31.2974313,26.9035294 C31.6589341,27.2510968 31.8392757,27.7208046 31.8392757,28.3159317 L31.8392757,29.7676812 C31.8392757,30.0545882 31.7794351,30.3201822 31.6564749,30.5652827 C31.5343345,30.8095636 31.3671087,31.0169564 31.1547975,31.1858216 C31.3876021,31.3563264 31.5818791,31.5751954 31.7359892,31.8407894 C31.8900992,32.1063833 31.9671542,32.4137837 31.9671542,32.76463 L31.9671542,34.4860721 Z" stroke="#636463" stroke-width="0.731"></path>
                                    <path d="M38.1545091,28.3159317 C38.1545091,28.0609943 38.1094237,27.8568805 38.0192529,27.7027704 C37.9282624,27.5494801 37.8192377,27.4306186 37.6929986,27.3511044 C37.5643004,27.2732296 37.4347823,27.2224061 37.3011656,27.2002732 C37.1683687,27.1781404 37.0544256,27.1674839 36.9585167,27.1674839 L36.4010973,27.1674839 C36.1346837,27.1674839 35.8871239,27.2609336 35.6592377,27.4470133 C35.4297121,27.633093 35.3165888,27.8913093 35.3165888,28.2200228 L35.3165888,35.6025503 C35.3165888,35.8574877 35.3608544,36.063241 35.4518449,36.217351 C35.5420157,36.3706414 35.6510404,36.4870436 35.7797387,36.5673776 C35.9059778,36.6477116 36.0395945,36.6977154 36.1781296,36.7198482 C36.3150252,36.7395218 36.4273288,36.7518178 36.5117615,36.7518178 L37.0863952,36.7518178 C37.3405129,36.7518178 37.5823345,36.6583681 37.8110404,36.4714687 C38.0397463,36.285389 38.1545091,36.0329108 38.1545091,35.7148539 L38.1545091,28.3159317 Z M36.9585167,26.3870968 C37.5643004,26.3870968 38.0454844,26.5617002 38.4012491,26.9125465 C38.7578336,27.2633928 38.9357159,27.7322808 38.9357159,28.3159317 L38.9357159,35.7148539 C38.9357159,35.9911044 38.879974,36.2419431 38.7684901,36.4640911 C38.6561865,36.6870588 38.5135527,36.8780569 38.3381296,37.0379051 C38.1618867,37.1985731 37.9651504,37.3198937 37.7479208,37.4043264 C37.5298715,37.4895787 37.309363,37.5313852 37.0863952,37.5313852 L36.5117615,37.5313852 C35.9059778,37.5313852 35.4256134,37.3600607 35.0698487,37.0133131 C34.7124446,36.6698444 34.5345622,36.1976774 34.5345622,35.6025503 L34.5345622,28.2200228 C34.5345622,27.9331157 34.5903041,27.6781784 34.701788,27.4552106 C34.8132719,27.2314231 34.9567254,27.040425 35.1329683,26.8822163 C35.3083914,26.7215484 35.5075869,26.599408 35.7313744,26.5141556 C35.9543421,26.429723 36.1781296,26.3870968 36.4010973,26.3870968 L36.9585167,26.3870968 L36.9585167,26.3870968 Z" fill="#636463"></path>
                                    <path d="M38.1545091,28.3159317 C38.1545091,28.0609943 38.1094237,27.8568805 38.0192529,27.7027704 C37.9282624,27.5494801 37.8192377,27.4306186 37.6929986,27.3511044 C37.5643004,27.2732296 37.4347823,27.2224061 37.3011656,27.2002732 C37.1683687,27.1781404 37.0544256,27.1674839 36.9585167,27.1674839 L36.4010973,27.1674839 C36.1346837,27.1674839 35.8871239,27.2609336 35.6592377,27.4470133 C35.4297121,27.633093 35.3165888,27.8913093 35.3165888,28.2200228 L35.3165888,35.6025503 C35.3165888,35.8574877 35.3608544,36.063241 35.4518449,36.217351 C35.5420157,36.3706414 35.6510404,36.4870436 35.7797387,36.5673776 C35.9059778,36.6477116 36.0395945,36.6977154 36.1781296,36.7198482 C36.3150252,36.7395218 36.4273288,36.7518178 36.5117615,36.7518178 L37.0863952,36.7518178 C37.3405129,36.7518178 37.5823345,36.6583681 37.8110404,36.4714687 C38.0397463,36.285389 38.1545091,36.0329108 38.1545091,35.7148539 L38.1545091,28.3159317 Z M36.9585167,26.3870968 C37.5643004,26.3870968 38.0454844,26.5617002 38.4012491,26.9125465 C38.7578336,27.2633928 38.9357159,27.7322808 38.9357159,28.3159317 L38.9357159,35.7148539 C38.9357159,35.9911044 38.879974,36.2419431 38.7684901,36.4640911 C38.6561865,36.6870588 38.5135527,36.8780569 38.3381296,37.0379051 C38.1618867,37.1985731 37.9651504,37.3198937 37.7479208,37.4043264 C37.5298715,37.4895787 37.309363,37.5313852 37.0863952,37.5313852 L36.5117615,37.5313852 C35.9059778,37.5313852 35.4256134,37.3600607 35.0698487,37.0133131 C34.7124446,36.6698444 34.5345622,36.1976774 34.5345622,35.6025503 L34.5345622,28.2200228 C34.5345622,27.9331157 34.5903041,27.6781784 34.701788,27.4552106 C34.8132719,27.2314231 34.9567254,27.040425 35.1329683,26.8822163 C35.3083914,26.7215484 35.5075869,26.599408 35.7313744,26.5141556 C35.9543421,26.429723 36.1781296,26.3870968 36.4010973,26.3870968 L36.9585167,26.3870968 Z" stroke="#636463" stroke-width="0.731"></path>
                                    <path d="M42.8928468,36.7362429 C43.1477842,36.7362429 43.3896059,36.6436129 43.6183117,36.4575332 C43.8470176,36.2714535 43.960141,36.0189753 43.960141,35.7000987 L43.960141,32.7654497 C43.960141,32.5637951 43.9224332,32.3891917 43.8420992,32.2391803 C43.7617652,32.0908083 43.6601182,31.9686679 43.5387975,31.872759 C43.4150176,31.7776698 43.2846799,31.7055332 43.1477842,31.6571689 C43.0100689,31.6096243 42.8756324,31.5866717 42.7493933,31.5866717 L41.1230404,31.5866717 L41.1230404,36.7362429 L42.8928468,36.7362429 Z M41.1230404,27.1691233 L41.1230404,30.8038254 L42.7174237,30.8038254 C42.9617045,30.7833321 43.1871315,30.6825047 43.395344,30.5013435 C43.6019171,30.3210019 43.706843,30.0767211 43.706843,29.7685009 L43.706843,29.2102619 C43.706843,29.1996053 43.7035641,29.1807514 43.697826,29.1537002 C43.6929076,29.1274687 43.6896286,29.0856622 43.6896286,29.0266414 L43.6896286,28.3003567 C43.6896286,28.0462391 43.6445432,27.8437647 43.5543725,27.6953928 C43.4642017,27.5462011 43.3543573,27.4314383 43.2272985,27.3527438 C43.1002396,27.2732296 42.9699019,27.2232258 42.8371049,27.201093 C42.7043079,27.1797799 42.5895451,27.1691233 42.4936362,27.1691233 L41.1230404,27.1691233 Z M44.743807,34.4877116 L44.743807,35.7000987 C44.743807,35.986186 44.6856059,36.2419431 44.5749417,36.4640911 C44.4634578,36.6878786 44.3191846,36.8764175 44.1445812,37.0305275 C43.9683383,37.1854573 43.7724218,37.3043188 43.5543725,37.3895712 C43.3363231,37.4748235 43.1149948,37.5174497 42.8928468,37.5174497 L40.7557994,37.5174497 L40.7557994,37.5018748 L40.3410138,37.5018748 L40.3410138,26.3870968 L42.4936362,26.3870968 C43.1002396,26.3870968 43.5822434,26.5608805 43.9371884,26.9051689 C44.2945926,27.2519165 44.4716552,27.7167059 44.4716552,28.3003567 L44.4716552,29.0110664 C44.4716552,29.1012372 44.4757539,29.1561594 44.4880499,29.1782922 L44.4880499,29.7685009 C44.4880499,30.0447514 44.429029,30.2988691 44.311807,30.5341328 C44.1954047,30.7677571 44.0404749,30.968592 43.8494768,31.1390968 C44.1035945,31.3104213 44.3167254,31.5301101 44.4880499,31.8006224 C44.6569152,32.0719545 44.743807,32.3932903 44.743807,32.7654497 L44.743807,34.4877116 L44.743807,34.4877116 Z" fill="#636463"></path>
                                    <path d="M42.8928468,36.7362429 C43.1477842,36.7362429 43.3896059,36.6436129 43.6183117,36.4575332 C43.8470176,36.2714535 43.960141,36.0189753 43.960141,35.7000987 L43.960141,32.7654497 C43.960141,32.5637951 43.9224332,32.3891917 43.8420992,32.2391803 C43.7617652,32.0908083 43.6601182,31.9686679 43.5387975,31.872759 C43.4150176,31.7776698 43.2846799,31.7055332 43.1477842,31.6571689 C43.0100689,31.6096243 42.8756324,31.5866717 42.7493933,31.5866717 L41.1230404,31.5866717 L41.1230404,36.7362429 L42.8928468,36.7362429 Z M41.1230404,27.1691233 L41.1230404,30.8038254 L42.7174237,30.8038254 C42.9617045,30.7833321 43.1871315,30.6825047 43.395344,30.5013435 C43.6019171,30.3210019 43.706843,30.0767211 43.706843,29.7685009 L43.706843,29.2102619 C43.706843,29.1996053 43.7035641,29.1807514 43.697826,29.1537002 C43.6929076,29.1274687 43.6896286,29.0856622 43.6896286,29.0266414 L43.6896286,28.3003567 C43.6896286,28.0462391 43.6445432,27.8437647 43.5543725,27.6953928 C43.4642017,27.5462011 43.3543573,27.4314383 43.2272985,27.3527438 C43.1002396,27.2732296 42.9699019,27.2232258 42.8371049,27.201093 C42.7043079,27.1797799 42.5895451,27.1691233 42.4936362,27.1691233 L41.1230404,27.1691233 Z M44.743807,34.4877116 L44.743807,35.7000987 C44.743807,35.986186 44.6856059,36.2419431 44.5749417,36.4640911 C44.4634578,36.6878786 44.3191846,36.8764175 44.1445812,37.0305275 C43.9683383,37.1854573 43.7724218,37.3043188 43.5543725,37.3895712 C43.3363231,37.4748235 43.1149948,37.5174497 42.8928468,37.5174497 L40.7557994,37.5174497 L40.7557994,37.5018748 L40.3410138,37.5018748 L40.3410138,26.3870968 L42.4936362,26.3870968 C43.1002396,26.3870968 43.5822434,26.5608805 43.9371884,26.9051689 C44.2945926,27.2519165 44.4716552,27.7167059 44.4716552,28.3003567 L44.4716552,29.0110664 C44.4716552,29.1012372 44.4757539,29.1561594 44.4880499,29.1782922 L44.4880499,29.7685009 C44.4880499,30.0447514 44.429029,30.2988691 44.311807,30.5341328 C44.1954047,30.7677571 44.0404749,30.968592 43.8494768,31.1390968 C44.1035945,31.3104213 44.3167254,31.5301101 44.4880499,31.8006224 C44.6569152,32.0719545 44.743807,32.3932903 44.743807,32.7654497 L44.743807,34.4877116 Z" stroke="#636463" stroke-width="0.731"></path>
                                    <path d="M48.9515034,32.255575 L50.9442776,32.255575 L50.1630708,27.1683036 L49.7802548,27.1683036 L48.9515034,32.255575 Z M49.1105319,26.3870968 L50.8327937,26.3870968 L52.5386609,37.4854801 L51.7410594,37.501055 L51.0393668,32.8769336 L51.0393668,33.035962 L48.8244446,33.035962 L48.0899626,37.501055 L47.3087558,37.4854801 L49.1105319,26.3870968 L49.1105319,26.3870968 Z" fill="#636463"></path>
                                    <path d="M48.9515034,32.255575 L50.9442776,32.255575 L50.1630708,27.1683036 L49.7802548,27.1683036 L48.9515034,32.255575 Z M49.1105319,26.3870968 L50.8327937,26.3870968 L52.5386609,37.4854801 L51.7410594,37.501055 L51.0393668,32.8769336 L51.0393668,33.035962 L48.8244446,33.035962 L48.0899626,37.501055 L47.3087558,37.4854801 L49.1105319,26.3870968 Z" stroke="#636463" stroke-width="0.731"></path>
                                    <polyline fill="#636463" points="57.8964446 26.3870968 58.6776514 26.3870968 58.6776514 37.51663 57.8964446 37.51663 57.8964446 31.6006072 55.0585243 31.6006072 55.0585243 37.51663 54.2764977 37.51663 54.2764977 26.3870968 55.0585243 26.3870968 55.0585243 30.8194004 57.8964446 30.8194004 57.8964446 26.3870968"></polyline>
                                    <polygon stroke="#636463" stroke-width="0.731" points="57.8964446 26.3870968 58.6776514 26.3870968 58.6776514 37.51663 57.8964446 37.51663 57.8964446 31.6006072 55.0585243 31.6006072 55.0585243 37.51663 54.2764977 37.51663 54.2764977 26.3870968 55.0585243 26.3870968 55.0585243 30.8194004 57.8964446 30.8194004"></polygon>
                                    <polyline fill="#636463" points="64.8330366 26.3870968 65.6462131 26.3870968 65.6462131 37.51663 64.8641865 37.51663 64.8641865 28.8594156 62.0410214 37.51663 61.2442396 37.51663 61.2442396 26.3870968 62.0262662 26.3870968 62.0262662 35.0467704 64.8330366 26.3870968"></polyline>
                                    <polygon stroke="#636463" stroke-width="0.731" points="64.8330366 26.3870968 65.6462131 26.3870968 65.6462131 37.51663 64.8641865 37.51663 64.8641865 28.8594156 62.0410214 37.51663 61.2442396 37.51663 61.2442396 26.3870968 62.0262662 26.3870968 62.0262662 35.0467704"></polygon>
                                    <path d="M71.8942282,32.3178748 L71.8942282,27.1683036 L70.1252415,27.1683036 C69.8694844,27.1683036 69.6284825,27.2609336 69.3989569,27.4461935 C69.1710708,27.633093 69.0563079,27.8855712 69.0563079,28.2036281 L69.0563079,31.153852 C69.0563079,31.3563264 69.0964749,31.5284706 69.1759892,31.6719241 C69.2555034,31.8153776 69.3571504,31.9358786 69.4792909,32.0317875 C69.6014313,32.1260569 69.731769,32.1981935 69.8694844,32.2457381 C70.0080195,32.2941025 70.1416362,32.3178748 70.2678753,32.3178748 L71.8942282,32.3178748 Z M72.2614692,26.4026717 L72.6762548,26.4026717 L72.6762548,37.5322049 L71.8942282,37.5322049 L71.8942282,33.0990816 L71.2089303,33.0990816 C70.9966191,33.1212144 70.8097197,33.2253207 70.651511,33.4105806 C70.490843,33.5966603 70.3375527,33.8852068 70.1891808,34.2786793 C70.0301523,34.6934649 69.8776818,35.0951347 69.7342282,35.4828691 C69.5907747,35.8714231 69.4653554,36.217351 69.3587899,36.5190133 C69.2530442,36.822315 69.1358222,37.1600455 69.0079436,37.5322049 L68.2119816,37.5322049 C68.3488772,37.0952865 68.4767558,36.7116509 68.5939778,36.3763795 C68.71038,36.0419279 68.8439967,35.6673093 68.9923687,35.251704 C69.1415603,34.8377381 69.2956704,34.4229526 69.4555186,34.0089867 C69.497325,33.8917647 69.5555262,33.7499507 69.6309417,33.5851841 C69.7047178,33.4212372 69.8063649,33.249093 69.9342434,33.067112 C69.7211125,33.0351423 69.5161789,32.9671044 69.3202624,32.8605389 C69.1218867,32.7539734 68.9472833,32.619537 68.7948127,32.4539507 C68.6398829,32.2891841 68.5152833,32.0973662 68.4185546,31.8793169 C68.3234654,31.662907 68.2751011,31.4202657 68.2751011,31.153852 L68.2751011,28.2036281 C68.2751011,27.9290171 68.3292036,27.6789981 68.4349493,27.4552106 C68.540695,27.2314231 68.6825091,27.0412448 68.8571125,26.8805769 C69.0333554,26.7223681 69.2317311,26.599408 69.4555186,26.5141556 C69.6784863,26.4289032 69.9022738,26.3870968 70.1252415,26.3870968 L72.2614692,26.3870968 L72.2614692,26.4026717 L72.2614692,26.4026717 Z" fill="#636463"></path>
                                    <path d="M71.8942282,32.3178748 L71.8942282,27.1683036 L70.1252415,27.1683036 C69.8694844,27.1683036 69.6284825,27.2609336 69.3989569,27.4461935 C69.1710708,27.633093 69.0563079,27.8855712 69.0563079,28.2036281 L69.0563079,31.153852 C69.0563079,31.3563264 69.0964749,31.5284706 69.1759892,31.6719241 C69.2555034,31.8153776 69.3571504,31.9358786 69.4792909,32.0317875 C69.6014313,32.1260569 69.731769,32.1981935 69.8694844,32.2457381 C70.0080195,32.2941025 70.1416362,32.3178748 70.2678753,32.3178748 L71.8942282,32.3178748 Z M72.2614692,26.4026717 L72.6762548,26.4026717 L72.6762548,37.5322049 L71.8942282,37.5322049 L71.8942282,33.0990816 L71.2089303,33.0990816 C70.9966191,33.1212144 70.8097197,33.2253207 70.651511,33.4105806 C70.490843,33.5966603 70.3375527,33.8852068 70.1891808,34.2786793 C70.0301523,34.6934649 69.8776818,35.0951347 69.7342282,35.4828691 C69.5907747,35.8714231 69.4653554,36.217351 69.3587899,36.5190133 C69.2530442,36.822315 69.1358222,37.1600455 69.0079436,37.5322049 L68.2119816,37.5322049 C68.3488772,37.0952865 68.4767558,36.7116509 68.5939778,36.3763795 C68.71038,36.0419279 68.8439967,35.6673093 68.9923687,35.251704 C69.1415603,34.8377381 69.2956704,34.4229526 69.4555186,34.0089867 C69.497325,33.8917647 69.5555262,33.7499507 69.6309417,33.5851841 C69.7047178,33.4212372 69.8063649,33.249093 69.9342434,33.067112 C69.7211125,33.0351423 69.5161789,32.9671044 69.3202624,32.8605389 C69.1218867,32.7539734 68.9472833,32.619537 68.7948127,32.4539507 C68.6398829,32.2891841 68.5152833,32.0973662 68.4185546,31.8793169 C68.3234654,31.662907 68.2751011,31.4202657 68.2751011,31.153852 L68.2751011,28.2036281 C68.2751011,27.9290171 68.3292036,27.6789981 68.4349493,27.4552106 C68.540695,27.2314231 68.6825091,27.0412448 68.8571125,26.8805769 C69.0333554,26.7223681 69.2317311,26.599408 69.4555186,26.5141556 C69.6784863,26.4289032 69.9022738,26.3870968 70.1252415,26.3870968 L72.2614692,26.3870968 L72.2614692,26.4026717 Z" stroke="#636463" stroke-width="0.731"></path>
                                </g>
                            </g>
                        </g>
                    </g>
                </g>
            </g>
        </g>
    </g>
</svg>