<svg width="100" height="100" viewBox="0 0 100 100" version="1.1" xmlns="http://www.w3.org/2000/svg" xmlns:xlink="http://www.w3.org/1999/xlink"><defs><polygon id="path-1" points="0.0145985401 0.097323601 0.0145985401 99.7571776 99.659854 99.7571776 99.659854 0.097323601 0.0145985401 0.097323601"/></defs><g transform="translate(-477.000000, -2749.000000) translate(-402.000000, 2241.000000) translate(497.000000, 204.000000) translate(382.000000, 304.000000)" stroke="none" stroke-width="1" fill="none" fill-rule="evenodd"><mask id="mask-2" fill="#fff"><use xlink:href="#path-1"/></mask><path d="M49.829927,0.097323601 C77.3493917,0.097323601 99.659854,22.4065693 99.659854,49.9272506 C99.659854,77.4467153 77.3493917,99.7571776 49.829927,99.7571776 C22.3092457,99.7571776 0,77.4467153 0,49.9272506 C0,22.4065693 22.3092457,0.097323601 49.829927,0.097323601 Z" fill="#7EAA40" mask="url(#mask-2)"/><path d="M39.6812652,14.5627737 C38.6291971,13.7265207 37.3041363,13.076399 36.1343066,12.503163 C35.4357664,12.1600973 34.7761557,11.836983 34.2951338,11.529927 C33.1773723,10.8180049 32.363017,8.99513382 32.4788321,7.46690998 C32.5282238,6.81216545 32.7754258,5.95109489 33.6734793,5.55474453 C34.626764,5.13260341 35.3454988,5.89099757 35.5819951,6.14111922 C36.0781022,6.66666667 36.513382,7.42895377 36.7739659,8.23479319 C36.9705596,8.84403893 37.0038929,9.2756691 36.9829684,9.50364964 C36.6360097,9.45328467 36.2909976,9.65571776 36.173236,9.99975669 C36.040146,10.3895377 36.2474453,10.8114355 36.6360097,10.9445255 C37.2491484,11.1545012 37.8126521,11.0004866 38.1537713,10.5357664 C38.6605839,12.1012165 39.2914842,13.549635 40.0243309,14.8518248 C39.9150852,14.7537713 39.8019465,14.6559611 39.680292,14.5608273 L39.6812652,14.5627737 Z M49.8289538,41.4941606 L56.0579075,41.4941606 L56.0579075,40.840146 C54.2274939,40.7223844 51.836253,36.6279805 51.6927007,34.4143552 L50.8686131,21.7364964 C53.6143552,21.3973236 56.1226277,19.7245742 58.1309002,17.129927 C58.0510949,17.4386861 58.0131387,17.7571776 58.0148418,18.0841849 C58.0206813,19.1009732 58.5776156,19.9659367 59.5041363,20.4012165 C59.8909976,20.5817518 60.3036496,20.6712895 60.7121655,20.6712895 C61.3328467,20.6712895 61.9430657,20.4649635 62.4257908,20.0666667 C63.5026764,19.1790754 63.619708,18.0698297 63.1776156,17.4340633 C62.8051095,16.8941606 62.1265207,16.7583942 61.526764,17.1024331 C61.1703163,17.3075426 61.0467153,17.763747 61.2530414,18.1192214 C61.3822384,18.3454988 61.6131387,18.4776156 61.8557178,18.4919708 C61.7909976,18.6087591 61.6768856,18.7559611 61.4793187,18.9184915 C61.1257908,19.2104623 60.5858881,19.2635036 60.136253,19.053528 C59.9014599,18.9442822 59.507056,18.6705596 59.5034063,18.0773723 C59.4995134,17.2381995 59.943309,16.4922141 60.903163,15.7279805 C61.8270073,14.9924574 63.0768856,14.380292 64.1783455,13.8403893 C64.9150852,13.4793187 65.6116788,13.1381995 66.163017,12.7873479 C66.9355231,12.2951338 67.6170316,11.4576642 68.0800487,10.4323601 C68.5313869,9.43333333 68.7386861,8.33941606 68.6635036,7.35571776 C68.550365,5.85888078 67.8128954,4.73527981 66.5868613,4.1946472 C65.2647202,3.60997567 63.8666667,4.04817518 62.7527981,5.39586375 C62.7119221,5.44452555 62.6729927,5.49391727 62.6340633,5.54525547 C62.8231144,4.16788321 62.9248175,2.74038929 62.9287105,1.27688564 L36.7311436,1.27688564 C36.7357664,2.74038929 36.8384428,4.16788321 37.0257908,5.54525547 C36.9878345,5.49489051 36.9476886,5.44452555 36.9077859,5.39586375 C35.792944,4.04817518 34.3958637,3.61094891 33.0729927,4.1946472 C31.8479319,4.73527981 31.1092457,5.85790754 30.9963504,7.35571776 C30.9221411,8.34038929 31.1284672,9.43333333 31.5788321,10.4323601 C32.0416058,11.4586375 32.7221411,12.2941606 33.496837,12.7873479 C34.0481752,13.1381995 34.7437956,13.4793187 35.4812652,13.8403893 C36.5827251,14.380292 37.8316302,14.9924574 38.7564477,15.7279805 C39.7163017,16.4922141 40.1603406,17.2381995 40.1554745,18.0773723 C40.1525547,18.6705596 39.7571776,18.9442822 39.5226277,19.053528 C39.0729927,19.2644769 38.5340633,19.2104623 38.179562,18.9184915 C37.9827251,18.7559611 37.8678832,18.6087591 37.803163,18.4919708 C38.0445255,18.4776156 38.2746959,18.346472 38.4058394,18.1192214 C38.610219,17.763747 38.4875912,17.3075426 38.1311436,17.1024331 C37.5323601,16.7583942 36.8527981,16.8941606 36.4793187,17.4340633 C36.0381995,18.0698297 36.1562044,19.1800487 37.2328467,20.0666667 C37.7158151,20.4649635 38.3260341,20.6712895 38.946472,20.6712895 C39.3542579,20.6712895 39.7676399,20.5817518 40.153528,20.4012165 C41.0812652,19.96691 41.6372263,19.1009732 41.6437956,18.0841849 C41.6457421,17.7562044 41.6068127,17.4386861 41.5279805,17.129927 C43.536253,19.7255474 46.0442822,21.3973236 48.7900243,21.7364964 L47.96618,34.4143552 C47.8226277,36.6279805 45.4313869,40.7223844 43.6007299,40.840146 L43.6007299,41.4941606 L49.829927,41.4941606 L49.8289538,41.4941606 Z M59.9756691,14.5627737 C59.8559611,14.6588808 59.7418491,14.7557178 59.6326034,14.853528 C60.3654501,13.5515815 60.9953771,12.103163 61.5038929,10.5377129 C61.8452555,11.0024331 62.4087591,11.1564477 63.0209246,10.946472 C63.4104623,10.813382 63.6177616,10.3905109 63.4846715,10.0017032 C63.36691,9.65766423 63.0226277,9.45523114 62.6749392,9.50559611 C62.6549878,9.27737226 62.6873479,8.8459854 62.8839416,8.23673966 C63.1452555,7.43090024 63.579562,6.6676399 64.0766423,6.14306569 C64.3124088,5.89391727 65.029927,5.13454988 65.9851582,5.55644769 C66.8815085,5.95182482 67.1294404,6.81386861 67.1788321,7.46885645 C67.2948905,8.99708029 66.480292,10.8199513 65.3627737,11.5318735 C64.8827251,11.8389294 64.2231144,12.1620438 63.5245742,12.5051095 C62.3545012,13.0783455 61.0287105,13.7274939 59.9766423,14.5647202 L59.9756691,14.5627737 Z" fill="#FECE01"/><path d="M60.1856448,1.27493917 C60.1856448,1.27493917 62.7272506,18.479562 50.4029197,21.5189781 L51.1586375,34.3914842 C51.1282238,37.8158151 53.9413625,41.4951338 56.0588808,41.4951338 L56.0588808,40.8411192 C54.2284672,40.7233577 51.8372263,36.6289538 51.693674,34.4153285 L50.8695864,21.7374696 C53.5992701,21.4002433 56.0941606,19.7454988 58.0975669,17.1754258 C58.1099757,17.1574209 58.1214112,17.1423358 58.1328467,17.1309002 C58.1328467,17.1309002 59.0927007,16.0046229 59.8046229,14.7053528 C59.7467153,14.7547445 59.6905109,14.803163 59.6345499,14.8545012 C59.8435523,14.4839416 60.0430657,14.1009732 60.2350365,13.7065693 C60.8766423,12.1790754 61.5038929,10.5377129 61.5038929,10.5377129 C61.8832117,9.32871046 62.3878345,7.30437956 62.6340633,5.54428224 C62.8221411,4.16618005 62.9238443,2.73844282 62.9287105,1.27493917 L60.1856448,1.27493917 Z" fill="#F6A208"/><path d="M58.8029197,52.8773723 L40.8549878,52.8773723 L40.8549878,42.8124088 C40.8549878,42.0861314 41.4481752,41.4941606 42.173236,41.4941606 L57.4846715,41.4941606 C58.2097324,41.4941606 58.8029197,42.0861314 58.8029197,42.8124088 L58.8029197,52.8773723 Z" fill="#797979"/><path d="M60.46618,54.9111922 L39.1917275,54.9111922 L39.1917275,53.2099757 C39.1917275,52.5484185 39.7277372,52.0124088 40.3892944,52.0124088 L59.2686131,52.0124088 C59.929927,52.0124088 60.46618,52.5484185 60.46618,53.2099757 L60.46618,54.9111922 Z" fill="#807D7D"/><path d="M63.2498783,1.27493917 L36.4099757,1.27493917 C36.0875912,1.27493917 35.8272506,1.01459854 35.8272506,0.692214112 L35.8272506,0.680778589 C35.8272506,0.35863747 36.0875912,0.098296837 36.4099757,0.098296837 L63.2498783,0.098296837 C63.5710462,0.098296837 63.8326034,0.35863747 63.8326034,0.680778589 L63.8326034,0.692214112 C63.8316302,1.01459854 63.5710462,1.27493917 63.2498783,1.27493917 Z" fill="#FBB429"/><polygon fill="#807D7D" points="45.5377129 45.8927007 54.0545012 45.8927007 54.0545012 45.0819951 45.5377129 45.0819951"/><polygon fill="#807D7D" points="45.5377129 47.776399 54.0545012 47.776399 54.0545012 46.9656934 45.5377129 46.9656934"/><polygon fill="#807D7D" points="47.2817518 49.6591241 52.3114355 49.6591241 52.3114355 48.8484185 47.2817518 48.8484185"/><path d="M18.8126521,68.3863747 L74.9761557,68.3863747 L74.9761557,70.2815085 C72.3170316,73.6708029 72.7569343,77.4411192 74.9761557,80.2656934 L74.9761557,82.159854 L18.8126521,82.159854 C10.0394161,82.159854 10.0384428,68.3873479 18.8126521,68.3873479 L18.8126521,68.3863747 Z" fill="#1FD0C2"/><path d="M74.9761557,80.2656934 C72.7104623,76.9372263 72.5384428,73.6090024 74.9761557,70.2815085 L18.8126521,70.2815085 C16.1725061,70.2815085 14.0053528,72.5311436 14.0053528,75.273236 C14.0053528,78.0150852 16.1725061,80.2656934 18.8126521,80.2656934 L74.9761557,80.2656934 Z" fill="#FFF"/><path d="M74.4391727,71.0846715 C74.6017032,70.816545 74.7805353,70.5486618 74.9761557,70.2805353 L18.8126521,70.2805353 C13.4408759,70.2805353 11.9345499,77.9790754 17.3527981,80.0243309 C13.6537713,78.2243309 15.0347932,72.0863747 18.9172749,71.0836983 L74.4391727,71.0836983 L74.4391727,71.0846715 Z" fill="#ECF0F1"/><path d="M73.8832117,72.0360097 L15.163017,72.0360097 C15.2715328,71.9048662 15.3863747,71.7773723 15.507056,71.6586375 L74.073236,71.6586375 C74.0058394,71.7832117 73.9420925,71.9094891 73.8822384,72.0360097 L73.8832117,72.0360097 Z M14.6727494,72.7459854 C14.6034063,72.8686131 14.5377129,72.9939173 14.4778589,73.1233577 L73.4632603,73.1233577 C73.5012165,72.996837 73.5440389,72.8715328 73.5885645,72.7459854 L14.6727494,72.7459854 Z M14.2107056,73.8343066 C14.1746959,73.9576642 14.1423358,74.0832117 14.1158151,74.2104623 L73.2189781,74.2104623 C73.236983,74.0861314 73.2588808,73.9596107 73.283455,73.8343066 L14.2097324,73.8343066 L14.2107056,73.8343066 Z M14.0177616,74.9214112 C14.0092457,75.0374696 14.0053528,75.1552311 14.0053528,75.273236 L14.006326,75.2987835 L73.1447689,75.2987835 C73.1437956,75.173236 73.1467153,75.0479319 73.1523114,74.9214112 L14.0177616,74.9214112 Z M14.0576642,76.0087591 C14.0759124,76.136253 14.0995134,76.2615572 14.1270073,76.3861314 L73.23309,76.3861314 C73.2131387,76.2615572 73.1970803,76.1352798 73.1846715,76.0087591 L14.0576642,76.0087591 Z M14.340146,77.0970803 C14.3895377,77.2253041 14.4435523,77.3508516 14.5024331,77.4744526 L73.4868613,77.4744526 C73.4479319,77.3489051 73.4119221,77.2233577 73.379562,77.0970803 L14.340146,77.0970803 Z M14.9160584,78.1841849 C15.006326,78.3145985 15.103163,78.4408759 15.2048662,78.5615572 L73.9136253,78.5615572 C73.8547445,78.436253 73.7985401,78.3107056 73.7454988,78.1841849 L14.9160584,78.1841849 Z M15.9462287,79.2725061 C16.1248175,79.4104623 16.3131387,79.5367397 16.5090024,79.6489051 L74.5313869,79.6489051 C74.449635,79.5243309 74.3708029,79.3990268 74.2939173,79.2725061 L15.9462287,79.2725061 Z" fill="#ECF0F1"/><path d="M79.7919708,82.1588808 L14.6442822,82.1588808 L14.6442822,84.5798054 C17.7291971,88.9099757 17.2189781,93.7265207 14.6442822,97.336253 L14.6442822,99.7571776 L79.7919708,99.7571776 C89.970073,99.7571776 89.9710462,82.1588808 79.7919708,82.1588808 Z" fill="#FF5B61"/><path d="M14.6442822,97.336253 C17.2739659,93.0841849 17.4725061,88.8318735 14.6442822,84.5798054 L79.7939173,84.5798054 C82.8571776,84.5798054 85.370073,87.4547445 85.370073,90.9579075 C85.370073,94.4613139 82.8562044,97.3352798 79.7939173,97.3352798 L14.6442822,97.3352798 L14.6442822,97.336253 Z" fill="#FFF"/><path d="M15.2686131,85.607056 C15.079562,85.2639903 14.8722628,84.9218978 14.6442822,84.5798054 L79.7939173,84.5798054 C86.0240876,84.5798054 87.7717762,94.4155718 81.4875912,97.0304136 C85.7788321,94.7291971 84.176399,86.8873479 79.673236,85.6060827 L15.2695864,85.6060827 L15.2686131,85.607056 Z" fill="#ECF0F1"/><path d="M15.9128954,86.8209246 L84.0262774,86.8209246 C83.8997567,86.6525547 83.7666667,86.4909976 83.6270073,86.3389294 L15.6924574,86.3389294 C15.7703163,86.4985401 15.8435523,86.6593674 15.9128954,86.8209246 Z M84.5956204,87.7284672 C84.676399,87.8854015 84.7523114,88.0450122 84.8216545,88.2104623 L16.4004866,88.2104623 C16.3559611,88.049635 16.3072993,87.8880779 16.2552311,87.7284672 L84.5956204,87.7284672 Z M85.1316302,89.1180049 C85.173236,89.2766423 85.2104623,89.4372263 85.2408759,89.6007299 L16.6827251,89.6007299 C16.6618005,89.440146 16.636253,89.279562 16.6068127,89.1180049 L85.1316302,89.1180049 Z M85.3557178,90.5085158 C85.3644769,90.6576642 85.370073,90.8068127 85.370073,90.9579075 L85.370073,90.9892944 L16.7703163,90.9892944 C16.7712895,90.8296837 16.7693431,90.6681265 16.7618005,90.5075426 L85.356691,90.5075426 L85.3557178,90.5085158 Z M85.3092457,91.8980535 C85.2873479,92.0605839 85.2608273,92.2221411 85.2294404,92.3798054 L16.6676399,92.3798054 C16.6914842,92.2201946 16.7094891,92.0596107 16.7245742,91.8980535 L85.3092457,91.8980535 Z M84.9812652,93.2885645 C84.9253041,93.4518248 84.8625304,93.6126521 84.7941606,93.7703163 L16.3729927,93.7703163 C16.4177616,93.6097324 16.4593674,93.4501217 16.4975669,93.2885645 L84.9812652,93.2885645 Z M84.3150852,94.6781022 C84.2097324,94.8442822 84.0975669,95.0048662 83.9785888,95.159854 L15.8788321,95.159854 C15.9481752,95.0012165 16.0126521,94.8406326 16.0734793,94.6781022 L84.3150852,94.6781022 Z M83.1194647,96.0673966 C82.9124088,96.2452555 82.693674,96.4058394 82.4666667,96.550365 L15.1610706,96.550365 C15.2562044,96.3907543 15.3484185,96.2309002 15.4357664,96.0673966 L83.1194647,96.0673966 Z" fill="#ECF0F1"/><path d="M69.8953771,54.5909976 L26.5291971,54.5909976 L26.5291971,56.4851582 C28.5832117,59.8751825 28.2437956,63.6447689 26.5291971,66.4693431 L26.5291971,68.3635036 L69.8953771,68.3635036 C76.6698297,68.3635036 76.6698297,54.5909976 69.8953771,54.5909976 Z" fill="#FBB429"/><path d="M26.5291971,66.4693431 C28.2798054,63.1408759 28.4119221,59.8126521 26.5291971,56.4851582 L69.8961071,56.4851582 C71.9347932,56.4851582 73.6085158,58.7357664 73.6085158,61.4776156 C73.6085158,64.219708 71.9347932,66.4693431 69.8961071,66.4693431 L26.5291971,66.4693431 Z" fill="#FFF"/><path d="M26.9445255,57.2892944 C26.8192214,57.0211679 26.6812652,56.7530414 26.5291971,56.4851582 L69.8961071,56.4851582 C74.0428224,56.4851582 75.206326,64.1836983 71.0233577,66.229927 C73.880292,64.4296837 72.8131387,58.2919708 69.8163017,57.2892944 L26.9445255,57.2892944 Z" fill="#ECF0F1"/><path d="M27.373236,58.2396594 L72.7124088,58.2396594 C72.6287105,58.1075426 72.5403893,57.9810219 72.4462287,57.8613139 L27.2257908,57.8613139 C27.277129,57.9878345 27.3265207,58.1121655 27.3722628,58.2396594 L27.373236,58.2396594 Z M73.0924574,58.949635 C73.1457421,59.0722628 73.1961071,59.1975669 73.2435523,59.3260341 L27.6982968,59.3260341 C27.6688564,59.2004866 27.6364964,59.0749392 27.6021898,58.949635 L73.0924574,58.949635 Z M73.4489051,60.0377129 C73.476399,60.1603406 73.5012165,60.2868613 73.5231144,60.4141119 L27.8873479,60.4141119 C27.873236,60.2888078 27.8569343,60.1632603 27.836983,60.0377129 L73.4489051,60.0377129 Z M73.5980535,61.1250608 C73.6048662,61.2420925 73.6085158,61.3588808 73.6085158,61.4768856 L73.6085158,61.5014599 L27.9445255,61.5014599 C27.9452555,61.3768856 27.9425791,61.2506083 27.9386861,61.1250608 L73.5990268,61.1250608 L73.5980535,61.1250608 Z M73.5676399,62.213382 C73.553528,62.3396594 73.5352798,62.46618 73.5145985,62.589781 L27.8768856,62.589781 C27.8922141,62.4652068 27.9053528,62.3386861 27.9148418,62.213382 L73.5686131,62.213382 L73.5676399,62.213382 Z M73.3501217,63.3007299 C73.3119221,63.429927 73.2703163,63.5545012 73.2255474,63.6778589 L27.6812652,63.6778589 C27.7107056,63.5525547 27.7391727,63.4279805 27.763747,63.3007299 L73.3501217,63.3007299 Z M72.9053528,64.3888078 C72.8350365,64.5189781 72.759854,64.6454988 72.6810219,64.76618 L27.350365,64.76618 C27.3961071,64.6416058 27.4386861,64.5163017 27.4805353,64.3888078 L72.9053528,64.3888078 Z M72.1097324,65.4761557 C71.9720195,65.6148418 71.8265207,65.7423358 71.6754258,65.8545012 L26.8742092,65.8545012 C26.9379562,65.7289538 26.9987835,65.6043796 27.056691,65.4761557 L72.1097324,65.4761557 Z" fill="#ECF0F1"/></g></svg>