<svg width="100px" height="100px" viewBox="0 0 100 100" version="1.1" xmlns="http://www.w3.org/2000/svg" xmlns:xlink="http://www.w3.org/1999/xlink">
    <defs>
        <polygon id="path-1" points="0.01171875 100 100 100 100 0 0.01171875 0"></polygon>
    </defs>
    <g stroke="none" stroke-width="1" fill="none" fill-rule="evenodd">
        <g transform="translate(-770.000000, -2749.000000)">
            <g transform="translate(-402.000000, 2241.000000)">
                <g transform="translate(497.000000, 204.000000)">
                    <g transform="translate(675.000000, 304.000000)">
                        <g>
                            <mask id="mask-2" fill="white">
                                <use xlink:href="#path-1"></use>
                            </mask>
                            <g></g>
                            <path d="M50,0 C77.6142578,0 100,22.3857422 100,50 C100,77.6142578 77.6142578,100 50,100 C22.3857422,100 0,77.6142578 0,50 C0,22.3857422 22.3857422,0 50,0" fill="#7EAA40" mask="url(#mask-2)"></path>
                        </g>
                        <path d="M99.5390625,56.7902344 L87.9289062,45.1800781 L84.6763672,48.5320313 L72.9117187,36.7673828 L67.2835937,35.409375 L60.790625,39.5660156 L70.6982422,49.4738281 L62.9501953,49.5421875 L37.1757812,23.7677734 L32.1824219,24.4384766 L29.2660156,31.5605469 L47.3851562,49.6798828 L11.1111328,50 L34.5822266,73.4710938 L27.7777344,77.7777344 L50,100 C75.3107422,100 96.2255859,81.1919922 99.5390625,56.7902344" fill="#658932"></path>
                        <path d="M86.0126953,55.5554688 L22.2222656,55.5554688 L22.2222656,44.4445313 L86.0126953,44.4445313 C87.6009766,44.4445313 88.8888672,45.7320313 88.8888672,47.3205078 L88.8888672,52.6798828 C88.8888672,54.2679688 87.6009766,55.5554688 86.0126953,55.5554688" fill="#E09C38"></path>
                        <path d="M22.2222656,49.9158203 L22.2222656,55.5554687 L86.0126953,55.5554687 C87.6009766,55.5554687 88.8888672,54.2679687 88.8888672,52.6794922 L88.8888672,49.9158203 L22.2222656,49.9158203" fill="#D48A2F"></path>
                        <polygon fill="#56ADD5" points="22.2222656 55.5554688 81.3703125 55.5554688 81.3703125 44.4445313 22.2222656 44.4445313"></polygon>
                        <polygon fill="#3493C4" points="22.2222656 55.5554688 81.3703125 55.5554688 81.3703125 50 22.2222656 50"></polygon>
                        <polyline fill="#FBDF84" points="22.2222656 44.4445313 11.1111328 50 22.2222656 55.5554688 22.2222656 44.4445313"></polyline>
                        <polyline fill="#F8C230" points="11.2794922 49.9158203 11.1111328 50 22.2222656 55.5554687 22.2222656 49.9158203 11.2794922 49.9158203"></polyline>
                        <polyline fill="#525251" points="11.1111328 50 16.3019531 52.5953125 16.3019531 47.4046875 11.1111328 50"></polyline>
                        <polyline fill="#20201E" points="11.2794922 49.9158203 11.1111328 50 16.3019531 52.5953125 16.3019531 49.9158203 11.2794922 49.9158203"></polyline>
                        <path d="M33.3333984,22.2222656 C36.4015625,22.2222656 38.8888672,24.7095703 38.8888672,27.7777344 C38.8888672,30.8460938 36.4015625,33.3333984 33.3333984,33.3333984 C30.2650391,33.3333984 27.7777344,30.8460938 27.7777344,27.7777344 C27.7777344,24.7095703 30.2650391,22.2222656 33.3333984,22.2222656" fill="#FFFFFF"></path>
                        <path d="M33.3333984,22.2222656 C33.2957031,22.2222656 33.2589844,22.2273438 33.2212891,22.2279297 L33.2212891,33.3275391 C33.2585938,33.3283203 33.2953125,33.3333984 33.3333984,33.3333984 C36.4017578,33.3333984 38.8888672,30.8460938 38.8888672,27.7777344 C38.8888672,24.709375 36.4013672,22.2222656 33.3333984,22.2222656" fill="#CCCCC9"></path>
                        <polygon fill="#F8C230" points="27.7777344 77.7777344 44.4445312 77.7777344 44.4445312 61.1111328 27.7777344 61.1111328"></polygon>
                        <polygon fill="#E09C38" points="36 77.7777344 44.4445312 77.7777344 44.4445312 61.1111328 36 61.1111328"></polygon>
                        <polyline fill="#FFFFFF" points="60.7908203 39.5660156 64.4279297 27.6693359 72.9121094 36.7673828 60.7908203 39.5660156"></polyline>
                        <polyline fill="#CCCCC9" points="64.4279297 27.6693359 64.3990234 27.7640625 67.1335937 38.1017578 72.9121094 36.7673828 64.4279297 27.6693359"></polyline>
                    </g>
                </g>
            </g>
        </g>
    </g>
</svg>