<svg width="100px" height="100px" viewBox="0 0 100 100" version="1.1" xmlns="http://www.w3.org/2000/svg" xmlns:xlink="http://www.w3.org/1999/xlink">
    <defs>
        <polygon id="path-1" points="0.0118110236 100 100 100 100 0.00787401575 0.0118110236 0.00787401575"></polygon>
    </defs>
    <g stroke="none" stroke-width="1" fill="none" fill-rule="evenodd">
        <g transform="translate(-1065.000000, -2749.000000)">
            <g transform="translate(-402.000000, 2241.000000)">
                <g transform="translate(497.000000, 204.000000)">
                    <g transform="translate(970.000000, 304.000000)">
                        <g>
                            <mask id="mask-2" fill="white">
                                <use xlink:href="#path-1"></use>
                            </mask>
                            <g></g>
                            <path d="M50,0 C77.6141732,0 100,22.3858268 100,50 C100,77.6141732 77.6141732,100 50,100 C22.3858268,100 0,77.6141732 0,50 C0,22.3858268 22.3858268,0 50,0" fill="#8CD0E9" mask="url(#mask-2)"></path>
                        </g>
                        <path d="M17.7165354,88.1889764 C26.4566929,95.5905512 37.7165354,100 50,100 C62.2834646,100 73.5433071,95.511811 82.2834646,88.1889764 L17.7165354,88.1889764" fill="#14AEDC"></path>
                        <path d="M78.1889764,70 C78.0314961,70 77.8740157,70 77.7165354,69.9212598 C76.6141732,69.6850394 75.9055118,68.503937 76.1417323,67.4015748 L78.8188976,55.9055118 L67.7165354,44.8818898 C66.9291339,44.0944882 66.9291339,42.7559055 67.7165354,41.8897638 C68.503937,41.1023622 69.8425197,41.1023622 70.7086614,41.8897638 L83.4645669,54.6456693 L80.2362205,68.4251969 C80,69.3700787 79.1338583,70 78.1889764,70" fill="#2F424F"></path>
                        <path d="M67.3228346,47.5590551 L67.3228346,47.5590551 C69.4488189,47.5590551 71.1811024,45.8267717 71.1811024,43.7007874 L71.1811024,42.992126 C71.1811024,40.8661417 69.4488189,39.1338583 67.3228346,39.1338583 L67.3228346,47.5590551" fill="#E6E9EA"></path>
                        <path d="M78.8976378,75.7480315 C78.503937,75.7480315 78.0314961,75.5905512 77.7165354,75.3543307 C76.7716535,74.7244094 76.5354331,73.3858268 77.1653543,72.4409449 C77.8740157,71.4173228 77.6377953,70.0787402 76.6141732,69.3700787 C75.5905512,68.6614173 74.2519685,68.8976378 73.5433071,69.9212598 C72.9133858,70.8661417 71.5748031,71.1023622 70.6299213,70.4724409 C69.6850394,69.8425197 69.4488189,68.503937 70.0787402,67.5590551 C72.1259843,64.6456693 76.0629921,63.9370079 78.976378,65.9055118 C81.8897638,67.9527559 82.5984252,71.8897638 80.6299213,74.8031496 C80.2362205,75.4330709 79.5275591,75.7480315 78.8976378,75.7480315" fill="#2F424F"></path>
                        <path d="M80.3937008,51.496063 C82.6984252,51.496063 84.5669291,53.3645669 84.5669291,55.6692913 C84.5669291,57.9740157 82.6984252,59.8425197 80.3937008,59.8425197 C78.0889764,59.8425197 76.2204724,57.9740157 76.2204724,55.6692913 C76.2204724,53.3645669 78.0889764,51.496063 80.3937008,51.496063" fill="#FFFFFF"></path>
                        <path d="M21.8110236,70 C21.9685039,70 22.1259843,70 22.2834646,69.9212598 C23.3858268,69.6850394 24.0944882,68.503937 23.8582677,67.4015748 L21.1811024,55.9055118 L32.2834646,44.8031496 C33.0708661,44.015748 33.0708661,42.6771654 32.2834646,41.8110236 C31.496063,41.023622 30.1574803,41.023622 29.2913386,41.8110236 L16.6141732,54.6456693 L19.8425197,68.4251969 C20,69.3700787 20.8661417,70 21.8110236,70" fill="#2F424F"></path>
                        <path d="M32.6771654,47.5590551 L32.6771654,47.5590551 C30.5511811,47.5590551 28.8188976,45.8267717 28.8188976,43.7007874 L28.8188976,42.992126 C28.8188976,40.8661417 30.5511811,39.1338583 32.6771654,39.1338583 L32.6771654,47.5590551" fill="#E6E9EA"></path>
                        <path d="M21.1023622,75.7480315 C21.496063,75.7480315 21.9685039,75.5905512 22.2834646,75.3543307 C23.2283465,74.7244094 23.4645669,73.3858268 22.8346457,72.4409449 C22.1259843,71.4173228 22.3622047,70.0787402 23.3858268,69.3700787 C24.4094488,68.6614173 25.7480315,68.8976378 26.4566929,69.9212598 C27.0866142,70.8661417 28.4251969,71.1023622 29.3700787,70.4724409 C30.3149606,69.8425197 30.5511811,68.503937 29.9212598,67.5590551 C27.8740157,64.6456693 23.9370079,63.9370079 21.023622,65.9055118 C18.1102362,67.9527559 17.4015748,71.8897638 19.3700787,74.8031496 C19.7637795,75.4330709 20.4724409,75.7480315 21.1023622,75.7480315" fill="#2F424F"></path>
                        <path d="M19.6062992,51.496063 C21.9110236,51.496063 23.7795276,53.3645669 23.7795276,55.6692913 C23.7795276,57.9740157 21.9110236,59.8425197 19.6062992,59.8425197 C17.3015748,59.8425197 15.4330709,57.9740157 15.4330709,55.6692913 C15.4330709,53.3645669 17.3015748,51.496063 19.6062992,51.496063" fill="#FFFFFF"></path>
                        <path d="M65.4330709,63.9370079 L34.5669291,63.9370079 C33.5433071,63.9370079 32.6771654,63.0708661 32.6771654,62.0472441 L32.6771654,37.9527559 C32.6771654,36.9291339 33.5433071,36.0629921 34.5669291,36.0629921 L65.4330709,36.0629921 C66.4566929,36.0629921 67.3228346,36.9291339 67.3228346,37.9527559 L67.3228346,62.1259843 C67.3228346,63.0708661 66.4566929,63.9370079 65.4330709,63.9370079" fill="#FFFFFF"></path>
                        <path d="M61.1811024,32.2834646 L38.8188976,32.2834646 C38.0314961,32.2834646 37.480315,31.6535433 37.480315,30.9448819 L37.480315,17.007874 C37.480315,16.2204724 38.1102362,15.6692913 38.8188976,15.6692913 L61.1023622,15.6692913 C61.8897638,15.6692913 62.4409449,16.2992126 62.4409449,17.007874 L62.4409449,30.9448819 C62.519685,31.7322835 61.8897638,32.2834646 61.1811024,32.2834646" fill="#FFFFFF"></path>
                        <polygon fill="#2F424F" points="41.8897638 35.984252 58.1102362 35.984252 58.1102362 32.2834646 41.8897638 32.2834646"></polygon>
                        <path d="M55.9055118,19.0551181 C57.5580709,19.0551181 58.8976378,20.394685 58.8976378,22.0472441 C58.8976378,23.6998031 57.5580709,25.0393701 55.9055118,25.0393701 C54.2529528,25.0393701 52.9133858,23.6998031 52.9133858,22.0472441 C52.9133858,20.394685 54.2529528,19.0551181 55.9055118,19.0551181" fill="#E6E9EA"></path>
                        <path d="M55.9055118,20.2362205 C56.9057087,20.2362205 57.7165354,21.0470472 57.7165354,22.0472441 C57.7165354,23.0474409 56.9057087,23.8582677 55.9055118,23.8582677 C54.905315,23.8582677 54.0944882,23.0474409 54.0944882,22.0472441 C54.0944882,21.0470472 54.905315,20.2362205 55.9055118,20.2362205" fill="#2F424F"></path>
                        <path d="M56.8503937,20.3149606 C57.2852362,20.3149606 57.6377953,20.6675197 57.6377953,21.1023622 C57.6377953,21.5372047 57.2852362,21.8897638 56.8503937,21.8897638 C56.4155512,21.8897638 56.0629921,21.5372047 56.0629921,21.1023622 C56.0629921,20.6675197 56.4155512,20.3149606 56.8503937,20.3149606" fill="#FFFFFF"></path>
                        <path d="M44.0944882,19.0551181 C45.7470472,19.0551181 47.0866142,20.394685 47.0866142,22.0472441 C47.0866142,23.6998031 45.7470472,25.0393701 44.0944882,25.0393701 C42.4419291,25.0393701 41.1023622,23.6998031 41.1023622,22.0472441 C41.1023622,20.394685 42.4419291,19.0551181 44.0944882,19.0551181" fill="#E6E9EA"></path>
                        <path d="M44.0944882,20.2362205 C45.094685,20.2362205 45.9055118,21.0470472 45.9055118,22.0472441 C45.9055118,23.0474409 45.094685,23.8582677 44.0944882,23.8582677 C43.0942913,23.8582677 42.2834646,23.0474409 42.2834646,22.0472441 C42.2834646,21.0470472 43.0942913,20.2362205 44.0944882,20.2362205" fill="#2F424F"></path>
                        <path d="M45.1181102,20.3149606 C45.5529528,20.3149606 45.9055118,20.6675197 45.9055118,21.1023622 C45.9055118,21.5372047 45.5529528,21.8897638 45.1181102,21.8897638 C44.6832677,21.8897638 44.3307087,21.5372047 44.3307087,21.1023622 C44.3307087,20.6675197 44.6832677,20.3149606 45.1181102,20.3149606" fill="#FFFFFF"></path>
                        <path d="M62.519685,25.0393701 L62.519685,25.0393701 C63.9370079,25.0393701 65.1181102,23.8582677 65.1181102,22.4409449 L65.1181102,20.7086614 C65.1181102,19.2913386 63.9370079,18.1102362 62.519685,18.1102362 L62.519685,25.0393701" fill="#E6E9EA"></path>
                        <path d="M37.480315,25.0393701 L37.480315,25.0393701 C36.0629921,25.0393701 34.8818898,23.8582677 34.8818898,22.4409449 L34.8818898,20.7086614 C34.8818898,19.2913386 36.0629921,18.1102362 37.480315,18.1102362 L37.480315,25.0393701" fill="#E6E9EA"></path>
                        <polygon fill="#E6E9EA" points="51.1811024 70.2362205 62.4409449 70.2362205 62.4409449 63.9370079 51.1811024 63.9370079"></polygon>
                        <polygon fill="#FFFFFF" points="52.5984252 76.5354331 61.1811024 76.5354331 61.1811024 70.2362205 52.5984252 70.2362205"></polygon>
                        <polygon fill="#2F424F" points="54.5669291 82.8346457 59.1338583 82.8346457 59.1338583 76.5354331 54.5669291 76.5354331"></polygon>
                        <polygon fill="#2F424F" points="39.6062992 82.8346457 44.1732283 82.8346457 44.1732283 76.5354331 39.6062992 76.5354331"></polygon>
                        <polygon fill="#E6E9EA" points="36.2204724 70.2362205 47.480315 70.2362205 47.480315 63.9370079 36.2204724 63.9370079"></polygon>
                        <polygon fill="#FFFFFF" points="37.6377953 76.5354331 46.2204724 76.5354331 46.2204724 70.2362205 37.6377953 70.2362205"></polygon>
                        <path d="M61.8110236,88.3464567 C61.9685039,87.7952756 62.0472441,87.2440945 62.0472441,86.6929134 C62.0472441,83.7795276 59.6850394,81.496063 56.8503937,81.496063 C53.9370079,81.496063 51.6535433,83.8582677 51.6535433,86.6929134 C51.6535433,87.2440945 51.7322835,87.7952756 51.8897638,88.3464567 L61.8110236,88.3464567" fill="#E6E9EA"></path>
                        <path d="M46.8503937,88.3464567 C47.007874,87.7952756 47.0866142,87.2440945 47.0866142,86.6929134 C47.0866142,83.7795276 44.7244094,81.496063 41.8897638,81.496063 C38.976378,81.496063 36.6929134,83.8582677 36.6929134,86.6929134 C36.6929134,87.2440945 36.7716535,87.7952756 36.9291339,88.3464567 L46.8503937,88.3464567" fill="#E6E9EA"></path>
                    </g>
                </g>
            </g>
        </g>
    </g>
</svg>